<?xml version="1.0" encoding="UTF-8"?><svg id="Capa_1" xmlns="http://www.w3.org/2000/svg" xmlns:xlink="http://www.w3.org/1999/xlink" viewBox="0 0 480.47 77.33"><defs><style>.cls-1{fill:url(#Degradado_sin_nombre_186);}.cls-2{fill:#fff;}</style><linearGradient id="Degradado_sin_nombre_186" x1="243.03" y1="-4.41" x2="242.69" y2="73.85" gradientUnits="userSpaceOnUse"><stop offset="0" stop-color="#065500"/><stop offset=".97" stop-color="#0d7f00"/></linearGradient></defs><path class="cls-1" d="M489.74,50.63c.15-4.55-.35-9.28-2-11.89-1.67-2.64-4.01-3.93-5.64-4.55-.48-1.24-.99-1.96-.99-1.96,0,0-.27,.04-.7,.16V0H211.97c-1.04-.85-2.29-1.05-3.28-.88-.72,.12-1.38,.43-1.93,.88h-.25c-1.44-.64-2.74-.22-3.21-.03-.02,0-.03,.02-.05,.03H0V33.67c-.27,0-.42,0-.42,0,0,0-.17,.37-.32,1-.03-.02-.05-.03-.05-.03,0,0-3.47,1.92-3.33,6.66S.13,49.16,.13,49.16c.81-1.56,1.53-3.21,1.99-4.76,4,4.06,10.04,4.12,10.04,4.12-.46-2.86-1.19-5.75-2.2-8.05h.76c.62,2.64,1.73,4.46,1.73,4.46,1.6-1.39,3.14-2.9,4.4-4.43,.06,.4,.14,.81,.26,1.24,1.61,6.13,7.94,8.95,7.94,8.95,.59-2.28,1.02-4.65,1.15-6.8,.46,2.37,1.48,4.06,1.48,4.06,1.8-1.56,3.5-3.33,4.63-5.04,.01,.02,.02,.04,.03,.07,2.76,5.71,9.5,7.26,9.5,7.26,.08-1.37,.1-2.76,.05-4.11,.39-.37,.76-.75,1.13-1.14,.49,3.32,1.97,5.76,1.97,5.76,1.88-1.63,3.67-3.44,5.04-5.23,1.46,1.11,3.05,1.81,4.48,2.25,.6,1.82,1.31,2.98,1.31,2.98,.84-.72,1.65-1.48,2.42-2.26,.35,.03,.55,.03,.55,.03-.03-.17-.06-.34-.08-.51,2.18-2.28,3.92-4.69,4.48-6.8,.07-.25,.12-.5,.17-.74h.36c.34,.63,.74,1.28,1.22,1.93,.96,1.32,2.03,2.39,3.12,3.25,1.21,2.54,2.79,4.15,2.79,4.15,.42-.58,.83-1.17,1.22-1.77,2.18,.93,3.81,1.14,3.81,1.14-.41-1.78-.91-3.57-1.47-5.27,.18-.39,.35-.77,.51-1.16,.79,1.16,1.44,1.82,1.44,1.82,.69-.95,1.35-1.93,1.95-2.92,1.34,1.43,2.93,2.39,4.46,3.03-.52,5.16,1.54,9.22,1.54,9.22,3.38-3.24,6.56-6.98,8.03-10.19,3.1,2.64,7.27,2.67,7.27,2.67-.33-2.08-.85-4.18-1.56-5.92h.72c.49,5.9,5.49,9.82,5.49,9.82,1.08-2,2.04-4.11,2.7-6.1,.94,3.26,3.45,5.38,3.45,5.38,.62-1.05,1.2-2.15,1.68-3.23,.04,.31,.08,.48,.08,.48,3.35-1.31,6.64-3.15,8.02-5.16,.1-.14,.19-.28,.27-.42,1.08,5.56,6.03,8.95,6.03,8.95,.97-2.11,1.81-4.33,2.33-6.4,.63,2.4,1.62,4.03,1.62,4.03,1.84-1.6,3.6-3.36,4.95-5.12,.04,.05,.07,.1,.11,.15,3.93,4.98,10.85,5.04,10.85,5.04-.19-1.22-.44-2.44-.73-3.62,1.85,2.08,4.37,2.86,4.37,2.86,.23-1.74,.32-3.53,.16-5.08,1.92,5.38,7.39,7.97,7.39,7.97,.69-2.46,1.21-5.03,1.35-7.33,.57,3,1.87,5.13,1.87,5.13,2.08-1.8,4.04-3.82,5.45-5.79,.11,.16,.23,.32,.36,.47,2.24,2.84,5.46,4.08,7.81,4.62,.16,3.88,1.45,6.6,1.45,6.6,2.01-1.98,3.96-4.13,5.56-6.25,1.18,2.08,2.85,3.6,4.26,4.63-1.93,5.85,1.55,11.56,1.55,11.56,.79-.68,1.56-1.4,2.3-2.14-.08,.92-.04,1.92,.17,3.03,1.17,6.23,7.28,9.49,7.28,9.49,.48-1.44,.9-2.92,1.22-4.36,.55,.83,1.16,1.53,1.72,2.08-.12,.34-.16,.54-.16,.54,.19-.05,.38-.1,.57-.15,.72,.65,1.25,1,1.25,1,.22-.5,.42-1.01,.62-1.52,.79-.23,1.57-.48,2.33-.75,3.46,3.41,8.73,2.85,8.73,2.85-.48-1.7-1.09-3.39-1.8-4.85,.05-.02,.09-.03,.14-.05,1.2,1.78,2.33,2.68,2.33,2.68,.26-1.38,.49-2.8,.65-4.18,.07-.05,.15-.09,.22-.14,.92,1.38,1.9,2.18,1.9,2.18,1-1.75,1.86-3.65,2.26-5.31,3.78,0,6.8-2.26,6.8-2.26-.85-.81-1.75-1.59-2.66-2.29,2.41,.11,4-.37,4-.37-1.06-1.08-2.19-2.15-3.31-3.14,.36-.67,.68-1.36,.97-2.04,1.25,1.48,2.5,2.3,2.5,2.3,.91-2.09,1.64-4.3,1.93-6.24,.8,2.75,1.92,4.44,1.92,4.44,.96-1.32,1.89-2.7,2.75-4.08,.12,.06,.25,.13,.38,.18,.37,2.73,1.18,4.49,1.18,4.49,1.14-1.14,2.26-2.33,3.31-3.54,0,0,0,0,.01,0,1.47,1.08,3.07,1.76,4.49,2.18,.45,1.1,.86,1.76,.86,1.76,.47-.41,.93-.82,1.38-1.25,1.14,.19,1.89,.19,1.89,.19-.07-.44-.15-.88-.23-1.33,1.05,.26,2.11,.35,3.18,.28,4.08,1.98,8.07,2.02,8.07,2.02-.08-.51-.17-1.02-.27-1.53,1.35-.31,2.65-.67,3.84-1.11,1.2,2.95,3.59,4.76,3.59,4.76,.61-1.18,1.17-2.41,1.61-3.6,.32-.07,.63-.17,.93-.29,3.86,2.84,8.6,2.88,8.6,2.88-.13-.81-.28-1.61-.45-2.41,.81-.73,1.58-1.5,2.31-2.27,.17,.03,.35,.06,.52,.08,2.42,3,5.6,4.42,5.6,4.42,.24-.94,.46-1.89,.64-2.84,.12,.85,.26,1.36,.26,1.36,3.39-1.57,6.69-3.59,8.64-5.72,1.45,1.07,2.62,1.59,2.62,1.59,.59-2.28,1.02-4.65,1.15-6.8,.46,2.37,1.48,4.06,1.48,4.06,1.8-1.56,3.5-3.33,4.63-5.04,.01,.02,.02,.04,.03,.07,2.76,5.71,9.5,7.26,9.5,7.26,.08-1.37,.1-2.76,.05-4.11,.39-.37,.76-.75,1.13-1.14,.49,3.32,1.97,5.76,1.97,5.76,1.88-1.63,3.67-3.44,5.04-5.23,1.46,1.11,3.05,1.81,4.48,2.25,.6,1.82,1.31,2.98,1.31,2.98,.84-.72,1.65-1.48,2.42-2.26,.35,.03,.55,.03,.55,.03-.03-.17-.06-.34-.08-.51,2.18-2.28,3.92-4.69,4.48-6.8,.07-.25,.12-.5,.17-.74h.36c.34,.63,.74,1.28,1.22,1.93,.96,1.32,2.03,2.39,3.12,3.25,1.21,2.54,2.79,4.15,2.79,4.15,.42-.58,.83-1.17,1.22-1.77,2.18,.93,3.81,1.14,3.81,1.14-.41-1.78-.91-3.57-1.47-5.27,.18-.39,.35-.77,.51-1.15,.79,1.16,1.44,1.82,1.44,1.82,.69-.95,1.35-1.93,1.95-2.92,1.34,1.43,2.93,2.39,4.46,3.03-.52,5.16,1.54,9.22,1.54,9.22,3.38-3.24,6.56-6.98,8.03-10.19,3.1,2.64,7.27,2.67,7.27,2.67-.33-2.08-.85-4.18-1.56-5.92h.72c.49,5.9,5.49,9.82,5.49,9.82,1.08-2,2.04-4.11,2.69-6.1,.94,3.26,3.45,5.38,3.45,5.38,.62-1.05,1.2-2.15,1.68-3.23,.04,.31,.08,.48,.08,.48,3.35-1.31,6.64-3.15,8.02-5.16,.1-.14,.19-.28,.27-.42,1.08,5.56,6.03,8.95,6.03,8.95,.97-2.11,1.81-4.33,2.33-6.4,.63,2.4,1.62,4.03,1.62,4.03,1.84-1.6,3.6-3.36,4.95-5.12,.04,.05,.07,.1,.11,.15,3.93,4.98,10.85,5.04,10.85,5.04-.19-1.22-.44-2.44-.73-3.62,1.85,2.08,4.37,2.86,4.37,2.86,.23-1.74,.32-3.53,.16-5.08,1.92,5.38,7.39,7.97,7.39,7.97,.69-2.46,1.21-5.03,1.35-7.33,.57,3,1.87,5.13,1.87,5.13,2.08-1.8,4.04-3.82,5.45-5.79,.11,.16,.23,.32,.36,.47,2.24,2.84,5.46,4.08,7.81,4.62,.16,3.88,1.45,6.6,1.45,6.6,3.13-3.08,6.11-6.58,7.83-9.7,2.42,4.37,7.05,6.35,7.05,6.35,.4-1.68,.72-3.4,.91-5.05,.54,3.16,1.92,5.44,1.92,5.44,2.55-2.21,4.93-4.74,6.31-7.11,.51,.62,1.06,1.16,1.64,1.63,.53,3.18,1.93,5.48,1.93,5.48,1.07-.93,2.11-1.91,3.07-2.92,2.28,.67,4.09,.69,4.09,.69-.12-.78-.27-1.57-.44-2.34,3.25,3.51,7.9,4.45,7.9,4.45Z"/><g><path class="cls-2" d="M288.89,42.9c-.08,.07-.17,.13-.27,.2-1.82,.89-3.3,1.57-4.46,2.03-1.16,.46-2.11,.69-2.87,.69-.63,0-1.16-.17-1.58-.52-.43-.35-.82-.87-1.16-1.56-.35-.69-.71-1.55-1.09-2.57-.38-1.02-.87-2.21-1.46-3.56-.07-.16-.16-.35-.27-.54-.12-.2-.26-.33-.42-.4-.53-.23-1.07-.22-1.63,.02-.56,.25-1.02,.55-1.39,.92-.92,.86-1.66,1.82-2.2,2.87-.54,1.06-1.08,2.15-1.61,3.27-.36,.79-.63,1.19-.79,1.19s-.23-.46-.2-1.39c.03-.5,.07-1,.1-1.51,.03-.51,.07-1.03,.1-1.56,.1-.53,.21-1.11,.35-1.76,.13-.64,.26-1.36,.4-2.15,.07-.3,0-.51-.22-.64-.22-.13-.5-.2-.87-.2-.5,0-1.01,.12-1.53,.35-.53,.23-.78,.53-.74,.89,.1,1.25,.1,2.53,0,3.84-.07,.86-.13,1.71-.2,2.55-.1,.05-.21,.09-.32,.15-.64,.3-1.42,.64-2.33,1.04-.91,.4-1.91,.81-3.02,1.24-1.11,.43-2.21,.83-3.32,1.21-1.11,.38-2.17,.69-3.19,.92-1.02,.23-1.91,.35-2.67,.35-.69,0-1.25-.13-1.66-.4-.41-.26-.62-.68-.62-1.24v-.05c0-.2,.02-.36,.05-.5l.54-.15c.36-.1,.81-.3,1.34-.59,.53-.3,1.05-.64,1.56-1.04,.51-.4,.97-.83,1.39-1.31,.41-.48,.7-.93,.87-1.36,.23-.33,.42-.68,.57-1.06,.15-.38,.26-.7,.32-.97,.3-.96,.31-1.74,.05-2.35-.26-.61-.74-.92-1.44-.92-.46,0-1.01,.17-1.63,.5-.76,.4-1.54,1.03-2.35,1.91-.81,.87-1.52,1.85-2.13,2.92-.44,.77-.8,1.56-1.08,2.36-.22,.18-.42,.37-.61,.56-.38,.38-.83,.75-1.36,1.11-.96,.63-1.86,.94-2.72,.94s-1.7-.28-2.43-.84c-.73-.56-1.39-1.27-1.98-2.13-.59-.86-1.15-1.78-1.66-2.77-.51-.99-.98-1.93-1.41-2.82l-.05-.1c-.1-.23-.21-.52-.32-.87-.12-.35-.29-.57-.52-.67-.53-.23-1.07-.22-1.63,.02-.56,.25-1.02,.55-1.39,.92-.96,.86-1.7,1.82-2.23,2.87-.53,1.06-1.06,2.15-1.58,3.27-.36,.79-.64,1.2-.82,1.21-.18,.02-.24-.45-.17-1.41,.03-.53,.07-1.06,.1-1.58,.03-.53,.07-1.07,.1-1.63,.1-1.91,.18-3.54,.25-4.88,.07-1.34,.13-2.52,.2-3.56,.07-1.04,.15-2.01,.25-2.92,.1-.91,.23-1.88,.4-2.92,.16-1.04,.38-2.22,.64-3.54,.26-1.32,.58-2.92,.94-4.8,.07-.26,.12-.61,.15-1.04,.03-.43-.02-.76-.15-.99-.1-.16-.34-.21-.72-.12-.38,.08-.64,.16-.77,.22-.76,.3-1.41,.67-1.96,1.11-.54,.45-.9,1.08-1.06,1.91-.1,.46-.14,.95-.12,1.46,.02,.51,.02,1.01,.02,1.51v4.83c0,1.34-.02,2.54-.05,3.61-.03,1.07-.07,2.07-.12,3-.05,.92-.12,1.92-.2,3-.08,1.07-.17,2.28-.27,3.61-.1,1.34-.22,2.95-.35,4.83-.07,.69-.13,1.39-.2,2.08-.07,.69-.13,1.39-.2,2.08-.07,.56,0,1.06,.17,1.51,.18,.45,.62,.67,1.31,.67,.59-.03,1.01-.25,1.24-.64,.23-.4,.43-.82,.59-1.29,.1-.26,.26-.68,.5-1.26,.23-.58,.49-1.2,.77-1.88,.28-.68,.59-1.37,.92-2.08,.33-.71,.65-1.36,.97-1.96,.31-.59,.61-1.08,.89-1.46,.28-.38,.52-.57,.72-.57,.13,0,.24,.1,.32,.3,.08,.2,.14,.35,.17,.45,.26,.99,.63,1.96,1.09,2.92,.46,.96,1.04,1.82,1.73,2.6,.69,.78,1.49,1.4,2.4,1.88,.91,.48,1.92,.72,3.04,.72,1.29,0,2.61-.34,3.96-1.01,.95-.47,1.88-1.09,2.78-1.85-.15,.86-.12,1.63,.09,2.32,.33,1.02,.97,1.7,1.91,2.03,.94,.33,1.89,.45,2.85,.35,1.19-.1,2.43-.35,3.74-.77,1.3-.41,2.58-.91,3.84-1.49,1.25-.58,2.43-1.18,3.51-1.81,1.09-.63,2.03-1.19,2.82-1.68,.25-.18,.48-.34,.69-.49-.02,.2-.03,.39-.05,.59-.07,.69-.13,1.39-.2,2.08-.07,.69-.12,1.39-.15,2.08-.07,.56,0,1.06,.17,1.51,.18,.45,.6,.67,1.26,.67,.59-.03,1.01-.25,1.24-.64,.23-.4,.43-.82,.59-1.29,.1-.26,.26-.68,.5-1.26,.23-.58,.49-1.2,.77-1.88,.28-.68,.59-1.37,.92-2.08,.33-.71,.65-1.36,.97-1.96,.31-.59,.61-1.08,.89-1.46,.28-.38,.52-.57,.72-.57,.13,0,.24,.1,.32,.3,.08,.2,.14,.35,.17,.45,.2,.79,.49,1.65,.87,2.57,.38,.92,.84,1.79,1.39,2.6,.54,.81,1.18,1.5,1.91,2.08,.73,.58,1.53,.92,2.43,1.01,.73,.07,1.49-.05,2.3-.35,.81-.3,1.6-.68,2.38-1.16,.78-.48,1.51-1,2.2-1.56,.69-.56,1.29-1.09,1.78-1.58,.03-.03,.11-.12,.22-.25,.12-.13,.24-.27,.37-.42,.13-.15,.24-.29,.32-.42,.08-.13,.12-.23,.12-.3-.13,0-.24,.03-.32,.1Zm-39.21,.15c.51-.56,.97-.97,1.36-1.24,.3-.2,.5-.3,.62-.32,.12-.02,.21,.04,.27,.17-.3,.66-.78,1.26-1.46,1.81-.68,.54-1.38,1-2.1,1.36,.36-.63,.8-1.22,1.31-1.78Z"/><path class="cls-2" d="M217.54,13.51c-1.76-2.05-.8-2.78-1.54-4.75-.74-1.97-2.52-2.17-2.52-2.17,0,0,1.79,.64,2.35,2.23,.55,1.59-.1,2.3,.99,4,1.09,1.69,2.37,2.08,2.67,2.64,.3,.56-.1,.94-.48,.68-.37-.27-.78-.12-.78-.12l-1.22-1.35c.01-1.25-.41-1.41-.41-1.41l-2.16-1.71v-.08s.01-.71-.9-1.25c-.91-.54-1.84-1.24-2.61-2.43-.77-1.19-1.15-3.88-1.59-3.81-.44,.07-.08,2.17,1.09,4.19,0,0-.75-.38-.97-.68-.22-.3-.48-.22-.6-.1-.12,.12-.14,.34,.54,.78,.68,.44,1.93,1.19,2.32,1.49,.37,.27,.78,.75,.81,1.18-.11,0-.22,0-.33,0-.18-.25-1.08-.99-2.11-1.39,0,0,.13,.3,.23,.6-.74-.39-1.57-.91-2.21-1.52-1.46-1.4-2.97-4.09-3.27-3.96-.3,.13-.09,.82,.13,1.19,.21,.37,2.36,2.92,2.36,2.92,0,0-1.1-.41-1.4-.71-.3-.29-.62-.12-.69,0-.07,.12-.04,.37,.39,.6,.24,.13,1.08,.45,1.75,.7,.08,.08,.24,.28,.21,.62,0,0-1.07-.97-3.15-1.36,0,0,.57,.51,.57,.98,0,0-1.95-.88-4.03-1.1,0,0,.96,.65,.99,1.06,0,0-2.97-.45-5.57,.55,0,0,1.43,.23,1.65,.5,0,0-2.94,.55-4.4,2.13,0,0,1.01,0,1.36,.31,0,0-2.66,1.52-3.19,2.86,0,0,1.33-.21,1.43,.21,0,0-.98,.95-1.33,1.95,0,0,.19-.22,.7-.1,0,0-.61,.54-.81,2.63l.34-.17s.03,1.15,.11,1.8l.29-.33c.19,1.19,.68,2.33,1.53,3.37,1.82,2.21,4.5,3.46,6.99,4.65,1.81,.84,3.55,1.62,5.12,2.42,1.92,1.01,3.32,1.82,4.46,3.17,.34,.44,.62,.89,.8,1.42,.16,.43,.24,.87,.28,1.32,.15,1.84-.23,3.86-1.16,5.45-1.18,2.07-3.21,3.62-5.43,4.48-2.28,.85-4.99,1.05-7.39,.58-.29-.07-.55-.13-.79-.22,.26-.2,.56-.4,.87-.58,.77-.46,1.63-.87,2.47-1.22,.86-.34,1.76-.59,2.68-.73,.93-.15,1.9-.19,2.87-.15-1.83-.7-3.89-.94-5.94-.65-1.69,.26-4.48,.87-5.66,2.19-.77,.85-.74,2.02-.06,2.88,1,1.24,2.63,1.82,4.06,2.25,6.11,1.74,12.98-.08,16.95-5.19,2.55-3.22,3.72-8.02,2.77-12.07-1.03-4.34-4.54-7.11-8.5-8.62-3.46-1.4-6.94-1.78-10.23-3.2-.9-.43-1.78-.92-2.28-1.77-.13-.22-.21-.47-.26-.73,.53,.79,1.04,1.47,1.31,1.55,.61,.2,4.77-1.94,5.86-2.51,.17-.09,.36-.12,.55-.1l1.02,.11-.25,.57c-.06,.13-.01,.28,.11,.35l.52,.33c.06-.27-.31-.51-.31-.51l.19-.4,.15-.1,.98,1.18c.05,.06,.06,.15,.02,.23-.02,.05-.07,.08-.12,.1l-.26,.09,.31,.08c.11,.03,.22-.02,.27-.12l.11-.22c.03-.07,.03-.15,0-.22l-.37-.67,.98,.63c.06,.04,.11,.1,.13,.18,.02,.08,.01,.17-.03,.25l-.16,.27,.22-.06c.19-.05,.33-.21,.35-.41v-.1c.02-.11-.02-.21-.1-.29l-.96-.94h.66s.06,0,.08,.02c.04,.04,.05,.1,.03,.15l-.13,.25,.11-.03c.15-.04,.26-.17,.28-.32v-.11c.03-.13-.05-.25-.18-.29-.47-.13-1.55-.43-1.56-.43-.02,0-.45-.23-.56-.28h0s-.01,0-.01,0c0,0-.01,0-.01,0h0s-1.75-.18-1.75-.18c-.12-.01-.24,0-.36,.03-.83,.22-4.34,1.17-5.1,1.54-.02-.14-.22-.69-.47-1.34,.86-.19,3.61-1.8,4.38-2.25,.13-.08,.29-.12,.44-.11l.94,.05-.12,.53c-.02,.11,.03,.22,.14,.26l.46,.18c0-.22-.32-.35-.32-.35l.09-.34,.1-.1,.95,.77c.05,.04,.07,.11,.06,.18-.01,.04-.04,.08-.08,.1l-.19,.11,.26,.02c.09,0,.17-.05,.19-.14l.05-.19c.02-.06,0-.12-.04-.17l-.39-.47,.87,.34c.06,.02,.1,.06,.13,.12,.03,.06,.04,.13,.01,.2l-.09,.24,.16-.08c.14-.07,.22-.22,.21-.38v-.08c-.02-.09-.06-.16-.14-.21l-.9-.59,.52-.11s.05,0,.07,.01c.04,.02,.06,.07,.04,.11l-.06,.22,.08-.04c.11-.05,.18-.17,.17-.3v-.09c-.01-.11-.1-.19-.2-.2-.39-.03-1.28-.09-1.3-.09-.02,0-.43-.12-.5-.14h0s-1.43-.08-1.43-.08c-.1,0-.19,0-.28,.04-.65,.21-3.42,1.13-4.01,1.45-.04-.19-.11-1.17-.17-1.97,.9-1.15,2.13-2,3.76-2.38,2.72-.63,5.76-.12,8.45,.83,.75,1.09,1.83,1.93,3.09,2.41,2.02,.78,3.17,1.32,3.17,1.32-.08,.12-.99,.25-.99,.25,0,0,.47,.48,1.01,.48,.54,0,1.58-.54,2.27-.96,.69-.42-.07-1.07-.07-1.07,.1,0,.19-.01,.27-.03,.23-.06,.4-.27,.41-.51,.04-1.19-.6-.46-2.25-2.38Zm-21.08,35.49s0,0-.01,0c0,0,0,0,0,0,0,0,0-.02,0-.02,.03-.05,.06-.1,.1-.15,0,.02-.01,.04-.02,.06-.01,.04-.04,.09-.07,.12Zm19.68-34.54s-.62,.15-1.16-1.34c0,0,.79,.03,1.07,.48,.28,.46,.09,.86,.09,.86Z"/><path class="cls-2" d="M217.48,54.68c-.14,.82-.34,1.64-.59,2.43-.93,2.92-2.71,5.72-5.42,7.25-3.31,1.88-7.5,1.87-10.97,.4-1.96-.86-3.66-2.27-4.92-4-1.73-2.33-2.51-5.3-2.23-8.17,3.92,2.47,8.68,3.53,13.29,3.22,2.19-.15,4.37-.58,6.4-1.41,1.45-.6,3.2-1.26,4.19-2.56,1.11-1.51,.28-3.14-1.22-3.92-.45-.24-.91,.32-.58,.71,.41,.5,.96,1.12,.79,1.77-.47,1.22-2.99,2.1-4.21,2.57-6.16,2.14-13.29,1.35-18.82-2.12-.39-.27-.97-.03-1.04,.45-.3,1.77-.25,3.6,.17,5.34,.41,1.74,1.21,3.4,2.28,4.82,1.4,1.87,3.29,3.39,5.45,4.3,3.57,1.45,7.81,1.49,11.28-.29,2.39-1.18,4.21-3.33,5.36-5.69,.77-1.57,1.26-3.26,1.54-4.98,.07-.51-.67-.63-.77-.13Z"/><path class="cls-2" d="M205.74,44.1c1.47-.64,2.69-1.97,3.04-3.57,.2-.98,.17-1.99-.07-2.98-.65-2.66-3.19-4.35-5.58-5.29-.89-.35-1.8-.64-2.72-.88-.86-.21-1.82-.44-2.65-.7-2.23-.7-4.62-1.67-5.82-3.79-.3-.52-.52-1.1-.76-1.68,.15,1.27,.51,2.53,1.35,3.53,1.65,1.98,4.23,2.97,6.64,3.69,2.5,.7,5.26,1.52,7.17,3.35,.6,.58,1.08,1.29,1.35,2.09,.27,.79,.39,1.69,.32,2.54-.15,1.48-1.09,2.8-2.26,3.7Z"/><path class="cls-2" d="M219.31,36.32c.04,2,.01,4.03-.38,5.99-.35,1.52-1.04,2.93-1.93,4.2,1.04-.9,1.81-2.11,2.26-3.41,.45-1.31,.52-2.72,.47-4.09-.05-.91-.17-1.82-.41-2.69Z"/></g></svg>