<?xml version="1.0" encoding="UTF-8"?><svg id="Capa_1" xmlns="http://www.w3.org/2000/svg" xmlns:xlink="http://www.w3.org/1999/xlink" viewBox="0 0 32.52 32.52"><defs><style>.cls-1{fill:url(#Degradado_sin_nombre_17);}</style><linearGradient id="Degradado_sin_nombre_17" x1="25.85" y1="2.75" x2=".04" y2="39.11" gradientUnits="userSpaceOnUse"><stop offset="0" stop-color="#f6f6f7"/><stop offset="1" stop-color="#fff"/></linearGradient></defs><path class="cls-1" d="M16.26,0C7.28,0,0,7.28,0,16.26s7.28,16.26,16.26,16.26c.05,0,.09,0,.14,0v-11.34h-3.91v-4.53h3.91v-3.34c0-3.88,2.37-5.99,5.83-5.99,1.66,0,3.08,.12,3.5,.18v4.06h-2.4c-1.88,0-2.25,.9-2.25,2.21v2.89h4.49l-.58,4.53h-3.9v10.62c6.63-2.05,11.44-8.23,11.44-15.53C32.52,7.28,25.24,0,16.26,0Z"/></svg>