<?xml version="1.0" encoding="UTF-8"?><svg xmlns="http://www.w3.org/2000/svg" xmlns:xlink="http://www.w3.org/1999/xlink" viewBox="0 0 478 636.47"><defs><style>.cls-1{fill:url(#Degradado_sin_nombre_74-22);}.cls-2{fill:url(#Degradado_sin_nombre_74-23);}.cls-3{fill:url(#Degradado_sin_nombre_74-16);}.cls-4{fill:url(#Degradado_sin_nombre_74-11);}.cls-5{isolation:isolate;}.cls-6{fill:url(#Degradado_sin_nombre_74-13);}.cls-7{clip-path:url(#clippath-1);}.cls-8{fill:url(#Degradado_sin_nombre_74-9);}.cls-9{fill:url(#Degradado_sin_nombre_74-3);}.cls-10{fill:url(#Degradado_sin_nombre_74-20);}.cls-11{fill:url(#Degradado_sin_nombre_74-12);}.cls-12{filter:url(#drop-shadow-20);}.cls-13{fill:url(#Degradado_sin_nombre_74-10);}.cls-14{fill:#88c23f;mix-blend-mode:soft-light;opacity:.3;}.cls-15{fill:url(#Degradado_sin_nombre_74);}.cls-16{clip-path:url(#clippath);}.cls-17{fill:url(#Degradado_sin_nombre_74-19);}.cls-18{fill:url(#Degradado_sin_nombre_74-7);}.cls-19{fill:url(#Degradado_sin_nombre_74-5);}.cls-20{fill:none;}.cls-21{fill:url(#Degradado_sin_nombre_74-14);}.cls-22{fill:url(#Degradado_sin_nombre_74-24);}.cls-23{fill:url(#Degradado_sin_nombre_74-8);}.cls-24{fill:url(#Degradado_sin_nombre_74-21);}.cls-25{fill:url(#Degradado_sin_nombre_74-18);}.cls-26{fill:url(#Degradado_sin_nombre_74-15);}.cls-27{fill:url(#Degradado_sin_nombre_74-4);}.cls-28{fill:url(#Degradado_sin_nombre_74-2);}.cls-29{fill:url(#Degradado_sin_nombre_74-17);}.cls-30{fill:url(#Degradado_sin_nombre_74-6);}</style><clipPath id="clippath"><rect class="cls-20" width="478" height="636.47"/></clipPath><filter id="drop-shadow-20" filterUnits="userSpaceOnUse"><feOffset dx="1.64" dy="2.81"/><feGaussianBlur result="blur" stdDeviation="2.81"/><feFlood flood-color="#000" flood-opacity=".4"/><feComposite in2="blur" operator="in"/><feComposite in="SourceGraphic"/></filter><linearGradient id="Degradado_sin_nombre_74" x1="461.1" y1="33.89" x2="461.1" y2="573.92" gradientUnits="userSpaceOnUse"><stop offset="0" stop-color="#008e45"/><stop offset=".97" stop-color="#006837"/></linearGradient><linearGradient id="Degradado_sin_nombre_74-2" x1="481.86" y1="33.89" x2="481.86" y2="573.92" xlink:href="#Degradado_sin_nombre_74"/><linearGradient id="Degradado_sin_nombre_74-3" x1="412.35" y1="33.89" x2="412.35" y2="573.92" xlink:href="#Degradado_sin_nombre_74"/><linearGradient id="Degradado_sin_nombre_74-4" x1="426.06" y1="33.89" x2="426.06" y2="573.92" xlink:href="#Degradado_sin_nombre_74"/><linearGradient id="Degradado_sin_nombre_74-5" x1="441.47" y1="33.89" x2="441.47" y2="573.92" xlink:href="#Degradado_sin_nombre_74"/><linearGradient id="Degradado_sin_nombre_74-6" x1="360.24" y1="33.89" x2="360.24" y2="573.92" xlink:href="#Degradado_sin_nombre_74"/><linearGradient id="Degradado_sin_nombre_74-7" x1="392.3" y1="33.89" x2="392.3" y2="573.92" xlink:href="#Degradado_sin_nombre_74"/><linearGradient id="Degradado_sin_nombre_74-8" x1="319.57" y1="33.89" x2="319.57" y2="573.92" xlink:href="#Degradado_sin_nombre_74"/><linearGradient id="Degradado_sin_nombre_74-9" x1="352.86" y1="33.89" x2="352.86" y2="573.92" xlink:href="#Degradado_sin_nombre_74"/><linearGradient id="Degradado_sin_nombre_74-10" x1="335.66" y1="33.89" x2="335.66" y2="573.92" xlink:href="#Degradado_sin_nombre_74"/><linearGradient id="Degradado_sin_nombre_74-11" x1="280.62" y1="33.89" x2="280.62" y2="573.92" xlink:href="#Degradado_sin_nombre_74"/><linearGradient id="Degradado_sin_nombre_74-12" x1="300.36" y1="33.89" x2="300.36" y2="573.92" xlink:href="#Degradado_sin_nombre_74"/><linearGradient id="Degradado_sin_nombre_74-13" x1="232.14" y1="33.89" x2="232.14" y2="573.93" xlink:href="#Degradado_sin_nombre_74"/><linearGradient id="Degradado_sin_nombre_74-14" x1="253.04" y1="33.89" x2="253.04" y2="573.92" xlink:href="#Degradado_sin_nombre_74"/><linearGradient id="Degradado_sin_nombre_74-15" x1="185.9" y1="33.89" x2="185.9" y2="573.92" xlink:href="#Degradado_sin_nombre_74"/><linearGradient id="Degradado_sin_nombre_74-16" x1="210.71" y1="33.89" x2="210.71" y2="573.92" xlink:href="#Degradado_sin_nombre_74"/><linearGradient id="Degradado_sin_nombre_74-17" x1="139.31" y1="33.89" x2="139.31" y2="573.92" xlink:href="#Degradado_sin_nombre_74"/><linearGradient id="Degradado_sin_nombre_74-18" x1="159.61" y1="33.89" x2="159.61" y2="573.92" xlink:href="#Degradado_sin_nombre_74"/><linearGradient id="Degradado_sin_nombre_74-19" x1="94.27" y1="33.89" x2="94.27" y2="573.92" xlink:href="#Degradado_sin_nombre_74"/><linearGradient id="Degradado_sin_nombre_74-20" x1="116.85" y1="33.89" x2="116.85" y2="573.92" xlink:href="#Degradado_sin_nombre_74"/><linearGradient id="Degradado_sin_nombre_74-21" x1="42.47" y1="33.89" x2="42.47" y2="573.92" xlink:href="#Degradado_sin_nombre_74"/><linearGradient id="Degradado_sin_nombre_74-22" x1="65.07" y1="33.89" x2="65.07" y2="573.92" xlink:href="#Degradado_sin_nombre_74"/><linearGradient id="Degradado_sin_nombre_74-23" x1="13.97" y1="33.89" x2="13.97" y2="573.92" xlink:href="#Degradado_sin_nombre_74"/><clipPath id="clippath-1"><rect class="cls-20" width="478" height="577.94"/></clipPath><linearGradient id="Degradado_sin_nombre_74-24" x1="239" y1="33.89" x2="239" y2="573.92" xlink:href="#Degradado_sin_nombre_74"/></defs><g class="cls-5"><g id="Capa_1"><g class="cls-16"><g class="cls-12"><g><path class="cls-15" d="M472.97,599.98s-14.68-2.29-23.1-16.45c-4.91-8.26-6.06-23.06-5.21-37.23,0,0,21.04,4.84,29.64,22.65,8.6,17.8-1.33,31.03-1.33,31.03Z"/><path class="cls-28" d="M473.99,599.48s-6.87-9.64-3.48-22.33c1.98-7.4,9.78-16.3,18.33-23.71,0,0,8.95,14.69,3.59,29.51-5.36,14.82-18.44,16.52-18.44,16.52Z"/><path class="cls-9" d="M431.02,597.96s-14.83,.94-26.11-11.07c-6.58-7-10.9-21.21-13.14-35.22,0,0,21.59,.18,33.83,15.7,12.25,15.52,5.41,30.58,5.41,30.58Z"/><path class="cls-27" d="M416.19,602.47s-8.62-12.1-4.37-28.02c2.48-9.29,12.27-20.45,22.99-29.74,0,0,11.23,18.44,4.5,37.03-6.73,18.59-23.13,20.73-23.13,20.73Z"/><path class="cls-19" d="M431.6,611.62s-8.62-12.1-4.37-28.02c2.48-9.29,12.27-20.45,22.99-29.74,0,0,11.23,18.44,4.5,37.03-6.73,18.59-23.13,20.73-23.13,20.73Z"/><path class="cls-30" d="M381.12,605.24s-14.1-.57-26.21-15.11c-7.07-8.48-12.75-24.71-16.42-40.49,0,0,20.7,2.55,34.12,21.1s8.51,34.5,8.51,34.5Z"/><path class="cls-18" d="M382.43,602.47s-8.62-12.1-4.37-28.02c2.48-9.29,12.27-20.45,22.99-29.74,0,0,11.23,18.44,4.5,37.03-6.73,18.59-23.13,20.73-23.13,20.73Z"/><path class="cls-23" d="M338.24,605.88s-14.83,.94-26.11-11.07c-6.58-7-10.9-21.21-13.14-35.22,0,0,21.59,.18,33.83,15.7,12.25,15.52,5.41,30.58,5.41,30.58Z"/><path class="cls-8" d="M349.13,608.12s-11.14-9.83-10.6-26.3c.31-9.61,7.32-22.69,15.66-34.17,0,0,15.11,15.41,12.77,35.05-2.34,19.63-17.83,25.43-17.83,25.43Z"/><path class="cls-13" d="M331.93,624.44s-11.14-9.83-10.6-26.3c.31-9.61,7.32-22.69,15.66-34.17,0,0,15.11,15.41,12.77,35.05-2.34,19.63-17.83,25.43-17.83,25.43Z"/><path class="cls-4" d="M295.25,594.6s-11.62,.74-20.46-8.67c-5.16-5.49-8.54-16.62-10.3-27.61,0,0,16.92,.14,26.52,12.31s4.24,23.97,4.24,23.97Z"/><path class="cls-11" d="M287.78,602.47s-8.03-13.1-2.22-31.66c3.39-10.82,14.61-24.41,26.65-35.94,0,0,10.23,20.13,1.6,41.95-8.63,21.82-26.03,25.65-26.03,25.65Z"/><path class="cls-6" d="M231.26,593.41s-8.9-6.49-9.65-18.69c-.43-7.11,3.84-17.26,9.2-26.32,0,0,12.23,10.34,11.85,24.99s-11.41,20.01-11.41,20.01Z"/><path class="cls-21" d="M252.9,606.77s-12.33-8.29-13.96-24.68c-.95-9.56,4.28-23.46,11.04-35.93,0,0,17.01,13.3,17.26,33.07s-14.34,27.55-14.34,27.55Z"/><path class="cls-26" d="M187.49,606.79s-12.84-7.48-15.52-23.73c-1.56-9.48,2.76-23.68,8.71-36.57,0,0,17.83,12.18,19.35,31.89,1.52,19.71-12.54,28.41-12.54,28.41Z"/><path class="cls-3" d="M196.17,595.09s-3.22-11.3,4.16-22.04c4.31-6.26,14.56-11.99,25.02-16.08,0,0,3.49,16.72-6.45,28.79-9.94,12.08-22.73,9.32-22.73,9.32Z"/><path class="cls-29" d="M157.98,599.94s-14.83,.94-26.11-11.07c-6.58-7-10.9-21.21-13.14-35.22,0,0,21.59,.18,33.83,15.7s5.41,30.58,5.41,30.58Z"/><path class="cls-25" d="M149.75,611.62s-8.62-12.1-4.37-28.02c2.48-9.29,12.27-20.45,22.99-29.74,0,0,11.23,18.44,4.5,37.03-6.73,18.59-23.13,20.73-23.13,20.73Z"/><path class="cls-17" d="M100.06,605.49s-13.85-5.37-19.05-21c-3.03-9.12-1-23.82,2.85-37.48,0,0,19.52,9.22,24.12,28.45s-7.92,30.03-7.92,30.03Z"/><path class="cls-10" d="M123.12,591.89s-9.34-2.16-14.09-11.66c-2.77-5.54-2.82-15.12-1.62-24.2,0,0,13.31,4.1,18.01,15.95,4.7,11.86-2.3,19.9-2.3,19.9Z"/><path class="cls-24" d="M61.14,601.02s-14.83,.94-26.11-11.07c-6.58-7-10.9-21.21-13.14-35.22,0,0,21.59,.18,33.83,15.7,12.25,15.52,5.41,30.58,5.41,30.58Z"/><path class="cls-1" d="M55.21,611.62s-8.62-12.1-4.37-28.02c2.48-9.29,12.27-20.45,22.99-29.74,0,0,11.23,18.44,4.5,37.03-6.73,18.59-23.13,20.73-23.13,20.73Z"/><path class="cls-2" d="M.47,606.36s-7.83-13.44-1.5-32.88c3.69-11.34,15.39-25.74,27.88-38.03,0,0,9.9,20.7,.62,43.6-9.27,22.91-27.01,27.3-27.01,27.3Z"/></g><g class="cls-7"><rect class="cls-22" width="478" height="577.94"/><path class="cls-14" d="M243.89,233.69s-15.91-22.32-8.06-51.69c4.58-17.13,22.64-37.73,42.43-54.87,0,0,20.72,34.02,8.31,68.32-12.41,34.3-42.68,38.24-42.68,38.24Z"/><path class="cls-14" d="M351.57,533.1s-14.1-.57-26.21-15.11c-7.07-8.48-12.75-24.71-16.42-40.49,0,0,20.7,2.55,34.12,21.1s8.51,34.5,8.51,34.5Z"/><path class="cls-14" d="M475.55,208.39s-14.83,.94-26.11-11.07c-6.58-7-10.9-21.21-13.14-35.22,0,0,21.59,.18,33.83,15.7,12.25,15.52,5.41,30.58,5.41,30.58Z"/><path class="cls-14" d="M210.1,503.88s-11.14-9.83-10.6-26.3c.31-9.61,7.32-22.69,15.66-34.17,0,0,15.11,15.41,12.77,35.05-2.34,19.63-17.83,25.43-17.83,25.43Z"/><path class="cls-14" d="M232.82,417.97s-.23-21.18,17.71-36.34c10.47-8.84,31.02-13.93,51.14-16.06,0,0-1.88,30.72-24.9,47-23.02,16.27-43.95,5.41-43.95,5.41Z"/><path class="cls-14" d="M202.95,238.24s-13.33-6.55-17.15-22.58c-2.23-9.35,1.08-23.82,6.11-37.09,0,0,18.64,10.89,21.55,30.45,2.91,19.56-10.51,29.23-10.51,29.23Z"/><path class="cls-14" d="M222.52,366.95s-14.59,2.79-27.29-7.71c-7.41-6.12-13.47-19.68-17.45-33.3,0,0,21.44-2.52,35.54,11.34,14.1,13.87,9.2,29.66,9.2,29.66Z"/><path class="cls-14" d="M283.59,294.07s-11.62,.74-20.46-8.67c-5.16-5.49-8.54-16.62-10.3-27.61,0,0,16.92,.14,26.52,12.31,9.6,12.17,4.24,23.97,4.24,23.97Z"/><path class="cls-14" d="M116.16,289.23s-8.03-13.1-2.22-31.66c3.39-10.82,14.61-24.41,26.65-35.94,0,0,10.23,20.13,1.6,41.95s-26.03,25.65-26.03,25.65Z"/><path class="cls-14" d="M136.7,439.56s-8.9-6.49-9.65-18.69c-.43-7.11,3.84-17.26,9.2-26.32,0,0,12.23,10.34,11.85,24.99-.37,14.66-11.41,20.01-11.41,20.01Z"/><path class="cls-14" d="M204.01,549.48s13.54-16.07,36.85-15.85c13.59,.13,32.33,9.61,48.84,21.04,0,0-21.31,21.88-49.15,19.2s-36.54-24.4-36.54-24.4Z"/><path class="cls-14" d="M391.15,510.74s23.82-12.01,50.91-.14c15.81,6.92,32.96,27.33,46.54,48.89,0,0-35.77,14.93-66.94-2.07-31.17-16.99-30.51-46.68-30.51-46.68Z"/><path class="cls-14" d="M34.86,559.59s-16.29-27.93-3.93-61.59c7.21-19.64,30.64-41.9,55.73-59.92,0,0,20.7,42.19,2.44,81.16-18.26,38.97-54.24,40.36-54.24,40.36Z"/><path class="cls-14" d="M161.56,368.58s-13.71-23.5-3.31-51.81c6.07-16.52,25.77-35.24,46.88-50.4,0,0,17.41,35.48,2.05,68.27-15.36,32.78-45.62,33.95-45.62,33.95Z"/><path class="cls-14" d="M7.68,297.99s-13.71-23.5-3.31-51.81c6.07-16.52,25.77-35.24,46.88-50.4,0,0,17.41,35.48,2.05,68.27-15.36,32.78-45.62,33.95-45.62,33.95Z"/><path class="cls-14" d="M328.09,443.41s-30.74-10.05-43.87-43.42c-7.66-19.47-4.95-51.67,1.82-81.81,0,0,43.5,17.77,55.76,59.03,12.25,41.26-13.71,66.2-13.71,66.2Z"/><path class="cls-14" d="M384.36,533.99s-17.5-61.42,22.63-119.78c23.41-34.04,79.13-65.17,135.96-87.37,0,0,18.96,90.85-35.06,156.48-54.02,65.63-123.53,50.67-123.53,50.67Z"/><path class="cls-14" d="M177.64,540.14s-22.33,1.42-39.32-16.67c-9.91-10.55-16.42-31.94-19.79-53.05,0,0,32.51,.27,50.96,23.65,18.45,23.38,8.15,46.06,8.15,46.06Z"/><path class="cls-14" d="M403.21,136.84s-21.85-30.67-11.07-71.01c6.29-23.53,31.1-51.83,58.28-75.38,0,0,28.47,46.73,11.41,93.85-17.05,47.13-58.63,52.54-58.63,52.54Z"/><path class="cls-14" d="M81.12,200.89s-38.4-14.88-52.82-58.21c-8.41-25.28-2.76-66.04,7.91-103.91,0,0,54.11,25.57,66.87,78.87,12.76,53.3-21.96,83.25-21.96,83.25Z"/><path class="cls-14" d="M386.57,230.23s-14.43-3.33-21.77-18.01c-4.29-8.57-4.36-23.36-2.5-37.38,0,0,20.56,6.33,27.83,24.65,7.27,18.32-3.56,30.75-3.56,30.75Z"/><path class="cls-14" d="M391.16,345.12s-23.71-5.47-35.78-29.6c-7.04-14.07-7.16-38.39-4.11-61.43,0,0,33.79,10.4,45.73,40.5,11.94,30.1-5.84,50.52-5.84,50.52Z"/><path class="cls-14" d="M108.04,416.99s-54.51,3.46-95.97-40.68c-24.19-25.75-40.07-77.97-48.3-129.49,0,0,79.36,.67,124.38,57.73,45.02,57.06,19.89,112.43,19.89,112.43Z"/><path class="cls-14" d="M384.14,393.54s-23.16-32.51-11.74-75.28c6.66-24.95,32.97-54.94,61.79-79.91,0,0,30.18,49.54,12.1,99.49-18.08,49.96-62.15,55.69-62.15,55.69Z"/><path class="cls-14" d="M419.99,155.6s-41.59,18.29-95.92-6.49c-31.7-14.46-69.64-53.16-101.17-93.45,0,0,63.32-21.91,126.75,12.56,63.43,34.46,70.34,87.38,70.34,87.38Z"/><path class="cls-14" d="M230.01,144.74s-28.25,26-78.47,21.04c-29.3-2.89-70.21-23.46-106.44-47.05,0,0,44.64-34.83,104.77-24.62,60.14,10.21,80.13,50.63,80.13,50.63Z"/></g></g></g></g></g></svg>