<?xml version="1.0" encoding="UTF-8"?><svg id="Capa_1" xmlns="http://www.w3.org/2000/svg" xmlns:xlink="http://www.w3.org/1999/xlink" viewBox="0 0 500.65 190.37"><defs><style>.cls-1{fill:url(#Degradado_sin_nombre_197-10);}.cls-2{fill:url(#Degradado_sin_nombre_197-7);}.cls-3{fill:url(#Degradado_sin_nombre_197-3);}.cls-4{fill:url(#Degradado_sin_nombre_197-9);}.cls-5{fill:url(#Degradado_sin_nombre_197-14);}.cls-6{fill:url(#Degradado_sin_nombre_197-13);}.cls-7{fill:url(#Degradado_sin_nombre_197-4);}.cls-8{fill:url(#Degradado_sin_nombre_197-20);}.cls-9{fill:url(#Degradado_sin_nombre_197-12);}.cls-10{fill:url(#Degradado_sin_nombre_197-8);}.cls-11{fill:url(#Degradado_sin_nombre_197-25);}.cls-12{fill:url(#Degradado_sin_nombre_197-15);}.cls-13{fill:url(#Degradado_sin_nombre_197-11);}.cls-14{filter:url(#drop-shadow-20);}.cls-15{fill:url(#Degradado_sin_nombre_197-22);}.cls-16{fill:url(#Degradado_sin_nombre_197-19);}.cls-17{fill:url(#Degradado_sin_nombre_197-18);}.cls-18{fill:url(#Degradado_sin_nombre_197-6);}.cls-19{fill:url(#Degradado_sin_nombre_197-21);}.cls-20{clip-path:url(#clippath);}.cls-21{fill:none;}.cls-22{fill:url(#Degradado_sin_nombre_197-24);}.cls-23{fill:url(#Degradado_sin_nombre_197-5);}.cls-24{fill:url(#Degradado_sin_nombre_197-17);}.cls-25{fill:url(#Degradado_sin_nombre_197-2);}.cls-26{fill:url(#Degradado_sin_nombre_197);}.cls-27{fill:url(#Degradado_sin_nombre_197-23);}.cls-28{fill:url(#Degradado_sin_nombre_197-16);}</style><clipPath id="clippath"><rect class="cls-21" width="500.65" height="190.37"/></clipPath><filter id="drop-shadow-20" filterUnits="userSpaceOnUse"><feOffset dx="1.64" dy="-2.81"/><feGaussianBlur result="blur" stdDeviation="2.81"/><feFlood flood-color="#000" flood-opacity=".4"/><feComposite in2="blur" operator="in"/><feComposite in="SourceGraphic"/></filter><linearGradient id="Degradado_sin_nombre_197" x1="250.33" y1="194.88" x2="250.33" y2="30.23" gradientUnits="userSpaceOnUse"><stop offset="0" stop-color="#0c2a03"/><stop offset="1" stop-color="#005008"/></linearGradient><linearGradient id="Degradado_sin_nombre_197-2" x1="500.71" y1="194.88" x2="500.71" y2="30.23" xlink:href="#Degradado_sin_nombre_197"/><linearGradient id="Degradado_sin_nombre_197-3" x1="453.65" y1="194.88" x2="453.65" y2="30.23" xlink:href="#Degradado_sin_nombre_197"/><linearGradient id="Degradado_sin_nombre_197-4" x1="474.4" y1="194.88" x2="474.4" y2="30.23" xlink:href="#Degradado_sin_nombre_197"/><linearGradient id="Degradado_sin_nombre_197-5" x1="404.89" y1="194.88" x2="404.89" y2="30.23" xlink:href="#Degradado_sin_nombre_197"/><linearGradient id="Degradado_sin_nombre_197-6" x1="418.6" y1="194.88" x2="418.6" y2="30.23" xlink:href="#Degradado_sin_nombre_197"/><linearGradient id="Degradado_sin_nombre_197-7" x1="434.01" y1="194.88" x2="434.01" y2="30.23" xlink:href="#Degradado_sin_nombre_197"/><linearGradient id="Degradado_sin_nombre_197-8" x1="352.78" y1="194.88" x2="352.78" y2="30.23" xlink:href="#Degradado_sin_nombre_197"/><linearGradient id="Degradado_sin_nombre_197-9" x1="384.84" y1="194.88" x2="384.84" y2="30.23" xlink:href="#Degradado_sin_nombre_197"/><linearGradient id="Degradado_sin_nombre_197-10" x1="312.11" y1="194.88" x2="312.11" y2="30.23" xlink:href="#Degradado_sin_nombre_197"/><linearGradient id="Degradado_sin_nombre_197-11" x1="345.4" y1="194.88" x2="345.4" y2="30.23" xlink:href="#Degradado_sin_nombre_197"/><linearGradient id="Degradado_sin_nombre_197-12" x1="328.2" y1="194.88" x2="328.2" y2="30.23" xlink:href="#Degradado_sin_nombre_197"/><linearGradient id="Degradado_sin_nombre_197-13" x1="273.16" y1="194.88" x2="273.16" y2="30.23" xlink:href="#Degradado_sin_nombre_197"/><linearGradient id="Degradado_sin_nombre_197-14" x1="292.9" y1="194.88" x2="292.9" y2="30.23" xlink:href="#Degradado_sin_nombre_197"/><linearGradient id="Degradado_sin_nombre_197-15" x1="224.68" y1="194.88" x2="224.68" y2="30.23" xlink:href="#Degradado_sin_nombre_197"/><linearGradient id="Degradado_sin_nombre_197-16" x1="245.58" y1="194.88" x2="245.58" y2="30.23" xlink:href="#Degradado_sin_nombre_197"/><linearGradient id="Degradado_sin_nombre_197-17" x1="178.44" y1="194.88" x2="178.44" y2="30.23" xlink:href="#Degradado_sin_nombre_197"/><linearGradient id="Degradado_sin_nombre_197-18" x1="203.25" y1="194.88" x2="203.25" y2="30.23" xlink:href="#Degradado_sin_nombre_197"/><linearGradient id="Degradado_sin_nombre_197-19" x1="131.85" y1="194.88" x2="131.85" y2="30.23" xlink:href="#Degradado_sin_nombre_197"/><linearGradient id="Degradado_sin_nombre_197-20" x1="152.15" y1="194.88" x2="152.15" y2="30.23" xlink:href="#Degradado_sin_nombre_197"/><linearGradient id="Degradado_sin_nombre_197-21" x1="86.81" y1="194.88" x2="86.81" y2="30.23" xlink:href="#Degradado_sin_nombre_197"/><linearGradient id="Degradado_sin_nombre_197-22" x1="109.39" y1="194.88" x2="109.39" y2="30.23" xlink:href="#Degradado_sin_nombre_197"/><linearGradient id="Degradado_sin_nombre_197-23" x1="35.01" y1="194.88" x2="35.01" y2="30.23" xlink:href="#Degradado_sin_nombre_197"/><linearGradient id="Degradado_sin_nombre_197-24" x1="57.61" y1="194.88" x2="57.61" y2="30.23" xlink:href="#Degradado_sin_nombre_197"/><linearGradient id="Degradado_sin_nombre_197-25" x1="6.51" y1="194.88" x2="6.51" y2="30.23" xlink:href="#Degradado_sin_nombre_197"/></defs><g class="cls-20"><g class="cls-14"><rect class="cls-26" y="54.71" width="500.65" height="135.65"/><g><path class="cls-25" d="M507.1,80.61s-13.97-5.06-19.52-20.57c-3.24-9.05-1.53-23.8,2.02-37.54,0,0,19.72,8.79,24.75,27.91,5.03,19.12-7.25,30.2-7.25,30.2Z"/><path class="cls-3" d="M465.51,77.57s-14.68-2.29-23.1-16.45c-4.91-8.26-6.06-23.06-5.21-37.23,0,0,21.04,4.84,29.64,22.65,8.6,17.8-1.33,31.03-1.33,31.03Z"/><path class="cls-7" d="M466.53,77.07s-6.87-9.64-3.48-22.33c1.98-7.4,9.78-16.3,18.33-23.71,0,0,8.95,14.69,3.59,29.51-5.36,14.82-18.44,16.52-18.44,16.52Z"/><path class="cls-23" d="M423.56,75.55s-14.83,.94-26.11-11.07c-6.58-7-10.9-21.21-13.14-35.22,0,0,21.59,.18,33.83,15.7,12.25,15.52,5.41,30.58,5.41,30.58Z"/><path class="cls-18" d="M408.73,80.06s-8.62-12.1-4.37-28.02c2.48-9.29,12.27-20.45,22.99-29.74,0,0,11.23,18.44,4.5,37.03-6.73,18.59-23.13,20.73-23.13,20.73Z"/><path class="cls-2" d="M424.15,89.22s-8.62-12.1-4.37-28.02c2.48-9.29,12.27-20.45,22.99-29.74,0,0,11.23,18.44,4.5,37.03-6.73,18.59-23.13,20.73-23.13,20.73Z"/><path class="cls-10" d="M373.66,82.83s-14.1-.57-26.21-15.11c-7.07-8.48-12.75-24.71-16.42-40.49,0,0,20.7,2.55,34.12,21.1,13.42,18.55,8.51,34.5,8.51,34.5Z"/><path class="cls-4" d="M374.97,80.06s-8.62-12.1-4.37-28.02c2.48-9.29,12.27-20.45,22.99-29.74,0,0,11.23,18.44,4.5,37.03-6.73,18.59-23.13,20.73-23.13,20.73Z"/><path class="cls-1" d="M330.78,83.47s-14.83,.94-26.11-11.07c-6.58-7-10.9-21.21-13.14-35.22,0,0,21.59,.18,33.83,15.7,12.25,15.52,5.41,30.58,5.41,30.58Z"/><path class="cls-13" d="M341.67,85.71s-11.14-9.83-10.6-26.3c.31-9.61,7.32-22.69,15.66-34.17,0,0,15.11,15.41,12.77,35.05-2.34,19.63-17.83,25.43-17.83,25.43Z"/><path class="cls-9" d="M324.47,102.03s-11.14-9.83-10.6-26.3c.31-9.61,7.32-22.69,15.66-34.17,0,0,15.11,15.41,12.77,35.05-2.34,19.63-17.83,25.43-17.83,25.43Z"/><path class="cls-6" d="M287.79,72.19s-11.62,.74-20.46-8.67c-5.16-5.49-8.54-16.62-10.3-27.61,0,0,16.92,.14,26.52,12.31,9.6,12.17,4.24,23.97,4.24,23.97Z"/><path class="cls-5" d="M280.32,80.06s-8.03-13.1-2.22-31.66c3.39-10.82,14.61-24.41,26.65-35.94,0,0,10.23,20.13,1.6,41.95-8.63,21.82-26.03,25.65-26.03,25.65Z"/><path class="cls-12" d="M223.8,71s-8.9-6.49-9.65-18.69c-.43-7.11,3.84-17.26,9.2-26.32,0,0,12.23,10.34,11.85,24.99-.37,14.66-11.41,20.01-11.41,20.01Z"/><path class="cls-28" d="M245.44,84.36s-12.33-8.29-13.96-24.68c-.95-9.56,4.28-23.46,11.04-35.93,0,0,17.01,13.3,17.26,33.07s-14.34,27.55-14.34,27.55Z"/><path class="cls-24" d="M180.03,84.38s-12.84-7.48-15.52-23.73c-1.56-9.48,2.76-23.68,8.71-36.57,0,0,17.83,12.18,19.35,31.89,1.52,19.71-12.54,28.41-12.54,28.41Z"/><path class="cls-17" d="M188.71,72.68s-3.22-11.3,4.16-22.04c4.31-6.26,14.56-11.99,25.02-16.08,0,0,3.49,16.72-6.45,28.79-9.94,12.08-22.73,9.32-22.73,9.32Z"/><path class="cls-16" d="M150.52,77.53s-14.83,.94-26.11-11.07c-6.58-7-10.9-21.21-13.14-35.22,0,0,21.59,.18,33.83,15.7s5.41,30.58,5.41,30.58Z"/><path class="cls-8" d="M142.29,89.22s-8.62-12.1-4.37-28.02c2.48-9.29,12.27-20.45,22.99-29.74,0,0,11.23,18.44,4.5,37.03-6.73,18.59-23.13,20.73-23.13,20.73Z"/><path class="cls-19" d="M92.6,83.08s-13.85-5.37-19.05-21c-3.03-9.12-1-23.82,2.85-37.48,0,0,19.52,9.22,24.12,28.45s-7.92,30.03-7.92,30.03Z"/><path class="cls-15" d="M115.66,69.48s-9.34-2.16-14.09-11.66c-2.77-5.54-2.82-15.12-1.62-24.2,0,0,13.31,4.1,18.01,15.95s-2.3,19.9-2.3,19.9Z"/><path class="cls-27" d="M53.68,78.61s-14.83,.94-26.11-11.07c-6.58-7-10.9-21.21-13.14-35.22,0,0,21.59,.18,33.83,15.7s5.41,30.58,5.41,30.58Z"/><path class="cls-22" d="M47.75,89.22s-8.62-12.1-4.37-28.02c2.48-9.29,12.27-20.45,22.99-29.74,0,0,11.23,18.44,4.5,37.03-6.73,18.59-23.13,20.73-23.13,20.73Z"/><path class="cls-11" d="M-6.99,83.95s-7.83-13.44-1.5-32.88C-4.79,39.73,6.91,25.33,19.4,13.04c0,0,9.9,20.7,.62,43.6-9.27,22.91-27.01,27.3-27.01,27.3Z"/></g></g></g></svg>