<?xml version="1.0" encoding="UTF-8"?><svg id="Capa_1" xmlns="http://www.w3.org/2000/svg" xmlns:xlink="http://www.w3.org/1999/xlink" viewBox="0 0 1801.41 483.2"><defs><style>.cls-1{fill:url(#Degradado_sin_nombre_197);}</style><linearGradient id="Degradado_sin_nombre_197" x1="900.7" y1="684.23" x2="900.7" y2="119.63" gradientUnits="userSpaceOnUse"><stop offset="0" stop-color="#0c2a03"/><stop offset="1" stop-color="#005008"/></linearGradient></defs><path class="cls-1" d="M1801.41,484.2c-23.65-6.66-49.3-10.72-65.58-6.92,.9-1.61,1.73-3.37,2.47-5.28,6.66-17.12-.09-34.43-2.99-40.56,4.21-9.84,5.27-17.8,5.27-17.8-10.44,.36-21.03,1.48-30.46,3.54,10.71-11.32,13.28-26.21,13.28-26.21-10.09-.03-20.42,.88-28.81,3.13-9.95-3.26-19.52-4.99-26.73-3.79-.78,.13-1.53,.29-2.28,.45,14.95-21.33,10.36-48.49,10.36-48.49-10.08,3.51-20.08,7.81-28.59,12.69,5.93-9.75,8.15-18.2,8.15-18.2-11.16-1-22.61-1.16-32.74-.04,.04-.29,.1-.58,.14-.87,3.94-28.88-17.96-51.97-17.96-51.97-3.41,4.53-6.67,9.25-9.64,13.99,.98-12.77-4.48-23.58-4.48-23.58-3.01,2.22-5.95,4.58-8.71,7.02-.87-12.39-4.53-21.43-4.53-21.43-10.02,6.17-19.75,13.28-27.37,20.62,7.4-11.91,9.65-23.18,9.65-23.18-12.63-.38-25.55,.34-36.45,2.63,.11-.89,.2-1.79,.27-2.72,1.26-16.59-5.77-30.78-12.03-39.91,11.55-13.62,15.62-26.85,15.62-26.85-20.2,.67-41.16,3.23-56.67,8.45,5.4-22.32-4.1-43.41-4.1-43.41-17.38,11.64-33.73,26.19-39.05,39.32-.11,.27-.21,.55-.31,.82-.66-7.86-3.03-14.98-6.02-21.09,4.26-9.47,5.48-17.1,5.48-17.1-5.43,.05-10.91,.31-16.26,.79-3.43-4.03-6.02-6.27-6.02-6.27-1.51,2.48-2.97,5.01-4.38,7.56-3.74,.6-7.35,1.34-10.73,2.23,2.83-25.82-14.13-47.38-14.13-47.38-4.79,5.28-9.37,10.86-13.42,16.47-.35-6.88-1.44-11.42-1.44-11.42-11.55,4.93-22.92,10.95-31.83,17.55-3.96-14.45-13.55-25.07-21.28-31.64,1.57-6.53,1.81-10.77,1.81-10.77-3.8,1.18-7.62,2.44-11.4,3.76-.93-.57-1.47-.86-1.47-.86-.18,.52-.34,1.04-.52,1.57-12.63,4.52-24.8,9.78-34.85,15.53-2.55-3.52-5.32-6.6-8.02-9.25,.51-5.44,.29-8.99,.29-8.99-2.77,.65-5.54,1.35-8.29,2.11-4.25-3.2-7.29-4.84-7.29-4.84-.88,2.59-1.71,5.2-2.48,7.83-4.66,1.57-9.14,3.31-13.28,5.21,.39-5.07,.18-10.64-.95-16.72-6.56-35.42-41.19-54.04-41.19-54.04-5.66,16.71-9.83,34.39-10.43,49.29-1.07,.18-2.12,.37-3.15,.58-1.63-15.69-11.44-27.48-11.44-27.48-5.27,6.14-10.17,12.78-13.86,19.22-13.66-22.36-40.65-28.89-40.65-28.89-.74,10.45-.74,21.15,.34,30.76-1.4-.26-2.81-.5-4.21-.75,6.99-21.21,.04-42.34,.04-42.34-10.64,5.61-21.04,12.22-29.23,19.19-7.29-18.58-22.36-30-22.36-30-5.01,9.6-9.39,19.74-12.24,29.25,.43-11.11-2.41-19.74-2.41-19.74-9.71,5.12-19.15,11.27-25.99,17.72-.02-.11-.04-.22-.07-.33-6.4-28.43-34.99-42.42-34.99-42.42-1.8,6.06-3.35,12.27-4.52,18.35-2.12,1.27-4.2,2.58-6.23,3.92,1.26-15.38-2.84-27.84-2.84-27.84-10.12,5.34-20.02,11.57-28,18.17-14.33-17.28-36.11-22.55-36.11-22.55-.67,9.54-.72,19.27,.09,28.2-3.65,1.51-7.11,3.13-10.27,4.86-6.22-14.49-19.07-22.83-19.07-22.83-3.21,7.43-5.92,15.22-7.53,22.46-19.68-17.3-47.39-15.53-47.39-15.53,.82,3.51,1.74,7.01,2.75,10.46-3,3.33-5.88,6.76-8.56,10.21-10.75-2.08-19-1.37-19-1.37,.92,3.52,1.93,7.05,3.03,10.51-16.44-14.62-38.08-16.87-38.08-16.87,.63,9.89,1.96,19.88,4.09,28.87-6.06-11.42-13.57-18.47-13.57-18.47-6.91,10.39-13.06,21.58-16.89,31.94-1.07-1.35-2.24-2.71-3.53-4.05-8.77-9.16-19.72-13.8-29.3-16.13-1.2-21.32-9.69-36.02-9.69-36.02-11.46,13.92-22.27,29.24-29.35,43.19-10.41-3.95-20.41-4.77-26.12-4.85-3.44-7.59-6.96-12.29-6.96-12.29-14.43,15.15-27.21,32.91-29.54,46.88-.15,.92-.27,1.83-.37,2.73-10.7-4.99-21.45-4.41-21.45-4.41,1.62,7.18,3.83,14.37,6.59,20.45-.18,.05-.36,.11-.53,.16-16.91-18.75-43.22-21.08-43.22-21.08,.45,5.73,1.14,11.5,2.08,17.08-7.44-14.42-18.46-23.16-18.46-23.16-9.34,16.97-16.74,35.73-16.75,49.62-12.44-5.48-25.41-5.48-34.82-4.28-6.85-16.49-16.78-26.15-16.78-26.15-8.62,18.29-15.88,38.12-18.31,54.3-17.4-14.99-40.52-16.17-40.52-16.17,.92,7.88,2.29,15.81,4.13,23.22-7.33-12.75-16.94-20.37-16.94-20.37-9.27,16.83-16.62,35.43-16.74,49.28-9.94-10.23-22.74-13.86-22.74-13.86-.61,5.59-.94,11.28-.88,16.71-.75-1.21-1.24-1.88-1.24-1.88-11.55,11.85-21.83,25.78-23.8,36.81-.14,.78-.24,1.54-.34,2.3-15.09-21.23-42.22-26-42.22-26-.07,10.67,.64,21.54,2.39,31.2-7.2-8.86-14.42-13.79-14.42-13.79-4.68,10.18-8.66,20.91-11.01,30.84-.26-.14-.51-.29-.78-.42-25.89-13.38-54.98-.49-54.98-.49,6.24,9.44,13.33,18.58,20.6,25.84-5.66-.58-11.03-.49-16.02,.06-12.19-4.38-22.52-4.55-22.52-4.55,.5,3.25,1.07,6.51,1.72,9.74-10.12,3.99-16.12,8.62-16.12,8.62,7.09,4.47,14.49,8.72,21.81,12.45,.66,1.87,1.36,3.68,2.09,5.42-6.31-1.22-10.61-1.29-10.61-1.29,.81,5.33,1.83,10.67,3.06,15.85-9.01-.35-17.31,1.66-24.37,4.5-14.99-18.56-34.82-25.16-34.82-25.16-.59,21.51,1.13,44.02,6.71,59.26-18.67,1.41-32.41,14.78-32.41,14.78,12.72,9.32,27.15,17.2,38.11,18.15-2.49,2.83-4.9,5.61-7.24,8.33-1.74-2.49-3.82-4.98-6.31-7.43-20.76-20.45-52.37-16.76-52.37-16.76,2.16,7.42,4.74,14.82,7.68,21.66-5.59,13.94-9.42,28.12-9.14,39.25C31.37,420.34,0,420.06,0,420.06c4.08,25.53,11.95,51.4,23.93,64.17,20.55,21.87,47.56,20.16,47.56,20.16l1625.81-.57s11.24,12.05,32.89,14.39c50.62,.25,71.23-34,71.23-34ZM631.92,91.36c-1.17,.28-2.33,.56-3.5,.85,.36-2.04,.6-4.07,.73-6.06,.9,1.81,1.82,3.55,2.77,5.21Z"/></svg>