<?xml version="1.0" encoding="UTF-8"?><svg id="Capa_1" xmlns="http://www.w3.org/2000/svg" xmlns:xlink="http://www.w3.org/1999/xlink" viewBox="0 0 478.08 561.81"><defs><style>.cls-1{fill:#eb8022;}.cls-2{filter:url(#drop-shadow-20);}.cls-3{clip-path:url(#clippath);}.cls-4{fill:none;}</style><clipPath id="clippath"><rect class="cls-4" width="478" height="561.81"/></clipPath><filter id="drop-shadow-20" filterUnits="userSpaceOnUse"><feOffset dx="7" dy="7"/><feGaussianBlur result="blur" stdDeviation="5"/><feFlood flood-color="#000" flood-opacity=".4"/><feComposite in2="blur" operator="in"/><feComposite in="SourceGraphic"/></filter></defs><g class="cls-3"><g class="cls-2"><g><path class="cls-1" d="M-9.95,515.97s6.3,.25,11.71,6.75c3.16,3.79,5.69,11.03,7.33,18.08,0,0-9.24-1.14-15.24-9.42-5.99-8.28-3.8-15.41-3.8-15.41Z"/><path class="cls-1" d="M9.21,515.69s6.62-.42,11.66,4.94c2.94,3.13,4.87,9.47,5.87,15.73,0,0-9.64-.08-15.11-7.01-5.47-6.93-2.42-13.66-2.42-13.66Z"/><path class="cls-1" d="M4.34,514.68s4.97,4.39,4.73,11.75c-.14,4.29-3.27,10.14-7,15.26,0,0-6.75-6.88-5.7-15.65s7.97-11.36,7.97-11.36Z"/><path class="cls-1" d="M12.02,507.39s4.97,4.39,4.73,11.75c-.14,4.29-3.27,10.14-7,15.26,0,0-6.75-6.88-5.7-15.65s7.97-11.36,7.97-11.36Z"/><path class="cls-1" d="M28.4,520.72s5.19-.33,9.14,3.87c2.3,2.45,3.82,7.42,4.6,12.33,0,0-7.56-.06-11.84-5.5s-1.89-10.71-1.89-10.71Z"/><path class="cls-1" d="M31.74,517.21s3.59,5.85,.99,14.14c-1.51,4.83-6.52,10.9-11.9,16.05,0,0-4.57-8.99-.72-18.73,3.86-9.75,11.63-11.45,11.63-11.45Z"/><path class="cls-1" d="M56.98,521.26s3.98,2.9,4.31,8.35c.19,3.18-1.71,7.71-4.11,11.75,0,0-5.46-4.62-5.29-11.16s5.1-8.94,5.1-8.94Z"/><path class="cls-1" d="M47.32,515.29s5.51,3.7,6.23,11.02c.42,4.27-1.91,10.48-4.93,16.05,0,0-7.6-5.94-7.71-14.77-.11-8.83,6.41-12.3,6.41-12.3Z"/><path class="cls-1" d="M76.53,515.28s5.73,3.34,6.93,10.6c.7,4.24-1.23,10.58-3.89,16.33,0,0-7.96-5.44-8.64-14.24-.68-8.8,5.6-12.69,5.6-12.69Z"/><path class="cls-1" d="M72.65,520.5s1.44,5.05-1.86,9.84c-1.92,2.8-6.5,5.36-11.17,7.18,0,0-1.56-7.47,2.88-12.86s10.15-4.16,10.15-4.16Z"/><path class="cls-1" d="M89.71,518.34s6.62-.42,11.66,4.94c2.94,3.13,4.87,9.47,5.87,15.73,0,0-9.64-.08-15.11-7.01-5.47-6.93-2.42-13.66-2.42-13.66Z"/><path class="cls-1" d="M93.39,513.12s3.85,5.4,1.95,12.51c-1.11,4.15-5.48,9.13-10.27,13.28,0,0-5.02-8.23-2.01-16.54,3-8.3,10.33-9.26,10.33-9.26Z"/><path class="cls-1" d="M115.58,515.86s6.19,2.4,8.51,9.38c1.36,4.07,.44,10.64-1.27,16.74,0,0-8.72-4.12-10.77-12.71s3.54-13.41,3.54-13.41Z"/><path class="cls-1" d="M105.28,521.93s4.17,.96,6.29,5.21c1.24,2.48,1.26,6.75,.72,10.81,0,0-5.94-1.83-8.05-7.13-2.1-5.3,1.03-8.89,1.03-8.89Z"/><path class="cls-1" d="M132.96,517.86s6.62-.42,11.66,4.94c2.94,3.13,4.87,9.47,5.87,15.73,0,0-9.64-.08-15.11-7.01-5.47-6.93-2.42-13.66-2.42-13.66Z"/><path class="cls-1" d="M135.61,513.12s3.85,5.4,1.95,12.51c-1.11,4.15-5.48,9.13-10.27,13.28,0,0-5.02-8.23-2.01-16.54,3-8.3,10.33-9.26,10.33-9.26Z"/><path class="cls-1" d="M160.78,516.64s6.27,2.16,8.86,9.05c1.51,4.02,.85,10.62-.64,16.78,0,0-8.87-3.79-11.25-12.29-2.38-8.5,3.03-13.54,3.03-13.54Z"/><path class="cls-1" d="M160.06,515.47s3.5,6,.67,14.69c-1.65,5.07-6.87,11.5-12.45,16.98,0,0-4.42-9.24-.28-19.47,4.14-10.23,12.06-12.19,12.06-12.19Z"/><path class="cls-1" d="M179.14,519.22s6.62-.42,11.66,4.94c2.94,3.13,4.87,9.47,5.87,15.73,0,0-9.64-.08-15.11-7.01s-2.42-13.66-2.42-13.66Z"/><path class="cls-1" d="M181.26,517.21s3.85,5.4,1.95,12.51c-1.11,4.15-5.48,9.13-10.27,13.28,0,0-5.02-8.23-2.01-16.54s10.33-9.26,10.33-9.26Z"/><path class="cls-1" d="M197.49,519.22s6.58,.84,10.51,7.06c2.29,3.63,2.99,10.22,2.79,16.56,0,0-9.45-1.9-13.51-9.74-4.06-7.84,.21-13.87,.21-13.87Z"/><path class="cls-1" d="M198.76,517.21s3.85,5.4,1.95,12.51c-1.11,4.15-5.48,9.13-10.27,13.28,0,0-5.02-8.23-2.01-16.54,3-8.3,10.33-9.26,10.33-9.26Z"/><path class="cls-1" d="M218.5,518.49s6.62-.42,11.66,4.94c2.94,3.13,4.87,9.47,5.87,15.73,0,0-9.64-.08-15.11-7.01s-2.42-13.66-2.42-13.66Z"/><path class="cls-1" d="M217.67,513.12s4.73,4.65,4.09,11.98c-.37,4.28-3.81,9.94-7.81,14.86,0,0-6.37-7.24-4.85-15.94,1.52-8.7,8.57-10.91,8.57-10.91Z"/><path class="cls-1" d="M232.96,518.49s6.62-.42,11.66,4.94c2.94,3.13,4.87,9.47,5.87,15.73,0,0-9.64-.08-15.11-7.01s-2.42-13.66-2.42-13.66Z"/><path class="cls-1" d="M243.59,516.25s3.43,6.11,.43,15.09c-1.75,5.24-7.13,11.94-12.86,17.67,0,0-4.31-9.43,.04-20.02,4.35-10.59,12.38-12.74,12.38-12.74Z"/><path class="cls-1" d="M252.5,520.91s8.18-.52,14.41,6.11c3.63,3.87,6.02,11.71,7.25,19.44,0,0-11.92-.1-18.67-8.67-6.76-8.57-2.99-16.88-2.99-16.88Z"/><path class="cls-1" d="M254.24,514.84s3.85,5.4,1.95,12.51c-1.11,4.15-5.48,9.13-10.27,13.28,0,0-5.02-8.23-2.01-16.54,3-8.3,10.33-9.26,10.33-9.26Z"/><path class="cls-1" d="M281.19,519.22s6.62-.42,11.66,4.94c2.94,3.13,4.87,9.47,5.87,15.73,0,0-9.64-.08-15.11-7.01-5.47-6.93-2.42-13.66-2.42-13.66Z"/><path class="cls-1" d="M285.84,519.18s.41,6.62-4.96,11.65c-3.13,2.93-9.48,4.85-15.74,5.84,0,0,.1-9.64,7.04-15.1,6.94-5.46,13.66-2.39,13.66-2.39Z"/><path class="cls-1" d="M280.67,520.57s4.16,2.7,4.79,8.16c.37,3.19-1.3,7.85-3.49,12.06,0,0-5.75-4.35-5.94-10.95-.19-6.6,4.64-9.27,4.64-9.27Z"/><path class="cls-1" d="M308.85,516.96s6.24,2.26,8.72,9.19c1.45,4.04,.68,10.63-.9,16.77,0,0-8.81-3.92-11.05-12.46-2.25-8.54,3.24-13.49,3.24-13.49Z"/><path class="cls-1" d="M307.44,509.1s3.85,5.4,1.95,12.51c-1.11,4.15-5.48,9.13-10.27,13.28,0,0-5.02-8.23-2.01-16.54,3-8.3,10.33-9.26,10.33-9.26Z"/><path class="cls-1" d="M327.43,518.32s6.56,1.02,10.32,7.35c2.19,3.69,2.71,10.3,2.33,16.63,0,0-9.4-2.16-13.24-10.11s.59-13.86,.59-13.86Z"/><path class="cls-1" d="M326.97,518.54s3.07,4.31,1.56,9.97c-.88,3.31-4.37,7.28-8.19,10.59,0,0-4-6.56-1.6-13.18s8.23-7.38,8.23-7.38Z"/><path class="cls-1" d="M346.16,519.22s6.62-.42,11.66,4.94c2.94,3.13,4.87,9.47,5.87,15.73,0,0-9.64-.08-15.11-7.01s-2.42-13.66-2.42-13.66Z"/><path class="cls-1" d="M352.78,517.21s3.85,5.4,1.95,12.51c-1.11,4.15-5.48,9.13-10.27,13.28,0,0-5.02-8.23-2.01-16.54s10.33-9.26,10.33-9.26Z"/><path class="cls-1" d="M345.9,513.12s3.85,5.4,1.95,12.51c-1.11,4.15-5.48,9.13-10.27,13.28,0,0-5.02-8.23-2.01-16.54,3-8.3,10.33-9.26,10.33-9.26Z"/><path class="cls-1" d="M368.45,515.97s6.3,.25,11.71,6.75c3.16,3.79,5.69,11.03,7.33,18.08,0,0-9.24-1.14-15.24-9.42-5.99-8.28-3.8-15.41-3.8-15.41Z"/><path class="cls-1" d="M367.86,517.21s3.85,5.4,1.95,12.51c-1.11,4.15-5.48,9.13-10.27,13.28,0,0-5.02-8.23-2.01-16.54,3-8.3,10.33-9.26,10.33-9.26Z"/><path class="cls-1" d="M387.6,515.69s6.62-.42,11.66,4.94c2.94,3.13,4.87,9.47,5.87,15.73,0,0-9.64-.08-15.11-7.01-5.47-6.93-2.42-13.66-2.42-13.66Z"/><path class="cls-1" d="M382.73,514.68s4.97,4.39,4.73,11.75c-.14,4.29-3.27,10.14-7,15.26,0,0-6.75-6.88-5.7-15.65,1.05-8.77,7.97-11.36,7.97-11.36Z"/><path class="cls-1" d="M390.42,507.39s4.97,4.39,4.73,11.75c-.14,4.29-3.27,10.14-7,15.26,0,0-6.75-6.88-5.7-15.65,1.05-8.77,7.97-11.36,7.97-11.36Z"/><path class="cls-1" d="M406.8,520.72s5.19-.33,9.14,3.87c2.3,2.45,3.82,7.42,4.6,12.33,0,0-7.56-.06-11.84-5.5-4.29-5.43-1.89-10.71-1.89-10.71Z"/><path class="cls-1" d="M410.13,517.21s3.59,5.85,.99,14.14c-1.51,4.83-6.52,10.9-11.9,16.05,0,0-4.57-8.99-.72-18.73,3.86-9.75,11.63-11.45,11.63-11.45Z"/><path class="cls-1" d="M435.38,521.26s3.98,2.9,4.31,8.35c.19,3.18-1.71,7.71-4.11,11.75,0,0-5.46-4.62-5.29-11.16,.17-6.55,5.1-8.94,5.1-8.94Z"/><path class="cls-1" d="M425.71,515.29s5.51,3.7,6.23,11.02c.42,4.27-1.91,10.48-4.93,16.05,0,0-7.6-5.94-7.71-14.77-.11-8.83,6.41-12.3,6.41-12.3Z"/><path class="cls-1" d="M454.93,515.28s5.73,3.34,6.93,10.6c.7,4.24-1.23,10.58-3.89,16.33,0,0-7.96-5.44-8.64-14.24-.68-8.8,5.6-12.69,5.6-12.69Z"/><path class="cls-1" d="M451.05,520.5s1.44,5.05-1.86,9.84c-1.92,2.8-6.5,5.36-11.17,7.18,0,0-1.56-7.47,2.88-12.86s10.15-4.16,10.15-4.16Z"/><path class="cls-1" d="M468.11,518.34s6.62-.42,11.66,4.94c2.94,3.13,4.87,9.47,5.87,15.73,0,0-9.64-.08-15.11-7.01-5.47-6.93-2.42-13.66-2.42-13.66Z"/><path class="cls-1" d="M471.78,513.12s3.85,5.4,1.95,12.51c-1.11,4.15-5.48,9.13-10.27,13.28,0,0-5.02-8.23-2.01-16.54,3-8.3,10.33-9.26,10.33-9.26Z"/></g><rect class="cls-1" x="-91.13" y="0" width="661.59" height="528.2"/></g></g></svg>