<?xml version="1.0" encoding="UTF-8"?><svg id="Capa_1" xmlns="http://www.w3.org/2000/svg" xmlns:xlink="http://www.w3.org/1999/xlink" viewBox="0 0 32.52 32.52"><defs><style>.cls-1{fill:url(#Degradado_sin_nombre_15-2);}.cls-2{fill:url(#Degradado_sin_nombre_15);}.cls-3{fill:url(#Degradado_sin_nombre_15-3);}</style><radialGradient id="Degradado_sin_nombre_15" cx="16.1" cy="17" fx="4.61" fy="17" r="27.38" gradientTransform="translate(-4.87 20.17) rotate(-49.2) scale(1 .81)" gradientUnits="userSpaceOnUse"><stop offset="0" stop-color="#fff"/><stop offset="1" stop-color="#f6f6f7"/></radialGradient><radialGradient id="Degradado_sin_nombre_15-2" cx="16.19" cy="16.63" fx="16.19" fy="16.63" r="13.39" gradientTransform="translate(-4.61 20.06) rotate(-49.2) scale(1 .81)" xlink:href="#Degradado_sin_nombre_15"/><radialGradient id="Degradado_sin_nombre_15-3" cx="16" cy="17.54" fx="-3.29" fy="17.54" r="45.96" gradientTransform="translate(-5.23 20.35) rotate(-49.2) scale(1 .81)" xlink:href="#Degradado_sin_nombre_15"/></defs><path class="cls-2" d="M20.66,6.86H11.85c-3.04,0-5.52,2.47-5.52,5.52v7.76c0,3.04,2.47,5.52,5.52,5.52h8.81c3.04,0,5.52-2.47,5.52-5.52v-7.76c0-3.04-2.47-5.52-5.52-5.52Zm-4.41,15.71c-3.48,0-6.31-2.83-6.31-6.31s2.83-6.31,6.31-6.31,6.31,2.83,6.31,6.31-2.83,6.31-6.31,6.31Zm6.22-11.12c-.72,0-1.31-.59-1.31-1.31s.59-1.31,1.31-1.31,1.31,.59,1.31,1.31-.59,1.31-1.31,1.31Z"/><path class="cls-1" d="M16.26,11.52c-2.61,0-4.74,2.12-4.74,4.74s2.12,4.74,4.74,4.74,4.74-2.12,4.74-4.74-2.12-4.74-4.74-4.74Z"/><path class="cls-3" d="M16.26,0C7.28,0,0,7.28,0,16.26s7.28,16.26,16.26,16.26,16.26-7.28,16.26-16.26S25.24,0,16.26,0Zm11.5,20.14c0,3.91-3.18,7.09-7.09,7.09H11.85c-3.91,0-7.09-3.18-7.09-7.09v-7.76c0-3.91,3.18-7.09,7.09-7.09h8.81c3.91,0,7.09,3.18,7.09,7.09v7.76Z"/></svg>