<?xml version="1.0" encoding="UTF-8"?><svg id="Capa_1" xmlns="http://www.w3.org/2000/svg" viewBox="0 0 608.16 393.27"><path d="M605.06,241.26c-.51,.41-1.07,.82-1.68,1.22-11.22,5.51-20.4,9.69-27.54,12.55-7.14,2.86-13.06,4.28-17.75,4.28-3.88,0-7.14-1.07-9.79-3.21-2.65-2.14-5.05-5.36-7.19-9.64-2.14-4.28-4.39-9.59-6.73-15.91-2.35-6.32-5.36-13.67-9.03-22.03-.41-1.02-.97-2.14-1.68-3.37-.72-1.22-1.58-2.04-2.6-2.45-3.27-1.42-6.63-1.38-10.1,.15-3.47,1.53-6.33,3.42-8.57,5.66-5.71,5.31-10.25,11.22-13.62,17.75-3.37,6.53-6.68,13.26-9.95,20.2-2.25,4.9-3.88,7.34-4.9,7.34s-1.43-2.85-1.22-8.57c.2-3.06,.41-6.17,.61-9.33,.2-3.16,.41-6.37,.61-9.64,.61-3.26,1.32-6.89,2.14-10.86,.81-3.98,1.63-8.42,2.45-13.31,.41-1.84-.05-3.16-1.38-3.98-1.33-.81-3.11-1.22-5.35-1.22-3.06,0-6.23,.72-9.49,2.14-3.27,1.43-4.8,3.27-4.59,5.51,.61,7.76,.61,15.66,0,23.72-.4,5.33-.81,10.58-1.21,15.76-.63,.28-1.28,.58-2,.91-3.98,1.84-8.77,3.98-14.38,6.43-5.61,2.45-11.83,5-18.67,7.65-6.84,2.65-13.67,5.15-20.5,7.5-6.84,2.35-13.42,4.24-19.74,5.66-6.33,1.43-11.83,2.14-16.52,2.14-4.28,0-7.7-.81-10.25-2.45-2.55-1.63-3.83-4.18-3.83-7.65v-.31c0-1.22,.1-2.24,.31-3.06l3.37-.92c2.24-.61,5-1.84,8.26-3.67,3.26-1.84,6.47-3.98,9.64-6.43,3.16-2.45,6.02-5.15,8.57-8.11,2.55-2.95,4.33-5.76,5.35-8.42,1.43-2.04,2.6-4.23,3.52-6.58,.92-2.34,1.58-4.33,1.99-5.97,1.84-5.91,1.94-10.76,.31-14.54-1.64-3.77-4.59-5.66-8.87-5.66-2.86,0-6.23,1.02-10.1,3.06-4.7,2.45-9.54,6.38-14.54,11.78-5,5.41-9.39,11.43-13.16,18.05-2.73,4.79-4.94,9.66-6.65,14.61-1.34,1.14-2.59,2.28-3.75,3.44-2.35,2.35-5.15,4.64-8.42,6.89-5.92,3.88-11.53,5.81-16.83,5.81s-10.51-1.73-14.99-5.2c-4.49-3.47-8.57-7.85-12.24-13.16-3.67-5.3-7.09-11.02-10.25-17.14-3.16-6.12-6.07-11.93-8.72-17.44l-.31-.61c-.61-1.42-1.28-3.21-1.99-5.36-.72-2.14-1.79-3.52-3.21-4.13-3.27-1.42-6.63-1.38-10.1,.15-3.47,1.53-6.33,3.42-8.57,5.66-5.92,5.31-10.51,11.22-13.77,17.75-3.27,6.53-6.53,13.26-9.79,20.2-2.25,4.9-3.93,7.4-5.05,7.5-1.12,.11-1.48-2.8-1.07-8.72,.2-3.26,.41-6.53,.61-9.79,.2-3.26,.41-6.63,.61-10.1,.61-11.83,1.12-21.88,1.53-30.14,.41-8.26,.81-15.61,1.22-22.03,.41-6.43,.92-12.44,1.53-18.05,.61-5.61,1.43-11.63,2.45-18.05,1.02-6.43,2.34-13.72,3.98-21.88,1.63-8.16,3.57-18.05,5.81-29.68,.41-1.63,.71-3.77,.92-6.43,.2-2.65-.1-4.69-.92-6.12-.61-1.02-2.09-1.27-4.44-.77-2.35,.51-3.93,.97-4.74,1.38-4.7,1.84-8.72,4.13-12.09,6.89-3.37,2.75-5.56,6.68-6.58,11.78-.61,2.86-.87,5.87-.76,9.03,.1,3.17,.15,6.27,.15,9.33v29.84c0,8.26-.11,15.71-.31,22.34-.21,6.63-.46,12.8-.76,18.51-.31,5.71-.72,11.89-1.22,18.51-.51,6.63-1.07,14.08-1.68,22.34-.61,8.26-1.33,18.21-2.14,29.84-.41,4.28-.81,8.57-1.22,12.85-.41,4.28-.81,8.57-1.22,12.85-.41,3.47-.05,6.58,1.07,9.33,1.12,2.75,3.83,4.13,8.11,4.13,3.67-.21,6.22-1.53,7.65-3.98,1.43-2.45,2.65-5.1,3.67-7.96,.61-1.63,1.63-4.23,3.06-7.8,1.43-3.57,3.01-7.44,4.74-11.63,1.73-4.18,3.62-8.46,5.66-12.85,2.04-4.38,4.03-8.42,5.97-12.09,1.94-3.67,3.77-6.68,5.51-9.03,1.73-2.34,3.21-3.52,4.44-3.52,.81,0,1.48,.61,1.99,1.84,.51,1.22,.86,2.14,1.07,2.75,1.63,6.12,3.87,12.14,6.73,18.05,2.85,5.92,6.43,11.27,10.71,16.07,4.28,4.8,9.23,8.67,14.84,11.63,5.61,2.96,11.88,4.44,18.82,4.44,7.96,0,16.11-2.09,24.48-6.27,5.87-2.94,11.6-6.76,17.17-11.46-.93,5.32-.74,10.1,.57,14.36,2.04,6.33,5.97,10.51,11.78,12.55,5.81,2.04,11.68,2.75,17.6,2.14,7.34-.61,15.04-2.19,23.1-4.74,8.06-2.55,15.96-5.61,23.72-9.18,7.75-3.57,14.99-7.29,21.73-11.17,6.73-3.87,12.55-7.34,17.44-10.4,1.56-1.08,2.98-2.09,4.26-3.02-.1,1.21-.19,2.43-.29,3.63-.41,4.28-.82,8.57-1.22,12.85-.41,4.28-.72,8.57-.92,12.85-.41,3.47-.05,6.58,1.07,9.33,1.12,2.75,3.72,4.13,7.8,4.13,3.67-.21,6.22-1.53,7.65-3.98,1.42-2.45,2.65-5.1,3.67-7.96,.61-1.63,1.63-4.23,3.06-7.8,1.43-3.57,3.01-7.44,4.74-11.63,1.73-4.18,3.62-8.46,5.66-12.85,2.04-4.38,4.03-8.42,5.97-12.09,1.94-3.67,3.77-6.68,5.51-9.03,1.73-2.34,3.21-3.52,4.44-3.52,.81,0,1.48,.61,1.99,1.84,.51,1.22,.86,2.14,1.07,2.75,1.22,4.9,3.01,10.2,5.35,15.91,2.34,5.71,5.2,11.07,8.57,16.07,3.37,5,7.29,9.29,11.78,12.85,4.48,3.57,9.49,5.66,14.99,6.27,4.49,.41,9.23-.31,14.23-2.14,5-1.84,9.89-4.23,14.69-7.19,4.79-2.95,9.33-6.17,13.62-9.64,4.28-3.47,7.96-6.73,11.02-9.79,.2-.2,.66-.71,1.38-1.53,.71-.81,1.48-1.68,2.29-2.6,.81-.92,1.48-1.78,1.99-2.6,.51-.81,.76-1.42,.76-1.84-.82,0-1.48,.21-1.99,.61Zm-242.36,.92c3.16-3.47,5.97-6.02,8.42-7.65,1.84-1.22,3.11-1.88,3.83-1.99,.71-.1,1.27,.26,1.68,1.07-1.84,4.08-4.85,7.8-9.03,11.17-4.18,3.37-8.52,6.17-13.01,8.42,2.24-3.87,4.94-7.54,8.11-11.02Z"/><path d="M164.03,59.56c-10.87-12.66-4.94-17.17-9.49-29.37-4.55-12.2-15.59-13.42-15.59-13.42,0,0,11.08,3.98,14.5,13.78,3.42,9.8-.63,14.25,6.11,24.7,6.75,10.46,14.66,12.89,16.53,16.33,1.87,3.44-.64,5.84-2.95,4.2-2.31-1.64-4.85-.74-4.85-.74l-7.53-8.37c.06-7.74-2.55-8.72-2.55-8.72l-13.32-10.56-.05-.49s.13-4.36-5.5-7.7c-5.62-3.34-11.35-7.67-16.14-15.03-4.79-7.36-7.13-24.01-9.84-23.56-2.71,.45-.51,13.44,6.74,25.89,0,0-4.61-2.36-5.97-4.22-1.36-1.86-2.98-1.36-3.74-.61-.76,.75-.87,2.1,3.35,4.83,4.22,2.74,11.9,7.36,14.35,9.2,2.27,1.7,4.8,4.65,5.01,7.28-.68,0-1.36,.02-2.03,.06-1.12-1.55-6.66-6.14-13.07-8.58,0,0,.82,1.83,1.45,3.72-4.56-2.42-9.72-5.63-13.66-9.42-9.03-8.67-18.38-25.25-20.23-24.47-1.84,.78-.55,5.08,.78,7.36,1.33,2.29,14.61,18.04,14.61,18.04,0,0-6.79-2.56-8.66-4.36-1.86-1.81-3.84-.76-4.27-.05-.43,.71-.26,2.28,2.39,3.68,1.51,.79,6.65,2.78,10.8,4.34,.5,.48,1.51,1.73,1.3,3.83,0,0-6.64-5.99-19.46-8.39,0,0,3.5,3.18,3.5,6.09,0,0-12.08-5.44-24.9-6.82,0,0,5.92,4,6.11,6.54,0,0-18.37-2.76-34.41,3.42,0,0,8.84,1.45,10.22,3.11,0,0-18.15,3.39-27.19,13.14,0,0,6.27-.02,8.39,1.91,0,0-16.41,9.41-19.73,17.7,0,0,8.21-1.29,8.85,1.29,0,0-6.09,5.86-8.21,12.06,0,0,1.2-1.36,4.33-.62,0,0-3.78,3.32-4.98,16.23l2.1-1.05s.2,7.14,.66,11.1l1.82-2.07c1.17,7.37,4.21,14.43,9.45,20.84,11.28,13.66,27.83,21.36,43.21,28.74,11.22,5.22,21.97,10,31.64,14.94,11.87,6.23,20.52,11.26,27.59,19.6,2.11,2.72,3.82,5.53,4.95,8.75,.96,2.65,1.49,5.36,1.75,8.19,.93,11.35-1.45,23.86-7.16,33.66-7.3,12.8-19.82,22.4-33.56,27.71-14.12,5.24-30.86,6.5-45.66,3.56-1.81-.41-3.42-.83-4.89-1.34,1.59-1.24,3.46-2.45,5.38-3.59,4.77-2.83,10.05-5.4,15.3-7.51,5.31-2.1,10.87-3.63,16.55-4.5,5.76-.92,11.72-1.17,17.76-.9-11.3-4.3-24.05-5.83-36.74-4.04-10.48,1.62-27.7,5.4-34.98,13.52-4.75,5.27-4.59,12.46-.37,17.79,6.2,7.65,16.28,11.26,25.12,13.91,37.77,10.77,80.26-.47,104.78-32.09,15.77-19.92,22.98-49.58,17.12-74.59-6.38-26.8-28.07-43.97-52.53-53.31-21.41-8.65-42.91-11.02-63.24-19.79-5.59-2.66-11-5.66-14.07-10.96-.8-1.39-1.3-2.9-1.6-4.48,3.27,4.91,6.43,9.06,8.08,9.59,3.75,1.21,29.47-12,36.2-15.51,1.05-.55,2.24-.77,3.43-.64l6.3,.71-1.56,3.54c-.35,.79-.07,1.72,.66,2.18l3.24,2.05c.38-1.67-1.92-3.14-1.92-3.14l1.17-2.44,.94-.61,6.05,7.27c.33,.4,.39,.96,.15,1.42-.15,.3-.42,.52-.73,.63l-1.6,.54,1.94,.52c.66,.18,1.35-.13,1.66-.74l.7-1.37c.22-.42,.21-.93-.02-1.35l-2.27-4.16,6.04,3.86c.4,.25,.68,.64,.81,1.09,.15,.51,.08,1.07-.2,1.52l-1.01,1.69,1.33-.35c1.18-.31,2.03-1.33,2.14-2.54l.06-.61c.06-.66-.18-1.32-.65-1.79l-5.9-5.83,4.09-.07c.19,0,.37,.07,.51,.19,.25,.23,.32,.6,.16,.9l-.82,1.56,.7-.19c.92-.25,1.61-1.03,1.73-1.98l.09-.69c.1-.81-.4-1.56-1.18-1.78-2.93-.81-9.57-2.64-9.67-2.65-.11-.01-2.78-1.4-3.46-1.75v-.03s-.07,0-.07,0c-.05-.02-.08-.04-.08-.04l-.02,.03-10.82-1.17c-.74-.08-1.48-.02-2.2,.17-5.12,1.37-26.82,7.25-31.51,9.49-.15-.89-1.37-4.29-2.89-8.3,5.31-1.15,22.34-11.1,27.1-13.93,.82-.49,1.76-.72,2.72-.66l5.82,.33-.73,3.3c-.15,.68,.22,1.36,.86,1.61l2.87,1.11c.04-1.37-2-2.17-2-2.17l.54-2.11,.64-.63,5.9,4.78c.32,.26,.46,.69,.34,1.09-.07,.26-.25,.48-.48,.61l-1.18,.67,1.61,.11c.54,.04,1.04-.31,1.19-.84l.33-1.18c.1-.37,.02-.76-.23-1.05l-2.43-2.92,5.36,2.1c.35,.14,.64,.4,.81,.73,.2,.38,.23,.83,.08,1.23l-.53,1.49,.99-.49c.88-.43,1.39-1.36,1.29-2.33l-.05-.49c-.06-.53-.35-1.01-.79-1.3l-5.56-3.66,3.2-.69c.15-.03,.3,0,.43,.07,.23,.14,.34,.42,.26,.68l-.4,1.35,.52-.26c.69-.34,1.1-1.06,1.05-1.83l-.04-.56c-.05-.65-.56-1.17-1.21-1.21-2.43-.18-7.94-.58-8.02-.57-.1,0-2.66-.74-3.07-.85v-.03s-8.86-.47-8.86-.47c-.6-.03-1.19,.05-1.75,.23-4.04,1.32-21.16,6.98-24.82,8.98-.26-1.15-.7-7.22-1.03-12.2,5.54-7.12,13.18-12.36,23.25-14.7,16.79-3.9,35.62-.72,52.26,5.1,4.65,6.75,11.34,11.94,19.08,14.92,12.5,4.81,19.57,8.14,19.57,8.14-.51,.72-6.1,1.55-6.1,1.55,0,0,2.89,2.97,6.24,2.95,3.34-.02,9.77-3.33,14.06-5.91,4.29-2.58-.4-6.61-.4-6.61,.64,0,1.18-.07,1.66-.18,1.45-.35,2.46-1.68,2.51-3.17,.22-7.35-3.73-2.87-13.88-14.7ZM33.72,278.96s-.04,.02-.07,.02c-.04,.01-.03-.02-.02-.06,0,0,.01-.11,.01-.11,.17-.32,.39-.63,.65-.93-.03,.12-.07,.23-.12,.35-.09,.27-.23,.56-.45,.74ZM155.37,65.45s-3.84,.91-7.15-8.28c0,0,4.87,.16,6.59,2.99,1.72,2.83,.56,5.3,.56,5.3Z"/><path d="M163.64,314.03c-.89,5.09-2.08,10.13-3.63,15.04-5.75,18.04-16.78,35.38-33.5,44.83-20.48,11.63-46.38,11.54-67.82,2.45-12.12-5.3-22.64-14.01-30.39-24.72-10.67-14.43-15.52-32.75-13.78-50.51,24.24,15.24,53.64,21.84,82.18,19.91,13.52-.93,26.98-3.58,39.58-8.69,8.97-3.68,19.76-7.77,25.9-15.8,6.89-9.33,1.76-19.42-7.53-24.25-2.78-1.48-5.61,1.98-3.57,4.41,2.51,3.09,5.91,6.95,4.85,10.95-2.9,7.56-18.5,12.96-26.01,15.89-38.05,13.25-82.13,8.34-116.3-13.08-2.41-1.7-5.99-.18-6.43,2.75-1.88,10.97-1.52,22.25,1.06,33.03,2.56,10.78,7.45,21.01,14.07,29.8,8.65,11.57,20.32,20.95,33.67,26.55,22.1,8.99,48.29,9.23,69.75-1.77,14.79-7.31,26.04-20.6,33.14-35.19,4.74-9.71,7.8-20.18,9.51-30.81,.4-3.16-4.13-3.87-4.74-.79Z"/><path d="M91.11,248.64c9.06-3.98,16.6-12.18,18.81-22.05,1.26-6.06,1.07-12.28-.43-18.39-4.02-16.46-19.73-26.92-34.47-32.71-5.52-2.18-11.11-3.98-16.84-5.43-5.29-1.31-11.23-2.73-16.41-4.34-13.79-4.33-28.57-10.31-35.98-23.45-1.85-3.23-3.22-6.82-4.68-10.39,.95,7.83,3.17,15.65,8.36,21.83,10.19,12.27,26.15,18.39,41.04,22.78,15.43,4.32,32.51,9.41,44.29,20.7,3.71,3.61,6.65,8,8.32,12.91,1.66,4.87,2.41,10.45,1.98,15.69-.9,9.17-6.76,17.33-14,22.86Z"/><path d="M174.96,200.56c.23,12.38,.08,24.9-2.37,37.04-2.14,9.36-6.41,18.11-11.94,25.97,6.45-5.55,11.18-13.05,13.97-21.07,2.77-8.08,3.24-16.83,2.9-25.29-.3-5.63-1.02-11.24-2.56-16.66Z"/></svg>