<?xml version="1.0" encoding="UTF-8"?><svg id="Capa_1" xmlns="http://www.w3.org/2000/svg" xmlns:xlink="http://www.w3.org/1999/xlink" viewBox="0 0 5640.9 256.66"><defs><style>.cls-1{fill:url(#Degradado_sin_nombre_186);}</style><filter id="drop-shadow-5" filterUnits="userSpaceOnUse"><feOffset dx="7" dy="12"/><feGaussianBlur result="blur" stdDeviation="12"/><feFlood flood-color="#000" flood-opacity=".4"/><feComposite in2="blur" operator="in"/><feComposite in="SourceGraphic"/></filter><linearGradient id="Degradado_sin_nombre_186" x1="2730.94" y1="-44.17" x2="2730.94" y2="203.06" gradientUnits="userSpaceOnUse"><stop offset="0" stop-color="#065500"/><stop offset=".97" stop-color="#0d7f00"/></linearGradient></defs><path class="cls-1" d="M5738.64,230.57c-3.06-19.16-8.96-38.58-17.96-48.15-5.18-5.51-10.9-9.02-16.22-11.26V0H-28.24V183.7c-1.46,2.21-2.73,4.46-3.83,6.71-.51-.62-1.03-1.22-1.57-1.79-10.44-11.11-22.67-15.66-31.61-17.5-1.59-11.96-7.16-19.79-7.16-19.79,0,0-17.56,2.3-27.97,20.45-1.26-10.15-4.61-16.13-4.61-16.13,0,0-7.59,2.04-16.61,9.4-8.93-2.98-15.95-2.54-15.95-2.54,0,0-4.69,10.35-1.46,23.94-.16,.3-.32,.61-.47,.91-1.98-3.82-4.19-7.13-6.61-9.72-9.52-10.13-20.87-13.51-28.18-14.62-3.72-10.71-10.05-16.94-10.05-16.94,0,0-21.58,6.76-26.23,33.39-.75,4.3-.87,8.48-.54,12.48-.84-2.04-1.77-3.94-2.83-5.61-7.13-11.28-17.11-16.77-24.06-19.38-2.03-5.27-4.23-8.36-4.23-8.36,0,0-22.42,2.92-31.62,28.34-9.2,25.42,6.16,50.62,6.16,50.62,9.15-7.92,17.79-16.84,23.83-25.51,13.51,19.94,38.46,24.97,38.46,24.97,.29-9.18-.04-18.53-1.21-27.02,4.58,11.08,10.89,18.26,10.89,18.26,7.3-8.98,13.97-18.76,18.42-27.98,.87,1.35,1.83,2.7,2.9,4.05,7.28,9.23,16.98,14.49,25.62,17.49-.78,19.79,5.75,34.12,5.75,34.12,11.82-11.84,23.16-25.02,30.93-37.27,3.62,1.79,7.22,3.12,10.58,4.12,1.94,4.68,3.65,7.5,3.65,7.5,1.99-1.73,3.96-3.5,5.89-5.31,4.87,.79,8.07,.82,8.07,.82-.4-2.5-.85-5.01-1.35-7.5,3.15-3.31,6.07-6.67,8.64-10.02,1.87,4.33,4.46,8.81,8.01,13.31,20.69,26.23,57.16,26.53,57.16,26.53-1.88-11.79-4.64-23.66-8.3-34.07,5.81-1.6,11.29-3.5,16.11-5.7,4.78,13.83,16.1,22.4,16.1,22.4,3.47-6.65,6.5-13.68,8.48-20.27,17.04,17.33,42.79,17.55,42.79,17.55-2.2-13.77-5.87-27.68-11.1-37.96h4.23c2.35,13.18,8.11,22.66,8.11,22.66,6.83-5.92,13.37-12.38,18.77-18.89,.26,1.71,.62,3.47,1.09,5.29,6.88,26.14,33.84,38.15,33.84,38.15,2.51-9.72,4.33-19.81,4.91-29,1.95,10.12,6.33,17.32,6.33,17.32,7.69-6.67,14.93-14.21,19.75-21.47,.04,.09,.08,.19,.13,.28,11.76,24.34,40.52,30.96,40.52,30.96,.35-5.85,.44-11.78,.23-17.52,1.65-1.6,3.25-3.21,4.81-4.85,2.1,14.16,8.42,24.55,8.42,24.55,8.02-6.95,15.65-14.66,21.48-22.3,6.21,4.72,13.01,7.7,19.09,9.58,2.56,7.75,5.59,12.72,5.59,12.72,3.56-3.09,7.05-6.33,10.34-9.64,1.49,.12,2.36,.13,2.36,.13-.12-.72-.24-1.45-.36-2.17,9.31-9.73,16.71-19.99,19.11-28.97,.49-1.84,.85-3.64,1.1-5.39,1.68,3.39,3.76,6.9,6.35,10.48,4.08,5.64,8.65,10.19,13.3,13.87,5.18,10.85,11.88,17.69,11.88,17.69,1.79-2.47,3.54-5,5.21-7.55,9.28,3.97,16.26,4.84,16.26,4.84-1.76-7.57-3.86-15.22-6.26-22.45,.78-1.66,1.5-3.3,2.15-4.92,3.37,4.92,6.16,7.77,6.16,7.77,2.94-4.04,5.75-8.23,8.32-12.45,5.71,6.11,12.5,10.2,19.01,12.93-2.23,22.02,6.55,39.3,6.55,39.3,14.42-13.8,27.97-29.76,34.23-43.45,13.23,11.25,31.01,11.4,31.01,11.4-1.66-10.41-4.4-20.91-8.27-28.88h4.51c0,.1,0,.2,0,.3,.35,27.03,23.6,45.21,23.6,45.21,4.62-8.51,8.71-17.51,11.49-26.01,4.02,13.89,14.71,22.94,14.71,22.94,2.66-4.49,5.11-9.17,7.14-13.78,.17,1.31,.33,2.06,.33,2.06,14.3-5.59,28.31-13.42,34.2-21.98,.41-.6,.8-1.21,1.16-1.81,4.61,23.71,25.7,38.13,25.7,38.13,4.15-8.99,7.71-18.44,9.93-27.27,2.69,10.24,6.9,17.17,6.9,17.17,7.85-6.8,15.34-14.34,21.12-21.82,.16,.22,.32,.43,.49,.65,16.74,21.22,46.25,21.47,46.25,21.47-.83-5.19-1.87-10.4-3.12-15.43,7.89,8.87,18.61,12.18,18.61,12.18,.98-7.41,1.35-15.06,.68-21.64,8.17,22.94,31.51,33.97,31.51,33.97,2.96-10.51,5.14-21.46,5.74-31.26,2.43,12.78,7.97,21.88,7.97,21.88,8.85-7.67,17.23-16.27,23.23-24.67,.48,.67,.98,1.35,1.52,2.02,9.56,12.11,23.26,17.39,33.28,19.69,.67,16.55,6.2,28.14,6.2,28.14,13.36-13.14,26.06-28.06,33.37-41.35,10.33,18.62,30.06,27.06,30.06,27.06,1.73-7.15,3.09-14.5,3.86-21.53,2.29,13.45,8.2,23.17,8.2,23.17,10.85-9.4,21-20.2,26.92-30.33,5.87,7.17,13.2,11.88,20.27,14.95,2.68,9.25,6.41,15.38,6.41,15.38,3.81-3.3,7.53-6.77,11.01-10.33,4.84,.78,8.02,.81,8.02,.81-.43-2.66-.91-5.33-1.44-7.98,2.28-2.67,4.38-5.36,6.24-8.02,13.51,19.94,38.46,24.97,38.46,24.97,.29-9.18-.04-18.53-1.21-27.02,4.58,11.08,10.89,18.26,10.89,18.26,7.3-8.98,13.97-18.76,18.42-27.98,.87,1.35,1.83,2.7,2.9,4.05,7.28,9.23,16.98,14.49,25.62,17.49-.78,19.79,5.75,34.12,5.75,34.12,11.82-11.84,23.16-25.02,30.93-37.27,3.62,1.79,7.22,3.12,10.58,4.12,1.94,4.68,3.65,7.5,3.65,7.5,1.99-1.73,3.96-3.5,5.89-5.31,4.87,.79,8.07,.82,8.07,.82-.4-2.5-.85-5.01-1.35-7.5,3.15-3.31,6.07-6.67,8.64-10.02,1.87,4.33,4.46,8.81,8.01,13.31,20.69,26.23,57.16,26.53,57.16,26.53-1.88-11.79-4.64-23.66-8.3-34.07,5.81-1.6,11.29-3.5,16.11-5.7,4.78,13.83,16.11,22.4,16.11,22.4,3.47-6.65,6.5-13.68,8.48-20.27,17.04,17.33,42.79,17.55,42.79,17.55-2.2-13.77-5.87-27.68-11.1-37.96h4.23c2.35,13.18,8.11,22.66,8.11,22.66,6.83-5.92,13.37-12.38,18.77-18.89,.26,1.71,.62,3.47,1.09,5.29,6.88,26.14,33.84,38.15,33.84,38.15,2.51-9.72,4.33-19.81,4.91-29,1.95,10.12,6.33,17.33,6.33,17.33,7.69-6.67,14.93-14.21,19.75-21.47,.04,.09,.08,.19,.13,.28,11.76,24.34,40.52,30.96,40.52,30.96,.35-5.85,.44-11.78,.23-17.52,1.65-1.6,3.25-3.21,4.81-4.85,2.1,14.16,8.42,24.55,8.42,24.55,8.02-6.95,15.65-14.66,21.48-22.3,6.21,4.72,13.01,7.7,19.09,9.58,2.56,7.75,5.59,12.72,5.59,12.72,3.56-3.09,7.05-6.33,10.34-9.64,1.49,.12,2.35,.13,2.35,.13-.12-.72-.24-1.45-.36-2.17,9.31-9.73,16.71-19.99,19.11-28.97,.49-1.84,.85-3.64,1.1-5.39,1.68,3.39,3.76,6.9,6.35,10.48,4.08,5.64,8.65,10.19,13.3,13.87,5.18,10.85,11.88,17.69,11.88,17.69,1.79-2.47,3.54-5,5.21-7.55,9.28,3.97,16.26,4.84,16.26,4.84-1.76-7.57-3.86-15.22-6.26-22.45,.78-1.66,1.5-3.3,2.15-4.92,3.37,4.92,6.16,7.77,6.16,7.77,2.94-4.04,5.75-8.23,8.32-12.45,5.71,6.11,12.5,10.2,19.01,12.93-2.23,22.02,6.55,39.3,6.55,39.3,14.42-13.8,27.97-29.76,34.23-43.45,13.23,11.25,31.01,11.4,31.01,11.4-1.66-10.41-4.4-20.91-8.27-28.88h4.51c0,.1,0,.2,0,.3,.35,27.03,23.6,45.21,23.6,45.21,4.62-8.51,8.71-17.51,11.49-26.01,4.02,13.89,14.71,22.94,14.71,22.94,2.66-4.49,5.11-9.17,7.14-13.78,.17,1.31,.33,2.06,.33,2.06,14.3-5.59,28.31-13.42,34.2-21.98,.41-.6,.8-1.21,1.16-1.81,4.61,23.71,25.7,38.13,25.7,38.13,4.15-8.99,7.71-18.44,9.93-27.27,2.69,10.24,6.9,17.17,6.9,17.17,7.85-6.8,15.34-14.34,21.12-21.82,.16,.22,.32,.43,.49,.65,16.74,21.22,46.25,21.47,46.25,21.47-.83-5.19-1.87-10.4-3.12-15.43,7.89,8.87,18.61,12.18,18.61,12.18,.98-7.41,1.35-15.06,.68-21.64,8.17,22.94,31.51,33.97,31.51,33.97,2.96-10.51,5.14-21.46,5.74-31.26,2.43,12.78,7.97,21.88,7.97,21.88,8.85-7.67,17.23-16.27,23.23-24.67,.48,.67,.98,1.35,1.52,2.02,9.56,12.11,23.26,17.39,33.28,19.69,.67,16.55,6.2,28.14,6.2,28.14,13.36-13.14,26.06-28.06,33.37-41.35,10.33,18.62,30.06,27.06,30.06,27.06,1.73-7.15,3.09-14.5,3.86-21.53,2.29,13.45,8.2,23.17,8.2,23.17,10.85-9.4,21-20.2,26.92-30.33,2.16,2.64,4.51,4.94,6.98,6.95,2.26,13.56,8.24,23.38,8.24,23.38,4.57-3.96,9.01-8.16,13.07-12.46,9.74,2.88,17.42,2.95,17.42,2.95-.53-3.33-1.15-6.68-1.86-9.97,13.88,14.96,33.66,18.95,33.66,18.95,.29-9.18-.04-18.53-1.21-27.02,4.58,11.08,10.89,18.26,10.89,18.26,7.3-8.98,13.97-18.76,18.42-27.98,.87,1.35,1.83,2.7,2.9,4.05,7.28,9.23,16.98,14.49,25.62,17.49-.78,19.79,5.75,34.12,5.75,34.12,11.82-11.84,23.16-25.02,30.93-37.27,3.62,1.79,7.22,3.12,10.58,4.12,1.94,4.68,3.65,7.5,3.65,7.5,1.99-1.73,3.96-3.5,5.89-5.31,4.87,.79,8.07,.82,8.07,.82-.4-2.5-.85-5.01-1.35-7.5,3.15-3.31,6.07-6.67,8.64-10.02,1.87,4.33,4.46,8.81,8.01,13.31,20.69,26.23,57.16,26.53,57.16,26.53-1.88-11.79-4.64-23.66-8.3-34.07,5.81-1.6,11.29-3.5,16.11-5.7,4.78,13.83,16.1,22.4,16.1,22.4,3.47-6.65,6.5-13.68,8.48-20.27,4.73,4.81,10.13,8.3,15.46,10.83,2.65,11.11,7.3,18.76,7.3,18.76,4.64-4.02,9.15-8.29,13.26-12.66,4.14,.6,6.77,.62,6.77,.62-.37-2.3-.78-4.6-1.23-6.89,1.82-2.2,3.51-4.4,5.03-6.58,13.51,19.94,38.46,24.97,38.46,24.97,.29-9.18-.04-18.53-1.21-27.02,4.58,11.08,10.89,18.26,10.89,18.26,7.3-8.98,13.97-18.76,18.42-27.98,.87,1.35,1.83,2.7,2.9,4.05,7.28,9.23,16.98,14.49,25.62,17.49-.78,19.79,5.75,34.12,5.75,34.12,11.82-11.84,23.16-25.02,30.93-37.27,3.62,1.79,7.22,3.12,10.58,4.12,1.94,4.68,3.65,7.5,3.65,7.5,2-1.73,3.96-3.5,5.89-5.31,4.87,.79,8.07,.82,8.07,.82-.4-2.5-.85-5.01-1.35-7.5,3.15-3.31,6.07-6.67,8.64-10.02,1.87,4.33,4.46,8.81,8.01,13.31,20.69,26.23,57.16,26.53,57.16,26.53-1.88-11.79-4.64-23.66-8.3-34.07,5.81-1.6,11.29-3.5,16.11-5.7,4.78,13.83,16.1,22.4,16.1,22.4,3.47-6.65,6.5-13.68,8.48-20.27,17.04,17.33,42.79,17.55,42.79,17.55-2.38-14.93-6.5-30.03-12.46-40.49h5.19c2,14.48,8.51,25.18,8.51,25.18,6.83-5.91,13.37-12.38,18.77-18.89,.26,1.71,.62,3.47,1.09,5.29,6.88,26.14,33.84,38.15,33.84,38.15,2.51-9.72,4.33-19.81,4.91-29,1.95,10.12,6.33,17.32,6.33,17.32,7.69-6.66,14.93-14.21,19.75-21.47,.04,.09,.08,.19,.13,.28,11.76,24.34,40.52,30.96,40.52,30.96,.35-5.85,.44-11.78,.23-17.52,1.65-1.6,3.25-3.21,4.81-4.85,2.1,14.16,8.42,24.55,8.42,24.55,8.02-6.95,15.65-14.66,21.48-22.3,6.21,4.72,13.01,7.7,19.09,9.58,2.56,7.75,5.59,12.72,5.59,12.72,3.56-3.09,7.05-6.33,10.34-9.64,1.49,.12,2.35,.13,2.35,.13-.12-.72-.24-1.45-.36-2.17,9.31-9.73,16.71-19.99,19.11-28.97,.49-1.84,.85-3.64,1.1-5.39,1.68,3.39,3.76,6.9,6.35,10.48,4.08,5.64,8.65,10.19,13.3,13.87,5.18,10.84,11.88,17.69,11.88,17.69,1.79-2.47,3.54-5,5.21-7.55,9.28,3.97,16.26,4.84,16.26,4.84-1.76-7.57-3.86-15.22-6.26-22.45,.78-1.66,1.5-3.3,2.15-4.92,3.37,4.93,6.16,7.77,6.16,7.77,2.94-4.04,5.75-8.23,8.32-12.45,5.71,6.11,12.5,10.2,19.01,12.93-2.23,22.02,6.55,39.3,6.55,39.3,14.42-13.8,27.97-29.76,34.23-43.45,13.23,11.25,31.01,11.4,31.01,11.4-1.85-11.56-5.02-23.22-9.59-31.4h5.87c-.04,.92-.06,1.86-.04,2.82,.35,27.03,23.6,45.21,23.6,45.21,4.62-8.51,8.71-17.51,11.49-26.01,4.02,13.89,14.71,22.94,14.71,22.94,2.66-4.49,5.11-9.17,7.14-13.78,.17,1.31,.33,2.06,.33,2.06,14.3-5.59,28.31-13.42,34.2-21.98,.41-.6,.8-1.21,1.16-1.81,4.61,23.72,25.7,38.13,25.7,38.13,4.15-8.99,7.71-18.44,9.93-27.27,2.69,10.24,6.9,17.17,6.9,17.17,7.85-6.8,15.34-14.34,21.12-21.82,.16,.22,.32,.43,.49,.65,16.74,21.22,46.25,21.47,46.25,21.47-.83-5.19-1.87-10.4-3.12-15.43,7.89,8.87,18.61,12.18,18.61,12.18,.98-7.41,1.35-15.06,.68-21.64,8.17,22.94,31.51,33.97,31.51,33.97,2.96-10.51,5.14-21.46,5.74-31.26,2.43,12.78,7.97,21.88,7.97,21.88,8.85-7.67,17.23-16.27,23.23-24.67,.48,.67,.98,1.35,1.52,2.02,9.56,12.11,23.26,17.39,33.28,19.69,.67,16.55,6.2,28.14,6.2,28.14,13.36-13.14,26.06-28.06,33.37-41.35,10.33,18.62,30.06,27.06,30.06,27.06,1.73-7.15,3.09-14.5,3.86-21.53,2.29,13.45,8.2,23.17,8.2,23.17,10.85-9.4,21-20.2,26.92-30.33,5.87,7.17,13.2,11.87,20.27,14.95,2.68,9.25,6.41,15.38,6.41,15.38,3.81-3.3,7.53-6.77,11.01-10.33,4.85,.78,8.02,.81,8.02,.81-.43-2.66-.91-5.33-1.44-7.98,2.28-2.67,4.38-5.36,6.24-8.02,13.51,19.94,38.46,24.97,38.46,24.97,.29-9.18-.04-18.53-1.21-27.02,4.58,11.08,10.89,18.26,10.89,18.26,7.3-8.98,13.97-18.76,18.42-27.98,.87,1.35,1.83,2.7,2.9,4.05,7.28,9.23,16.98,14.49,25.62,17.49-.78,19.79,5.75,34.12,5.75,34.12,11.82-11.84,23.16-25.02,30.93-37.27,3.62,1.79,7.22,3.12,10.58,4.12,1.94,4.68,3.65,7.5,3.65,7.5,1.99-1.73,3.96-3.5,5.89-5.31,4.87,.79,8.07,.82,8.07,.82-.4-2.5-.85-5.01-1.35-7.5,3.15-3.31,6.07-6.67,8.64-10.02,1.87,4.33,4.46,8.81,8.01,13.31,20.69,26.23,57.16,26.53,57.16,26.53-1.88-11.79-4.64-23.66-8.3-34.07,5.81-1.6,11.29-3.5,16.11-5.7,4.78,13.83,16.11,22.4,16.11,22.4,3.47-6.65,6.5-13.68,8.48-20.27,17.04,17.33,42.79,17.55,42.79,17.55-2.38-14.93-6.5-30.03-12.46-40.49h5.19c2,14.48,8.51,25.18,8.51,25.18,6.83-5.91,13.37-12.38,18.77-18.89,.26,1.71,.62,3.47,1.09,5.29,6.88,26.14,33.84,38.15,33.84,38.15,2.51-9.72,4.33-19.81,4.91-29,1.95,10.12,6.33,17.32,6.33,17.32,7.69-6.66,14.93-14.21,19.75-21.47,.04,.09,.08,.19,.13,.28,11.76,24.34,40.52,30.96,40.52,30.96,.35-5.85,.44-11.78,.23-17.52,1.65-1.6,3.25-3.21,4.81-4.85,2.1,14.16,8.42,24.55,8.42,24.55,8.02-6.95,15.65-14.66,21.48-22.3,6.21,4.72,13.01,7.7,19.09,9.58,2.56,7.75,5.59,12.72,5.59,12.72,3.56-3.09,7.05-6.33,10.34-9.64,1.49,.12,2.36,.13,2.36,.13-.12-.72-.24-1.45-.36-2.17,9.31-9.73,16.71-19.99,19.11-28.97,.49-1.84,.85-3.64,1.1-5.39,1.68,3.39,3.76,6.9,6.35,10.48,4.08,5.64,8.65,10.19,13.3,13.87,5.18,10.84,11.88,17.69,11.88,17.69,1.79-2.47,3.54-5,5.21-7.55,9.28,3.97,16.26,4.84,16.26,4.84-1.76-7.57-3.86-15.22-6.26-22.45,.78-1.66,1.5-3.3,2.15-4.92,3.37,4.93,6.16,7.77,6.16,7.77,2.94-4.04,5.75-8.23,8.32-12.45,5.71,6.11,12.5,10.2,19.01,12.93-2.23,22.02,6.55,39.3,6.55,39.3,14.42-13.8,27.97-29.76,34.23-43.45,13.23,11.25,31.01,11.4,31.01,11.4-1.84-11.56-5.02-23.22-9.59-31.4h5.87c-.04,.92-.06,1.86-.04,2.82,.35,27.03,23.6,45.21,23.6,45.21,4.62-8.51,8.71-17.51,11.49-26.01,4.02,13.89,14.71,22.94,14.71,22.94,2.66-4.49,5.11-9.17,7.14-13.78,.17,1.31,.33,2.06,.33,2.06,14.3-5.59,28.31-13.42,34.2-21.98,.41-.6,.8-1.21,1.16-1.81,4.61,23.72,25.7,38.13,25.7,38.13,4.15-8.99,7.71-18.44,9.93-27.27,2.69,10.24,6.9,17.17,6.9,17.17,7.85-6.8,15.34-14.34,21.12-21.82,.16,.22,.32,.43,.49,.65,16.74,21.22,46.25,21.47,46.25,21.47-.83-5.19-1.87-10.4-3.12-15.43,7.89,8.87,18.61,12.18,18.61,12.18,.98-7.41,1.35-15.06,.68-21.64,8.17,22.94,31.51,33.97,31.51,33.97,2.96-10.51,5.14-21.46,5.74-31.26,2.43,12.78,7.97,21.88,7.97,21.88,8.85-7.67,17.23-16.27,23.23-24.67,.48,.67,.98,1.35,1.52,2.02,9.56,12.11,23.26,17.39,33.28,19.69,.67,16.55,6.2,28.14,6.2,28.14,13.36-13.14,26.06-28.06,33.37-41.35,10.33,18.62,30.06,27.06,30.06,27.06,1.73-7.15,3.09-14.5,3.86-21.53,2.29,13.45,8.2,23.17,8.2,23.17,10.85-9.4,21-20.2,26.92-30.33,2.16,2.64,4.51,4.94,6.98,6.95,2.26,13.56,8.24,23.38,8.24,23.38,4.57-3.96,9.01-8.16,13.07-12.46,9.74,2.88,17.42,2.95,17.42,2.95-.53-3.33-1.15-6.68-1.86-9.97,13.88,14.96,33.66,18.95,33.66,18.95,.29-9.18-.04-18.53-1.21-27.02,4.58,11.08,10.89,18.26,10.89,18.26,7.3-8.98,13.97-18.76,18.42-27.98,.87,1.35,1.83,2.7,2.9,4.05,7.28,9.23,16.98,14.49,25.62,17.49-.78,19.79,5.75,34.12,5.75,34.12,11.82-11.84,23.16-25.02,30.93-37.27,3.62,1.79,7.22,3.12,10.58,4.12,1.94,4.68,3.65,7.5,3.65,7.5,1.99-1.73,3.96-3.5,5.89-5.31,4.87,.79,8.07,.82,8.07,.82-.4-2.5-.85-5.01-1.35-7.5,3.15-3.31,6.07-6.67,8.64-10.02,1.87,4.33,4.46,8.81,8.01,13.31,20.69,26.23,57.17,26.53,57.17,26.53-1.88-11.79-4.64-23.66-8.3-34.07,5.81-1.6,11.29-3.5,16.11-5.7,4.78,13.83,16.11,22.4,16.11,22.4,3.47-6.65,6.5-13.68,8.48-20.27,12.79,13,30.46,16.37,38.5,17.24,5.88,4.47,10.54,6.68,10.54,6.68,2.96-10.51,5.14-21.46,5.74-31.26,2.43,12.78,7.97,21.88,7.97,21.88,8.85-7.67,17.23-16.27,23.23-24.67,.48,.67,.99,1.35,1.52,2.02,9.56,12.11,23.26,17.39,33.28,19.69,.67,16.55,6.2,28.14,6.2,28.14,13.36-13.14,26.06-28.06,33.37-41.35,10.33,18.62,30.06,27.06,30.06,27.06,1.73-7.15,3.09-14.5,3.86-21.53,2.29,13.45,8.2,23.17,8.2,23.17,10.85-9.4,21-20.2,26.92-30.33,2.16,2.64,4.51,4.94,6.98,6.95,2.26,13.56,8.24,23.38,8.24,23.38,4.57-3.96,9.01-8.16,13.07-12.46,9.74,2.88,17.42,2.95,17.42,2.95-.53-3.33-1.15-6.68-1.86-9.97,13.88,14.96,33.66,18.95,33.66,18.95,.29-9.18-.04-18.53-1.21-27.02,4.58,11.08,10.89,18.26,10.89,18.26,7.3-8.98,13.97-18.76,18.42-27.98,.87,1.35,1.83,2.7,2.9,4.05,7.28,9.23,16.98,14.49,25.62,17.49-.78,19.79,5.75,34.12,5.75,34.12,11.82-11.84,23.16-25.02,30.93-37.27,3.62,1.79,7.22,3.12,10.58,4.12,1.94,4.68,3.65,7.5,3.65,7.5,2-1.73,3.96-3.5,5.89-5.31,4.87,.79,8.07,.82,8.07,.82-.4-2.5-.85-5.01-1.35-7.5,3.14-3.31,6.07-6.67,8.64-10.02,1.87,4.33,4.46,8.81,8.01,13.31,20.69,26.23,57.17,26.53,57.17,26.53-1.88-11.79-4.64-23.66-8.3-34.07,5.81-1.6,11.29-3.5,16.11-5.7,4.78,13.83,16.1,22.4,16.1,22.4,3.47-6.65,6.5-13.68,8.48-20.27,17.04,17.33,42.79,17.55,42.79,17.55-.55-3.46-1.2-6.92-1.94-10.34,3.17,1.71,6.37,3.05,9.43,4.12-.78,19.79,5.75,34.12,5.75,34.12,11.82-11.84,23.16-25.02,30.93-37.27,3.62,1.79,7.22,3.12,10.58,4.12,1.94,4.68,3.65,7.5,3.65,7.5,1.99-1.73,3.96-3.5,5.89-5.31,4.87,.79,8.07,.82,8.07,.82-.4-2.5-.85-5.01-1.35-7.5,3.15-3.31,6.07-6.67,8.64-10.02,1.87,4.33,4.46,8.81,8.01,13.31,20.69,26.23,57.16,26.53,57.16,26.53-1.88-11.79-4.64-23.66-8.3-34.07,5.81-1.6,11.29-3.5,16.11-5.7,4.78,13.83,16.11,22.4,16.11,22.4,3.47-6.65,6.5-13.68,8.48-20.27,17.04,17.33,42.79,17.55,42.79,17.55Z"/></svg>