<?xml version="1.0" encoding="UTF-8"?><svg xmlns="http://www.w3.org/2000/svg" xmlns:xlink="http://www.w3.org/1999/xlink" viewBox="0 0 478 635.75"><defs><style>.cls-1{opacity:.68;}.cls-2{fill:#fff6e2;}.cls-3{fill:#fff;}.cls-4{fill:#83a40f;}.cls-5{clip-path:url(#clippath-2);}.cls-6{isolation:isolate;}.cls-7{fill:url(#Degradado_sin_nombre_122);mix-blend-mode:multiply;opacity:.11;}.cls-8{clip-path:url(#clippath-1);}.cls-9{fill:#d9d5ca;}.cls-10{fill:url(#Degradado_sin_nombre_27);}.cls-11{clip-path:url(#clippath);}.cls-12{fill:#856565;}.cls-13{fill:url(#Degradado_sin_nombre_95);}.cls-14{fill:#223d10;}.cls-15{fill:#ebe6db;}.cls-16{fill:url(#Degradado_sin_nombre_111);}.cls-17{fill:#e6e1d2;}</style><linearGradient id="Degradado_sin_nombre_111" x1="263.52" y1="99.75" x2="295.4" y2="99.75" gradientUnits="userSpaceOnUse"><stop offset=".01" stop-color="#d6d1be"/><stop offset=".54" stop-color="#eee7d3"/><stop offset=".98" stop-color="#fff6e2"/></linearGradient><linearGradient id="Degradado_sin_nombre_95" x1="241.78" y1="139.98" x2="241.78" y2="127.42" gradientUnits="userSpaceOnUse"><stop offset="0" stop-color="#97bebb"/><stop offset=".98" stop-color="#779296"/></linearGradient><linearGradient id="Degradado_sin_nombre_27" x1="179.19" y1="127.42" x2="304.37" y2="127.42" gradientUnits="userSpaceOnUse"><stop offset="0" stop-color="#f5f8e7"/><stop offset=".99" stop-color="#cbdbd8"/></linearGradient><clipPath id="clippath"><path class="cls-4" d="M189.81,120.84s-4.97-16.98-23.81-22.25c-18.84-5.28-29.29-3.83-29.29-3.83l53.1,26.08Z"/></clipPath><clipPath id="clippath-1"><path class="cls-4" d="M182.05,128.91s-17.39,1.55-27.22,15.73c0,0,5.9,.1,8.44-.83,0,0-4.81,8.8-5.02,12.73,0,0,19.87-20.49,23.81-27.64Z"/></clipPath><clipPath id="clippath-2"><path class="cls-2" d="M203.62,73.32h72.04s-4.35,49.27-19.05,58.79c0,0-10.28,.14-18.01,.14s-17.84-.28-17.84-.28c0,0-13-11.24-17.14-58.65Z"/></clipPath><linearGradient id="Degradado_sin_nombre_122" x1="237.23" y1="137.91" x2="237.23" y2="66.84" gradientUnits="userSpaceOnUse"><stop offset="0" stop-color="#000"/><stop offset=".12" stop-color="#242424"/><stop offset=".44" stop-color="gray"/><stop offset=".7" stop-color="#c4c4c4"/><stop offset=".89" stop-color="#eee"/><stop offset=".98" stop-color="#fff"/></linearGradient></defs><g class="cls-6"><g id="Capa_1"><path class="cls-3" d="M464.5,5.48c-23.58,6.97-35.38,10.46-45.65,15.63-26.72,13.44-23.42,22.89-43.14,30.74-17.52,6.97-20.59-.3-62.21,2.08-47.15,2.7-56.46,12.79-59.2,16.15-9.47,11.6-9.61,27.39-14.05,27.09-4.97-.33-3.48-20.05-16.55-28.13-4.24-2.62-6.11-1.61-14.55-3.65-8.87-2.14-14.59-5.15-29.6-13.54-33.46-18.73-30.86-18.27-34.11-19.27-17.08-5.3-23.84,2.17-48.16,3.65-3.68,.22-30.73,1.61-57.69-9.38C23.17,20.15,10.13,10.21,0,0V635.75H478V1.6c-4.24,1.19-8.75,2.48-13.5,3.88Z"/><g><path class="cls-16" d="M274.8,80.81s15.35-4.45,20.6-1.83c0,0-1.93,31.74-31.88,42.37l3.73-9.8s17.39-6.07,21.25-27.05c0,0-12.42-1.52-19.87,9.11l6.18-12.8Z"/><path class="cls-13" d="M179.19,127.42s1.93,7.45,40.57,12.56h42.64s32.98-4.83,41.95-12.56h-125.17Z"/><ellipse class="cls-10" cx="241.78" cy="127.42" rx="62.59" ry="4.83"/><path class="cls-12" d="M181.27,130.19s10.86-6.46,13.97-8.22,28.46-5.69,28.46-5.69l-1.24-4.45s-17.98,2.36-30.57,7.91l-11.82,9.47,1.2,.98Z"/><g><g><path class="cls-4" d="M189.81,120.84s-4.97-16.98-23.81-22.25c-18.84-5.28-29.29-3.83-29.29-3.83l53.1,26.08Z"/><g class="cls-11"><path class="cls-14" d="M144.47,100.55h4.04s11.28,1.86,16.66,2.28,19.94,7.94,22.18,16.81c0,0-11.31,1.41-11.94,1.2s-16.46-8.14-20.49-10.75-10.97-9.54-10.97-9.54h.52Z"/></g></g><path class="cls-4" d="M193.02,120.01s-22.98-5.64-29.76-5.3-24.69-.01-24.69-.01c0,0,11.28,10.08,21.12,11.11,9.83,1.04,27.84-2.07,33.33-5.8Z"/><g><path class="cls-4" d="M182.05,128.91s-17.39,1.55-27.22,15.73c0,0,5.9,.1,8.44-.83,0,0-4.81,8.8-5.02,12.73,0,0,19.87-20.49,23.81-27.64Z"/><g class="cls-8"><path class="cls-14" d="M181.01,126.43s-13.55,6.73-15.22,15.32,0,11.9,0,11.9c0,0,21.84-20.39,21.94-20.7s1.04-5.18-.72-5.59-6-.93-6-.93Z"/></g></g></g><g><path class="cls-2" d="M203.62,73.32h72.04s-4.35,49.27-19.05,58.79c0,0-10.28,.14-18.01,.14s-17.84-.28-17.84-.28c0,0-13-11.24-17.14-58.65Z"/><g class="cls-5"><g class="cls-1"><path class="cls-9" d="M268,97.51s3.04-3.59,5.93-3.73c0,0,1.52,18.08-5.24,26.22-6.76,8.14-15.32,17.67-15.32,17.67l-4.28-.69s7.18-24.29,7.87-25.39,11.04-14.08,11.04-14.08Z"/><path class="cls-17" d="M250.06,97.51s3.31-5.8,9.52-5.52c6.21,.28,8.42,5.52,8.42,5.52,0,0-3.31,24.01-18.91,39.47l-8.69-1.1,9.66-38.37Z"/><path class="cls-15" d="M242.47,135.87s10.07-16.01,7.59-38.37c0,0-1.79-3.87-9.38-4.28-7.59-.41-9.8,4.7-9.8,4.7,0,0-3.17,21.39-1.38,28.98,1.79,7.59,7.59,11.73,7.59,11.73l5.38-2.76Z"/><path class="cls-17" d="M237.09,135.87s-5.8-8.69-6.21-19.6c-.41-10.9,0-18.36,0-18.36,0,0-5.11-4.83-10.21-4.69s-9.34,4.86-9.34,4.86c0,0,3.12,30.19,18.17,37.78h7.59Z"/><path class="cls-9" d="M203.41,91.99s7.87,3.31,8.14,7.04c0,0,6.21,29.81,17.94,36.85h-8.14s-21.94-37.68-21.94-38.37,4-5.52,4-5.52Z"/></g><rect class="cls-7" x="196.86" y="66.84" width="80.74" height="71.07"/></g></g></g></g></g></svg>