<?xml version="1.0" encoding="UTF-8"?><svg id="Capa_1" xmlns="http://www.w3.org/2000/svg" xmlns:xlink="http://www.w3.org/1999/xlink" viewBox="0 0 32.52 32.52"><defs><style>.cls-1{fill:url(#Degradado_sin_nombre_17);}</style><linearGradient id="Degradado_sin_nombre_17" x1="26.12" y1="1.69" x2="5.48" y2="32.19" gradientUnits="userSpaceOnUse"><stop offset="0" stop-color="#f6f6f7"/><stop offset="1" stop-color="#fff"/></linearGradient></defs><path class="cls-1" d="M16.26,0C7.28,0,0,7.28,0,16.26s7.28,16.26,16.26,16.26,16.26-7.28,16.26-16.26S25.24,0,16.26,0Zm9.97,11.54c-.67,.67-.98,.83-.98,.83h0c-.18,5.63-3.95,11.38-10.64,11.73-2.52,.13-4.84-.89-6.64-2.38,.65,.19,1.33,.3,2.04,.3,1.36,0,2.64-.51,3.74-1.36,0,0-3.74-1.03-3.64-2.77l1.79-.05s-1.14-.35-1.77-.92c-1.07-.97-1.7-2.32-1.39-3.07,0,0,.2,.17,.72,.35,.52,.18,1.02,.17,1.02,.17,0,0-1.11-.79-1.44-1.67-.51-1.38-.25-3.13,.25-3.66,0,0,.2,1.11,3.37,2.72,1.61,.82,3.42,1.39,4.83,1.43-.11-.32-.16-.96-.16-1.31,0-1.91,1.78-3.47,3.97-3.47,1.23,0,2.33,.49,3.06,1.26l1.05-.48,1.26-.53s0,0,0,0c0,0,0,0,0,0,0,0,0,0,0,0,0,0,.07,.07,.01,.27-.13,.45-1.12,1.41-1.51,1.72v.08s.32,.02,.74-.1c.42-.12,1.42-.55,1.42-.55,0,0-.42,.78-1.09,1.45Z"/></svg>