<?xml version="1.0" encoding="UTF-8"?><svg id="Capa_1" xmlns="http://www.w3.org/2000/svg" xmlns:xlink="http://www.w3.org/1999/xlink" viewBox="0 0 1920 1397.52"><defs><style>.cls-1{fill:#2f95a0;}.cls-2{clip-path:url(#clippath);}.cls-3{fill:none;}.cls-4{filter:url(#drop-shadow-9);}</style><clipPath id="clippath"><rect class="cls-3" y="1.89" width="1920" height="1395.64"/></clipPath><filter id="drop-shadow-9" filterUnits="userSpaceOnUse"><feOffset dx="7" dy="12"/><feGaussianBlur result="blur" stdDeviation="12"/><feFlood flood-color="#000" flood-opacity=".4"/><feComposite in2="blur" operator="in"/><feComposite in="SourceGraphic"/></filter></defs><g class="cls-2"><g class="cls-4"><g><polygon class="cls-1" points="-121.82 1269.15 2444.1 816.71 2389.79 4.02 -111.44 0 -121.82 1269.15"/><g><path class="cls-1" d="M-60.76,1228.01s19.86-4.82,38.01,8.75c10.59,7.92,19.83,26.13,26.21,44.58,0,0-29.29,4.91-49.59-13.19-20.3-18.1-14.63-40.14-14.63-40.14Z"/><path class="cls-1" d="M-16.93,1220.28s19.86-4.82,38.01,8.75c10.59,7.92,19.83,26.13,26.21,44.58,0,0-29.29,4.91-49.59-13.19-20.3-18.1-14.63-40.14-14.63-40.14Z"/><path class="cls-1" d="M14.14,1207.79s13.68,16.71,9.38,45.54c-2.51,16.82-15.26,40.02-29.55,60.48,0,0-18.12-26.3-10.58-60.75,7.54-34.45,30.75-45.27,30.75-45.27Z"/><path class="cls-1" d="M43.64,1217.17s24.55-5.95,46.97,10.82c13.08,9.79,24.51,32.29,32.39,55.09,0,0-36.2,6.07-61.28-16.31-25.09-22.37-18.09-49.61-18.09-49.61Z"/><path class="cls-1" d="M45.68,1197.82s14.57,14.33,12.61,36.91c-1.14,13.17-11.74,30.63-24.05,45.78,0,0-19.62-22.29-14.95-49.09,4.67-26.79,26.38-33.61,26.38-33.61Z"/><path class="cls-1" d="M129.78,1196.71s19.86-4.82,38.01,8.75c10.59,7.92,19.83,26.13,26.21,44.58,0,0-29.29,4.91-49.59-13.19-20.3-18.1-14.63-40.14-14.63-40.14Z"/><path class="cls-1" d="M143.86,1194.08s4.79,19.87-8.82,38c-7.93,10.57-26.16,19.79-44.62,26.14,0,0-4.86-29.3,13.27-49.57,18.14-20.27,40.16-14.57,40.16-14.57Z"/><path class="cls-1" d="M128.92,1201.06s14.07,5.97,18.9,22.2c2.82,9.47,.25,24.52-4.15,38.44,0,0-19.76-10.11-23.87-30.03-4.11-19.91,9.12-30.61,9.12-30.61Z"/><path class="cls-1" d="M212.47,1175.06s20.13,3.51,31.35,23.2c6.55,11.49,7.75,31.87,6.23,51.34,0,0-28.81-7.19-40.2-31.9-11.38-24.7,2.61-42.64,2.61-42.64Z"/><path class="cls-1" d="M203.99,1151.96s14.57,14.33,12.61,36.91c-1.14,13.17-11.74,30.63-24.05,45.78,0,0-19.62-22.29-14.95-49.09,4.67-26.79,26.38-33.61,26.38-33.61Z"/><path class="cls-1" d="M269.54,1169.24s20.43-.41,35.22,16.76c8.63,10.02,13.72,29.8,15.96,49.19,0,0-29.66-1.54-45.56-23.6-15.91-22.06-5.61-42.35-5.61-42.35Z"/><path class="cls-1" d="M268.27,1170.16s11.61,11.42,10.05,29.42c-.91,10.5-9.35,24.42-19.17,36.49,0,0-15.64-17.77-11.91-39.13,3.73-21.36,21.03-26.79,21.03-26.79Z"/><path class="cls-1" d="M326.85,1161.96s19.86-4.82,38.01,8.75c10.59,7.92,19.83,26.13,26.21,44.58,0,0-29.29,4.91-49.59-13.19-20.3-18.1-14.63-40.14-14.63-40.14Z"/><path class="cls-1" d="M345.86,1152.31s14.57,14.33,12.61,36.91c-1.14,13.17-11.74,30.63-24.05,45.78,0,0-19.62-22.29-14.95-49.09,4.67-26.79,26.38-33.61,26.38-33.61Z"/><path class="cls-1" d="M322.79,1143.58s14.57,14.33,12.61,36.91c-1.14,13.17-11.74,30.63-24.05,45.78,0,0-19.62-22.29-14.95-49.09,4.67-26.79,26.38-33.61,26.38-33.61Z"/><path class="cls-1" d="M392.71,1140.18s19.24-2.6,39.12,14.21c11.6,9.81,23.18,30.42,31.92,50.93,0,0-28.65,1.49-51.27-20.43-22.61-21.92-19.77-44.71-19.77-44.71Z"/><path class="cls-1" d="M391.6,1144.24s14.57,14.33,12.61,36.91c-1.14,13.17-11.74,30.63-24.05,45.78,0,0-19.62-22.29-14.95-49.09,4.67-26.79,26.38-33.61,26.38-33.61Z"/><path class="cls-1" d="M450.66,1129.06s19.86-4.82,38.01,8.75c10.59,7.92,19.83,26.13,26.21,44.58,0,0-29.29,4.91-49.59-13.19-20.3-18.1-14.63-40.14-14.63-40.14Z"/><path class="cls-1" d="M435.36,1128.63s17.44,10.66,20.64,33.1c1.87,13.09-4.5,32.49-13.06,50.04,0,0-24.16-17.27-25.67-44.43-1.52-27.16,18.09-38.71,18.09-38.71Z"/><path class="cls-1" d="M454.77,1102.41s17.44,10.66,20.64,33.1c1.87,13.09-4.5,32.49-13.06,50.04,0,0-24.16-17.27-25.67-44.43-1.52-27.16,18.09-38.71,18.09-38.71Z"/><path class="cls-1" d="M511.59,1134.08s15.57-3.78,29.79,6.86c8.3,6.21,15.54,20.48,20.54,34.94,0,0-22.96,3.85-38.87-10.34-15.91-14.19-11.47-31.46-11.47-31.46Z"/><path class="cls-1" d="M519.83,1121.63s14.01,15.83,10.57,42.35c-2,15.47-13.96,36.56-27.52,55.05,0,0-18.67-24.82-12.19-56.45,6.48-31.62,29.14-40.96,29.14-40.96Z"/><path class="cls-1" d="M598.56,1120.4s13.61,6.67,17.53,23.01c2.29,9.53-1.07,24.3-6.18,37.85,0,0-19.03-11.08-22.03-31.03s10.68-29.83,10.68-29.83Z"/><path class="cls-1" d="M566.05,1107.47s18.68,8.28,24.81,30.1c3.57,12.73-.19,32.8-6.38,51.32,0,0-26.22-13.95-31.28-40.68-5.07-26.72,12.85-40.75,12.85-40.75Z"/><path class="cls-1" d="M654.66,1091.83s19.18,7.06,26.69,28.44c4.38,12.47,1.91,32.75-3.07,51.62,0,0-27.06-12.24-33.83-38.58-6.77-26.34,10.21-41.49,10.21-41.49Z"/><path class="cls-1" d="M645.69,1109.74s7.06,14.54-.38,30.85c-4.34,9.51-16.86,19.72-30.05,27.76,0,0-8.72-21.81,1.86-40.55,10.58-18.73,28.57-18.06,28.57-18.06Z"/><path class="cls-1" d="M696.27,1094.05s19.86-4.82,38.01,8.75c10.59,7.92,19.83,26.13,26.21,44.58,0,0-29.29,4.91-49.59-13.19-20.3-18.1-14.63-40.14-14.63-40.14Z"/><path class="cls-1" d="M704.64,1076.26s14.57,14.33,12.61,36.91c-1.14,13.17-11.74,30.63-24.05,45.78,0,0-19.62-22.29-14.95-49.09,4.67-26.79,26.38-33.61,26.38-33.61Z"/><path class="cls-1" d="M773.42,1072.7s20.05,3.96,30.83,23.89c6.29,11.63,7.04,32.04,5.09,51.46,0,0-28.65-7.83-39.48-32.78-10.83-24.95,3.56-42.58,3.56-42.58Z"/><path class="cls-1" d="M745.43,1096.63s13.17,.69,21.88,12.43c5.08,6.85,7.44,19.81,7.97,32.4,0,0-19.01-2.37-28.22-17.31-9.21-14.94-1.64-27.51-1.64-27.51Z"/><path class="cls-1" d="M827.21,1069.45s19.86-4.82,38.01,8.75c10.59,7.92,19.83,26.13,26.21,44.58,0,0-29.29,4.91-49.59-13.19-20.3-18.1-14.63-40.14-14.63-40.14Z"/><path class="cls-1" d="M832.71,1053.67s14.57,14.33,12.61,36.91c-1.14,13.17-11.74,30.63-24.05,45.78,0,0-19.62-22.29-14.95-49.09,4.67-26.79,26.38-33.61,26.38-33.61Z"/><path class="cls-1" d="M910.93,1050.9s20.19,3.2,31.71,22.71c6.72,11.38,8.25,31.75,7.03,51.23,0,0-28.92-6.74-40.69-31.26s1.94-42.68,1.94-42.68Z"/><path class="cls-1" d="M908.13,1047.73s13.82,16.34,9.88,44.19c-2.29,16.25-14.7,38.55-28.69,58.18,0,0-18.35-25.67-11.26-58.92,7.09-33.25,30.07-43.44,30.07-43.44Z"/><path class="cls-1" d="M968,1048.9s19.86-4.82,38.01,8.75c10.59,7.92,19.83,26.13,26.21,44.58,0,0-29.29,4.91-49.59-13.19-20.3-18.1-14.63-40.14-14.63-40.14Z"/><path class="cls-1" d="M973.36,1041.66s14.57,14.33,12.61,36.91c-1.14,13.17-11.74,30.63-24.05,45.78,0,0-19.62-22.29-14.95-49.09,4.67-26.79,26.38-33.61,26.38-33.61Z"/><path class="cls-1" d="M1023.67,1039.06s20.41-.98,35.67,15.78c8.9,9.78,14.53,29.41,17.31,48.73,0,0-29.69-.72-46.2-22.33-16.51-21.62-6.78-42.18-6.78-42.18Z"/><path class="cls-1" d="M1026.46,1032.3s14.57,14.33,12.61,36.91c-1.14,13.17-11.74,30.63-24.05,45.78,0,0-19.62-22.29-14.95-49.09,4.67-26.79,26.38-33.61,26.38-33.61Z"/><path class="cls-1" d="M1087.02,1025.63s19.86-4.82,38.01,8.75c10.59,7.92,19.83,26.13,26.21,44.58,0,0-29.29,4.91-49.59-13.19-20.3-18.1-14.63-40.14-14.63-40.14Z"/><path class="cls-1" d="M1081.63,1009.78s16.83,11.59,18.82,34.16c1.16,13.17-6.25,32.2-15.74,49.26,0,0-23.19-18.55-23.23-45.75-.04-27.2,20.16-37.67,20.16-37.67Z"/><path class="cls-1" d="M1130.86,1017.9s19.86-4.82,38.01,8.75c10.59,7.92,19.83,26.13,26.21,44.58,0,0-29.29,4.91-49.59-13.19-20.3-18.1-14.63-40.14-14.63-40.14Z"/><path class="cls-1" d="M1161.93,1005.41s13.68,16.71,9.38,45.54c-2.51,16.82-15.26,40.02-29.55,60.48,0,0-18.12-26.3-10.58-60.75,7.54-34.45,30.75-45.27,30.75-45.27Z"/><path class="cls-1" d="M1191.43,1014.78s24.55-5.95,46.97,10.82c13.08,9.79,24.51,32.29,32.39,55.09,0,0-36.2,6.07-61.28-16.31-25.09-22.37-18.09-49.61-18.09-49.61Z"/><path class="cls-1" d="M1193.47,995.43s14.57,14.33,12.61,36.91c-1.14,13.17-11.74,30.63-24.05,45.78,0,0-19.62-22.29-14.95-49.09,4.67-26.79,26.38-33.61,26.38-33.61Z"/><path class="cls-1" d="M1277.57,994.32s19.86-4.82,38.01,8.75c10.59,7.92,19.83,26.13,26.21,44.58,0,0-29.29,4.91-49.59-13.19-20.3-18.1-14.63-40.14-14.63-40.14Z"/><path class="cls-1" d="M1291.64,991.69s4.79,19.87-8.82,38c-7.93,10.57-26.16,19.79-44.62,26.14,0,0-4.86-29.3,13.27-49.57,18.14-20.27,40.16-14.57,40.16-14.57Z"/><path class="cls-1" d="M1276.71,998.67s14.07,5.97,18.9,22.2c2.82,9.47,.25,24.52-4.15,38.44,0,0-19.76-10.11-23.87-30.03-4.11-19.91,9.12-30.61,9.12-30.61Z"/><path class="cls-1" d="M1360.26,972.68s20.13,3.51,31.35,23.2c6.55,11.49,7.75,31.87,6.23,51.34,0,0-28.81-7.19-40.2-31.9-11.38-24.7,2.61-42.64,2.61-42.64Z"/><path class="cls-1" d="M1351.78,949.58s14.57,14.33,12.61,36.91c-1.14,13.17-11.74,30.63-24.05,45.78,0,0-19.62-22.29-14.95-49.09,4.67-26.79,26.38-33.61,26.38-33.61Z"/><path class="cls-1" d="M1417.33,966.86s20.43-.41,35.22,16.76c8.63,10.02,13.72,29.8,15.96,49.19,0,0-29.66-1.54-45.56-23.6-15.91-22.06-5.61-42.35-5.61-42.35Z"/><path class="cls-1" d="M1416.06,967.77s11.61,11.42,10.05,29.42c-.91,10.5-9.35,24.42-19.17,36.49,0,0-15.64-17.77-11.91-39.13,3.73-21.36,21.03-26.79,21.03-26.79Z"/><path class="cls-1" d="M1474.64,959.57s19.86-4.82,38.01,8.75c10.59,7.92,19.83,26.13,26.21,44.58,0,0-29.29,4.91-49.59-13.19-20.3-18.1-14.63-40.14-14.63-40.14Z"/><path class="cls-1" d="M1493.65,949.92s14.57,14.33,12.61,36.91c-1.14,13.17-11.74,30.63-24.05,45.78,0,0-19.62-22.29-14.95-49.09,4.67-26.79,26.38-33.61,26.38-33.61Z"/><path class="cls-1" d="M1470.58,941.2s14.57,14.33,12.61,36.91c-1.14,13.17-11.74,30.63-24.05,45.78,0,0-19.62-22.29-14.95-49.09,4.67-26.79,26.38-33.61,26.38-33.61Z"/><path class="cls-1" d="M1540.5,937.79s19.24-2.6,39.12,14.21c11.6,9.81,23.18,30.42,31.92,50.93,0,0-28.65,1.49-51.27-20.43-22.61-21.92-19.77-44.71-19.77-44.71Z"/><path class="cls-1" d="M1539.38,941.86s14.57,14.33,12.61,36.91c-1.14,13.17-11.74,30.63-24.05,45.78,0,0-19.62-22.29-14.95-49.09,4.67-26.79,26.38-33.61,26.38-33.61Z"/><path class="cls-1" d="M1598.44,926.67s19.86-4.82,38.01,8.75c10.59,7.92,19.83,26.13,26.21,44.58,0,0-29.29,4.91-49.59-13.19-20.3-18.1-14.63-40.14-14.63-40.14Z"/><path class="cls-1" d="M1583.15,926.24s17.44,10.66,20.64,33.1c1.87,13.09-4.5,32.49-13.06,50.04,0,0-24.16-17.27-25.67-44.43-1.52-27.16,18.09-38.71,18.09-38.71Z"/><path class="cls-1" d="M1602.56,900.02s17.44,10.66,20.64,33.1c1.87,13.09-4.5,32.49-13.06,50.04,0,0-24.16-17.27-25.67-44.43-1.52-27.16,18.09-38.71,18.09-38.71Z"/><path class="cls-1" d="M1659.37,931.69s15.57-3.78,29.79,6.86c8.3,6.21,15.54,20.48,20.54,34.94,0,0-22.96,3.85-38.87-10.34-15.91-14.19-11.47-31.46-11.47-31.46Z"/><path class="cls-1" d="M1667.61,919.25s14.01,15.83,10.57,42.35c-2,15.47-13.96,36.56-27.52,55.05,0,0-18.67-24.82-12.19-56.45,6.48-31.62,29.14-40.96,29.14-40.96Z"/><path class="cls-1" d="M1746.34,918.02s13.61,6.67,17.53,23.01c2.29,9.53-1.07,24.3-6.18,37.85,0,0-19.03-11.08-22.03-31.03-3-19.95,10.68-29.83,10.68-29.83Z"/><path class="cls-1" d="M1713.84,905.08s18.68,8.28,24.81,30.1c3.57,12.73-.19,32.8-6.38,51.32,0,0-26.22-13.95-31.28-40.68-5.07-26.72,12.85-40.75,12.85-40.75Z"/><path class="cls-1" d="M1802.45,889.44s19.18,7.06,26.69,28.44c4.38,12.47,1.91,32.75-3.07,51.62,0,0-27.06-12.24-33.83-38.58-6.77-26.34,10.21-41.49,10.21-41.49Z"/><path class="cls-1" d="M1793.48,907.36s7.06,14.54-.38,30.85c-4.34,9.51-16.86,19.72-30.05,27.76,0,0-8.72-21.81,1.86-40.55,10.58-18.73,28.57-18.06,28.57-18.06Z"/><path class="cls-1" d="M1844.06,891.66s19.86-4.82,38.01,8.75c10.59,7.92,19.83,26.13,26.21,44.58,0,0-29.29,4.91-49.59-13.19-20.3-18.1-14.63-40.14-14.63-40.14Z"/><path class="cls-1" d="M1852.42,873.87s14.57,14.33,12.61,36.91c-1.14,13.17-11.74,30.63-24.05,45.78,0,0-19.62-22.29-14.95-49.09,4.67-26.79,26.38-33.61,26.38-33.61Z"/><path class="cls-1" d="M1921.2,870.31s20.05,3.96,30.83,23.89c6.29,11.63,7.04,32.04,5.09,51.46,0,0-28.65-7.83-39.48-32.78-10.83-24.95,3.56-42.58,3.56-42.58Z"/><path class="cls-1" d="M1893.21,894.24s13.17,.69,21.88,12.43c5.08,6.85,7.44,19.81,7.97,32.4,0,0-19.01-2.37-28.22-17.31-9.21-14.94-1.64-27.51-1.64-27.51Z"/></g></g></g></g></svg>