<?xml version="1.0" encoding="UTF-8"?><svg xmlns="http://www.w3.org/2000/svg" xmlns:xlink="http://www.w3.org/1999/xlink" viewBox="0 0 1920 2663.29"><defs><style>.cls-1{fill:url(#Degradado_sin_nombre_74-22);}.cls-2{fill:#88c23f;mix-blend-mode:soft-light;opacity:.3;}.cls-3{fill:url(#Degradado_sin_nombre_74-23);}.cls-4{fill:url(#Degradado_sin_nombre_74-16);}.cls-5{fill:url(#Degradado_sin_nombre_74-11);}.cls-6{isolation:isolate;}.cls-7{fill:url(#Degradado_sin_nombre_74-13);}.cls-8{fill:url(#Degradado_sin_nombre_74-9);}.cls-9{fill:url(#Degradado_sin_nombre_74-3);}.cls-10{fill:url(#Degradado_sin_nombre_74-20);}.cls-11{fill:url(#Degradado_sin_nombre_74-12);}.cls-12{fill:url(#Degradado_sin_nombre_74-10);}.cls-13{fill:url(#Degradado_sin_nombre_74);}.cls-14{clip-path:url(#clippath);}.cls-15{fill:url(#Degradado_sin_nombre_74-19);}.cls-16{fill:url(#Degradado_sin_nombre_74-7);}.cls-17{fill:url(#Degradado_sin_nombre_74-5);}.cls-18{fill:none;}.cls-19{fill:url(#Degradado_sin_nombre_74-14);}.cls-20{fill:url(#Degradado_sin_nombre_74-24);}.cls-21{filter:url(#drop-shadow-9);}.cls-22{fill:url(#Degradado_sin_nombre_74-8);}.cls-23{fill:url(#Degradado_sin_nombre_74-21);}.cls-24{fill:url(#Degradado_sin_nombre_74-18);}.cls-25{fill:url(#Degradado_sin_nombre_74-15);}.cls-26{fill:url(#Degradado_sin_nombre_74-4);}.cls-27{fill:url(#Degradado_sin_nombre_74-2);}.cls-28{fill:url(#Degradado_sin_nombre_74-17);}.cls-29{fill:url(#Degradado_sin_nombre_74-6);}</style><clipPath id="clippath"><rect class="cls-18" width="1920" height="2663.29"/></clipPath><filter id="drop-shadow-9" filterUnits="userSpaceOnUse"><feOffset dx="7" dy="12"/><feGaussianBlur result="blur" stdDeviation="12"/><feFlood flood-color="#000" flood-opacity=".4"/><feComposite in2="blur" operator="in"/><feComposite in="SourceGraphic"/></filter><linearGradient id="Degradado_sin_nombre_74" x1="1880.64" y1="102.3" x2="1880.64" y2="2404.49" gradientUnits="userSpaceOnUse"><stop offset="0" stop-color="#008e45"/><stop offset=".97" stop-color="#006837"/></linearGradient><linearGradient id="Degradado_sin_nombre_74-2" x1="1969.11" y1="102.3" x2="1969.11" y2="2404.49" xlink:href="#Degradado_sin_nombre_74"/><linearGradient id="Degradado_sin_nombre_74-3" x1="1672.79" y1="102.3" x2="1672.79" y2="2404.49" xlink:href="#Degradado_sin_nombre_74"/><linearGradient id="Degradado_sin_nombre_74-4" x1="1731.23" y1="102.3" x2="1731.23" y2="2404.49" xlink:href="#Degradado_sin_nombre_74"/><linearGradient id="Degradado_sin_nombre_74-5" x1="1796.93" y1="102.3" x2="1796.93" y2="2404.49" xlink:href="#Degradado_sin_nombre_74"/><linearGradient id="Degradado_sin_nombre_74-6" x1="1450.66" y1="102.3" x2="1450.66" y2="2404.49" xlink:href="#Degradado_sin_nombre_74"/><linearGradient id="Degradado_sin_nombre_74-7" x1="1587.31" y1="102.3" x2="1587.31" y2="2404.49" xlink:href="#Degradado_sin_nombre_74"/><linearGradient id="Degradado_sin_nombre_74-8" x1="1277.24" y1="102.3" x2="1277.24" y2="2404.49" xlink:href="#Degradado_sin_nombre_74"/><linearGradient id="Degradado_sin_nombre_74-9" x1="1419.2" y1="102.3" x2="1419.2" y2="2404.49" xlink:href="#Degradado_sin_nombre_74"/><linearGradient id="Degradado_sin_nombre_74-10" x1="1345.85" y1="102.3" x2="1345.85" y2="2404.49" xlink:href="#Degradado_sin_nombre_74"/><linearGradient id="Degradado_sin_nombre_74-11" x1="1111.2" y1="102.3" x2="1111.2" y2="2404.49" xlink:href="#Degradado_sin_nombre_74"/><linearGradient id="Degradado_sin_nombre_74-12" x1="1195.37" y1="102.3" x2="1195.37" y2="2404.49" xlink:href="#Degradado_sin_nombre_74"/><linearGradient id="Degradado_sin_nombre_74-13" x1="904.52" y1="102.3" x2="904.52" y2="2404.56" xlink:href="#Degradado_sin_nombre_74"/><linearGradient id="Degradado_sin_nombre_74-14" x1="993.63" y1="102.3" x2="993.63" y2="2404.49" xlink:href="#Degradado_sin_nombre_74"/><linearGradient id="Degradado_sin_nombre_74-15" x1="707.42" y1="102.3" x2="707.42" y2="2404.49" xlink:href="#Degradado_sin_nombre_74"/><linearGradient id="Degradado_sin_nombre_74-16" x1="813.18" y1="102.3" x2="813.18" y2="2404.49" xlink:href="#Degradado_sin_nombre_74"/><linearGradient id="Degradado_sin_nombre_74-17" x1="508.8" y1="102.3" x2="508.8" y2="2404.49" xlink:href="#Degradado_sin_nombre_74"/><linearGradient id="Degradado_sin_nombre_74-18" x1="595.34" y1="102.3" x2="595.34" y2="2404.49" xlink:href="#Degradado_sin_nombre_74"/><linearGradient id="Degradado_sin_nombre_74-19" x1="316.78" y1="102.3" x2="316.78" y2="2404.49" xlink:href="#Degradado_sin_nombre_74"/><linearGradient id="Degradado_sin_nombre_74-20" x1="413.05" y1="102.3" x2="413.05" y2="2404.49" xlink:href="#Degradado_sin_nombre_74"/><linearGradient id="Degradado_sin_nombre_74-21" x1="95.95" y1="102.3" x2="95.95" y2="2404.49" xlink:href="#Degradado_sin_nombre_74"/><linearGradient id="Degradado_sin_nombre_74-22" x1="192.31" y1="102.3" x2="192.31" y2="2404.49" xlink:href="#Degradado_sin_nombre_74"/><linearGradient id="Degradado_sin_nombre_74-23" x1="-25.54" y1="102.3" x2="-25.54" y2="2404.49" xlink:href="#Degradado_sin_nombre_74"/><linearGradient id="Degradado_sin_nombre_74-24" x1="1016.88" y1="102.3" x2="1016.88" y2="2404.49" xlink:href="#Degradado_sin_nombre_74"/></defs><g class="cls-6"><g id="Capa_1"><g class="cls-14"><g class="cls-21"><g><path class="cls-13" d="M1931.22,2515.6s-62.58-9.74-98.47-70.11c-20.93-35.22-25.83-98.32-22.23-158.72,0,0,89.68,20.65,126.36,96.54,36.67,75.9-5.66,132.28-5.66,132.28Z"/><path class="cls-27" d="M1935.59,2513.48s-29.29-41.12-14.85-95.2c8.43-31.55,41.69-69.48,78.14-101.06,0,0,38.17,62.65,15.3,125.82-22.86,63.18-78.59,70.43-78.59,70.43Z"/><path class="cls-9" d="M1752.39,2506.99s-63.21,4.01-111.29-47.17c-28.05-29.86-46.47-90.41-56.01-150.16,0,0,92.03,.78,144.24,66.95,52.21,66.17,23.06,130.38,23.06,130.38Z"/><path class="cls-26" d="M1689.18,2526.2s-36.75-51.58-18.63-119.43c10.57-39.58,52.3-87.17,98.03-126.79,0,0,47.88,78.59,19.2,157.86-28.68,79.26-98.6,88.36-98.6,88.36Z"/><path class="cls-17" d="M1754.88,2565.24s-36.75-51.58-18.63-119.43c10.57-39.58,52.3-87.17,98.03-126.79,0,0,47.88,78.59,19.2,157.86-28.68,79.26-98.6,88.36-98.6,88.36Z"/><path class="cls-29" d="M1539.67,2538.01s-60.11-2.43-111.75-64.43c-30.12-36.17-54.36-105.33-70-172.62,0,0,88.25,10.88,145.47,89.95,57.22,79.07,36.29,147.1,36.29,147.1Z"/><path class="cls-16" d="M1545.26,2526.2s-36.75-51.58-18.63-119.43c10.57-39.58,52.3-87.17,98.03-126.79,0,0,47.88,78.59,19.2,157.86-28.68,79.26-98.6,88.36-98.6,88.36Z"/><path class="cls-22" d="M1356.83,2540.76s-63.21,4.01-111.29-47.17c-28.05-29.86-46.47-90.41-56.01-150.16,0,0,92.03,.78,144.24,66.95,52.21,66.17,23.06,130.38,23.06,130.38Z"/><path class="cls-8" d="M1403.29,2550.32s-47.48-41.92-45.19-112.11c1.34-40.95,31.21-96.75,66.77-145.69,0,0,64.43,65.71,54.45,149.41-9.99,83.7-76.03,108.4-76.03,108.4Z"/><path class="cls-12" d="M1329.94,2619.89s-47.48-41.92-45.19-112.11c1.34-40.95,31.21-96.75,66.77-145.69,0,0,64.43,65.71,54.45,149.41-9.99,83.7-76.03,108.4-76.03,108.4Z"/><path class="cls-5" d="M1173.59,2492.66s-49.54,3.15-87.23-36.97c-21.99-23.4-36.42-70.86-43.9-117.69,0,0,72.13,.61,113.05,52.48,40.92,51.87,18.08,102.19,18.08,102.19Z"/><path class="cls-11" d="M1141.74,2526.2s-34.23-55.86-9.47-134.95c14.44-46.14,62.27-104.06,113.62-153.21,0,0,43.63,85.8,6.83,178.83-36.8,93.03-110.97,109.34-110.97,109.34Z"/><path class="cls-7" d="M900.8,2487.59s-37.96-27.67-41.12-79.66c-1.85-30.33,16.35-73.6,39.23-112.2,0,0,52.12,44.06,50.54,106.56-1.59,62.49-48.65,85.3-48.65,85.3Z"/><path class="cls-19" d="M993.04,2544.56s-52.57-35.33-59.51-105.21c-4.05-40.77,18.24-100.01,47.08-153.19,0,0,72.5,56.69,73.58,140.97,1.08,84.28-61.15,117.44-61.15,117.44Z"/><path class="cls-25" d="M714.19,2544.61s-54.73-31.88-66.14-101.17c-6.66-40.43,11.78-100.97,37.14-155.9,0,0,75.99,51.91,82.48,135.95,6.49,84.04-53.48,121.12-53.48,121.12Z"/><path class="cls-4" d="M751.2,2494.76s-13.73-48.18,17.75-93.96c18.37-26.7,62.07-51.12,106.65-68.54,0,0,14.87,71.27-27.5,122.75-42.37,51.48-96.9,39.75-96.9,39.75Z"/><path class="cls-28" d="M588.39,2515.44s-63.21,4.01-111.29-47.17c-28.05-29.86-46.47-90.41-56.01-150.16,0,0,92.03,.78,144.24,66.95,52.21,66.17,23.06,130.38,23.06,130.38Z"/><path class="cls-24" d="M553.29,2565.24s-36.75-51.58-18.63-119.43c10.57-39.58,52.3-87.17,98.03-126.79,0,0,47.88,78.59,19.2,157.86-28.68,79.26-98.6,88.36-98.6,88.36Z"/><path class="cls-15" d="M341.46,2539.09s-59.06-22.88-81.23-89.51c-12.93-38.88-4.25-101.57,12.16-159.8,0,0,83.21,39.32,102.84,121.29,19.63,81.97-33.77,128.02-33.77,128.02Z"/><path class="cls-10" d="M439.77,2481.12s-39.81-9.19-60.09-49.71c-11.83-23.64-12.03-64.47-6.9-103.16,0,0,56.74,17.47,76.8,68.02,20.06,50.55-9.82,84.85-9.82,84.85Z"/><path class="cls-23" d="M175.54,2520.04s-63.21,4.01-111.29-47.17c-28.05-29.86-46.47-90.41-56.01-150.16,0,0,92.03,.78,144.24,66.95,52.21,66.17,23.06,130.38,23.06,130.38Z"/><path class="cls-1" d="M150.26,2565.24s-36.75-51.58-18.63-119.43c10.57-39.58,52.3-87.17,98.03-126.79,0,0,47.88,78.59,19.2,157.86-28.68,79.26-98.6,88.36-98.6,88.36Z"/><path class="cls-3" d="M-83.1,2542.81s-33.38-57.3-6.39-140.18c15.74-48.35,65.62-109.75,118.87-162.11,0,0,42.2,88.23,2.66,185.89-39.54,97.66-115.14,116.4-115.14,116.4Z"/></g><rect class="cls-20" x="-444.47" y="-42.19" width="2922.7" height="2463.84"/><path class="cls-2" d="M954.63,954.05s-67.81-95.17-34.37-220.36c19.51-73.03,96.5-160.83,180.87-233.93,0,0,88.34,145.01,35.42,291.26-52.92,146.24-181.93,163.04-181.93,163.04Z"/><path class="cls-2" d="M1413.69,2230.46s-60.11-2.43-111.75-64.43c-30.12-36.17-54.36-105.33-70-172.62,0,0,88.25,10.88,145.47,89.95,57.22,79.07,36.29,147.1,36.29,147.1Z"/><path class="cls-2" d="M1942.23,846.2s-63.21,4.01-111.29-47.17c-28.05-29.86-46.47-90.41-56.01-150.16,0,0,92.03,.78,144.24,66.95,52.21,66.17,23.06,130.38,23.06,130.38Z"/><path class="cls-2" d="M810.57,2105.91s-47.48-41.92-45.19-112.11c1.34-40.95,31.21-96.75,66.77-145.69,0,0,64.43,65.71,54.45,149.41-9.99,83.7-76.03,108.4-76.03,108.4Z"/><path class="cls-2" d="M907.45,1739.67s-.97-90.3,75.52-154.92c44.62-37.7,132.22-59.38,218.01-68.48,0,0-8.01,130.98-106.15,200.35-98.14,69.37-187.37,23.05-187.37,23.05Z"/><path class="cls-2" d="M780.09,973.47s-56.84-27.94-73.12-96.25c-9.5-39.86,4.62-101.55,26.05-158.13,0,0,79.47,46.42,91.87,129.79,12.41,83.37-44.8,124.59-44.8,124.59Z"/><path class="cls-2" d="M863.53,1522.15s-62.21,11.9-116.33-32.85c-31.57-26.11-57.43-83.88-74.38-141.96,0,0,91.4-10.76,151.49,48.35,60.09,59.11,39.22,126.46,39.22,126.46Z"/><path class="cls-2" d="M1123.86,1211.45s-49.54,3.15-87.23-36.97c-21.99-23.4-36.42-70.86-43.9-117.69,0,0,72.13,.61,113.05,52.48,40.92,51.87,18.08,102.19,18.08,102.19Z"/><path class="cls-2" d="M410.12,1190.84s-34.23-55.86-9.47-134.95c14.44-46.14,62.27-104.06,113.62-153.21,0,0,43.63,85.8,6.83,178.83-36.8,93.03-110.97,109.34-110.97,109.34Z"/><path class="cls-2" d="M497.64,1831.69s-37.96-27.67-41.12-79.66c-1.85-30.33,16.35-73.6,39.23-112.2,0,0,52.12,44.06,50.54,106.56-1.59,62.49-48.65,85.3-48.65,85.3Z"/><path class="cls-2" d="M784.62,2300.32s57.74-68.51,157.08-67.55c57.96,.56,137.84,40.98,208.22,89.69,0,0-90.83,93.26-209.53,81.86-118.69-11.4-155.77-104-155.77-104Z"/><path class="cls-2" d="M1582.4,2135.16s101.54-51.21,217.04-.61c67.38,29.52,140.51,116.51,198.4,208.44,0,0-152.51,63.63-285.39-8.81-132.89-72.44-130.05-199.02-130.05-199.02Z"/><path class="cls-2" d="M63.49,2343.43s-69.47-119.09-16.76-262.59c30.75-83.72,130.62-178.62,237.58-255.46,0,0,88.25,179.84,10.4,345.99-77.85,166.15-231.22,172.06-231.22,172.06Z"/><path class="cls-2" d="M603.63,1529.1s-58.43-100.17-14.1-220.87c25.86-70.42,109.87-150.24,199.84-214.88,0,0,74.23,151.27,8.75,291.03-65.48,139.75-194.49,144.72-194.49,144.72Z"/><path class="cls-2" d="M-52.36,1228.16s-58.43-100.17-14.1-220.87c25.86-70.42,109.87-150.24,199.84-214.88,0,0,74.23,151.27,8.75,291.03-65.48,139.75-194.49,144.72-194.49,144.72Z"/><path class="cls-2" d="M1313.6,1848.1s-131.05-42.83-187.02-185.09c-32.65-82.99-21.09-220.28,7.78-348.77,0,0,185.46,75.75,237.69,251.64,52.23,175.89-58.45,282.22-58.45,282.22Z"/><path class="cls-2" d="M1553.46,2234.26s-74.62-261.86,96.48-510.62c99.81-145.13,337.36-277.81,579.63-372.48,0,0,80.82,387.31-149.47,667.09-230.29,279.79-526.63,216.01-526.63,216.01Z"/><path class="cls-2" d="M672.18,2260.49s-95.2,6.05-167.62-71.05c-42.25-44.98-69.99-136.18-84.36-226.16,0,0,138.61,1.17,217.24,100.84,78.64,99.67,34.74,196.37,34.74,196.37Z"/><path class="cls-2" d="M1633.82,541.18s-93.15-130.74-47.21-302.73c26.8-100.33,132.57-220.95,248.48-321.37,0,0,121.36,199.21,48.66,400.11-72.7,200.9-249.93,223.98-249.93,223.98Z"/><path class="cls-2" d="M260.74,814.24s-163.72-63.41-225.18-248.14C-.3,458.33,23.79,284.55,69.28,123.11c0,0,230.66,108.99,285.07,336.23,54.41,227.24-93.61,354.9-93.61,354.9Z"/><path class="cls-2" d="M1562.88,939.31s-61.5-14.19-92.82-76.79c-18.27-36.52-18.59-99.59-10.65-159.36,0,0,87.65,26.99,118.64,105.07,30.98,78.08-15.16,131.08-15.16,131.08Z"/><path class="cls-2" d="M1582.46,1429.1s-101.06-23.32-152.52-126.18c-30.02-60-30.54-163.65-17.51-261.86,0,0,144.04,44.35,194.94,172.65,50.91,128.3-24.92,215.39-24.92,215.39Z"/><path class="cls-2" d="M375.48,1735.49s-232.36,14.76-409.13-173.41c-103.12-109.78-170.83-332.38-205.9-552.02,0,0,338.31,2.86,530.25,246.13,191.93,243.27,84.78,479.3,84.78,479.3Z"/><path class="cls-2" d="M1552.53,1635.54s-98.75-138.6-50.05-320.91c28.41-106.36,140.53-234.22,263.4-340.67,0,0,128.65,211.18,51.59,424.15-77.07,212.97-264.94,237.43-264.94,237.43Z"/><path class="cls-2" d="M1705.37,621.16s-177.3,77.97-408.92-27.67c-135.13-61.63-296.88-226.62-431.28-398.39,0,0,269.95-93.39,540.35,53.54,270.4,146.93,299.86,372.51,299.86,372.51Z"/><path class="cls-2" d="M895.44,574.85s-120.43,110.83-334.51,89.71c-124.89-12.32-299.33-100-453.77-200.57,0,0,190.29-148.49,446.67-104.97,256.37,43.52,341.62,215.83,341.62,215.83Z"/></g></g></g></g></svg>