<?xml version="1.0" encoding="UTF-8"?><svg id="Capa_1" xmlns="http://www.w3.org/2000/svg" viewBox="0 0 417.92 268.03"><defs><style>.cls-1{fill:#fff;}</style></defs><path class="cls-1" d="M416.54,165.99c-.35,.28-.74,.56-1.16,.84-7.74,3.8-14.07,6.68-18.99,8.65-4.93,1.97-9.01,2.95-12.24,2.95-2.67,0-4.93-.74-6.75-2.22-1.83-1.48-3.48-3.69-4.96-6.65-1.48-2.95-3.03-6.61-4.64-10.97-1.62-4.36-3.69-9.42-6.23-15.2-.28-.7-.67-1.48-1.16-2.32-.49-.84-1.09-1.4-1.79-1.69-2.25-.98-4.57-.95-6.96,.11-2.39,1.06-4.36,2.36-5.91,3.9-3.94,3.66-7.07,7.74-9.39,12.24-2.32,4.5-4.61,9.15-6.86,13.93-1.55,3.38-2.67,5.07-3.38,5.07s-.99-1.97-.84-5.91c.14-2.11,.28-4.25,.42-6.44,.14-2.18,.28-4.4,.42-6.65,.42-2.25,.91-4.75,1.48-7.49,.56-2.74,1.12-5.8,1.69-9.18,.28-1.27-.04-2.18-.95-2.74-.92-.56-2.15-.84-3.69-.84-2.11,0-4.29,.49-6.54,1.48-2.25,.99-3.31,2.25-3.17,3.8,.42,5.35,.42,10.8,0,16.36-.28,3.67-.56,7.29-.84,10.87-.43,.2-.88,.4-1.38,.63-2.74,1.27-6.05,2.74-9.92,4.43-3.87,1.69-8.16,3.45-12.87,5.28-4.72,1.83-9.43,3.55-14.14,5.17-4.72,1.62-9.25,2.92-13.61,3.9-4.36,.99-8.16,1.48-11.4,1.48-2.95,0-5.31-.56-7.07-1.69-1.76-1.12-2.64-2.88-2.64-5.28v-.21c0-.84,.07-1.55,.21-2.11l2.32-.63c1.55-.42,3.45-1.27,5.7-2.53,2.25-1.27,4.47-2.74,6.65-4.43,2.18-1.69,4.15-3.55,5.91-5.59,1.76-2.04,2.99-3.97,3.69-5.8,.98-1.4,1.79-2.92,2.43-4.54,.63-1.62,1.09-2.99,1.37-4.12,1.27-4.08,1.34-7.42,.21-10.02-1.13-2.6-3.17-3.9-6.12-3.9-1.97,0-4.29,.71-6.97,2.11-3.24,1.69-6.58,4.4-10.02,8.13-3.45,3.73-6.47,7.88-9.08,12.45-1.88,3.3-3.41,6.66-4.59,10.08-.92,.78-1.78,1.58-2.58,2.38-1.62,1.62-3.55,3.2-5.8,4.75-4.08,2.67-7.95,4.01-11.61,4.01s-7.25-1.19-10.34-3.59c-3.1-2.39-5.91-5.41-8.44-9.08-2.53-3.66-4.89-7.6-7.07-11.82-2.18-4.22-4.19-8.23-6.01-12.03l-.21-.42c-.42-.98-.88-2.22-1.37-3.69-.49-1.48-1.23-2.43-2.22-2.85-2.25-.98-4.57-.95-6.96,.11-2.39,1.06-4.36,2.36-5.91,3.9-4.08,3.66-7.25,7.74-9.5,12.24-2.25,4.5-4.5,9.15-6.75,13.93-1.55,3.38-2.71,5.1-3.48,5.17-.77,.07-1.02-1.93-.74-6.02,.14-2.25,.28-4.5,.42-6.75,.14-2.25,.28-4.57,.42-6.96,.42-8.16,.77-15.09,1.06-20.79,.28-5.7,.56-10.76,.84-15.2,.28-4.43,.63-8.58,1.06-12.45,.42-3.87,.98-8.02,1.69-12.45,.7-4.43,1.62-9.46,2.74-15.09,1.12-5.63,2.46-12.45,4.01-20.47,.28-1.12,.49-2.6,.63-4.43,.14-1.83-.07-3.24-.63-4.22-.42-.7-1.44-.88-3.06-.53-1.62,.35-2.71,.67-3.27,.95-3.24,1.27-6.01,2.85-8.34,4.75-2.32,1.9-3.83,4.61-4.54,8.13-.42,1.97-.6,4.05-.53,6.23,.07,2.18,.11,4.33,.11,6.44v20.58c0,5.7-.07,10.84-.21,15.41-.14,4.57-.32,8.83-.53,12.77-.21,3.94-.49,8.2-.84,12.77-.35,4.57-.74,9.71-1.16,15.41-.42,5.7-.92,12.56-1.48,20.58-.28,2.95-.56,5.91-.84,8.86-.28,2.95-.56,5.91-.84,8.86-.28,2.39-.03,4.54,.74,6.44,.77,1.9,2.64,2.85,5.59,2.85,2.53-.14,4.29-1.06,5.28-2.74,.98-1.69,1.83-3.52,2.53-5.49,.42-1.12,1.12-2.92,2.11-5.38,.98-2.46,2.07-5.13,3.27-8.02,1.19-2.88,2.5-5.84,3.9-8.86,1.4-3.02,2.78-5.8,4.12-8.34,1.34-2.53,2.6-4.61,3.8-6.23,1.19-1.62,2.22-2.43,3.06-2.43,.56,0,1.02,.42,1.37,1.27,.35,.84,.6,1.48,.74,1.9,1.12,4.22,2.67,8.37,4.64,12.45,1.97,4.08,4.43,7.78,7.39,11.08,2.95,3.31,6.36,5.98,10.24,8.02,3.87,2.04,8.19,3.06,12.98,3.06,5.49,0,11.11-1.44,16.88-4.33,4.05-2.02,8-4.66,11.84-7.9-.64,3.67-.51,6.97,.4,9.91,1.41,4.36,4.12,7.25,8.13,8.65,4.01,1.41,8.05,1.9,12.14,1.48,5.07-.42,10.37-1.51,15.93-3.27,5.56-1.76,11.01-3.87,16.36-6.33,5.35-2.46,10.34-5.03,14.98-7.7,4.64-2.67,8.65-5.07,12.03-7.18,1.08-.75,2.06-1.44,2.94-2.08-.07,.84-.13,1.67-.2,2.5-.28,2.95-.56,5.91-.84,8.86-.28,2.95-.49,5.91-.63,8.86-.28,2.39-.04,4.54,.74,6.44,.77,1.9,2.57,2.85,5.38,2.85,2.53-.14,4.29-1.06,5.28-2.74,.98-1.69,1.83-3.52,2.53-5.49,.42-1.12,1.12-2.92,2.11-5.38,.98-2.46,2.07-5.13,3.27-8.02,1.19-2.88,2.5-5.84,3.9-8.86,1.41-3.02,2.78-5.8,4.12-8.34,1.34-2.53,2.6-4.61,3.8-6.23,1.19-1.62,2.22-2.43,3.06-2.43,.56,0,1.02,.42,1.37,1.27,.35,.84,.6,1.48,.74,1.9,.84,3.38,2.07,7.04,3.69,10.97,1.62,3.94,3.59,7.63,5.91,11.08,2.32,3.45,5.03,6.4,8.13,8.86,3.09,2.46,6.54,3.9,10.34,4.33,3.09,.28,6.36-.21,9.81-1.48,3.45-1.27,6.82-2.92,10.13-4.96,3.3-2.04,6.44-4.25,9.39-6.65,2.95-2.39,5.49-4.64,7.6-6.75,.14-.14,.45-.49,.95-1.06,.49-.56,1.02-1.16,1.58-1.79,.56-.63,1.02-1.23,1.37-1.79,.35-.56,.53-.98,.53-1.27-.56,0-1.02,.14-1.37,.42Zm-167.15,.63c2.18-2.39,4.12-4.15,5.8-5.28,1.27-.84,2.14-1.3,2.64-1.37,.49-.07,.88,.18,1.16,.74-1.27,2.82-3.34,5.38-6.23,7.7-2.89,2.32-5.88,4.26-8.97,5.8,1.55-2.67,3.41-5.2,5.59-7.6Z"/><path class="cls-1" d="M112.36,40.67c-7.5-8.73-3.41-11.84-6.55-20.25-3.14-8.41-10.75-9.25-10.75-9.25,0,0,7.64,2.74,10,9.51,2.36,6.76-.44,9.83,4.22,17.04,4.65,7.21,10.11,8.89,11.4,11.26,1.29,2.37-.44,4.03-2.03,2.9-1.59-1.13-3.34-.51-3.34-.51l-5.19-5.77c.04-5.34-1.76-6.02-1.76-6.02l-9.19-7.28-.04-.34s.09-3.01-3.79-5.31c-3.88-2.3-7.83-5.29-11.13-10.37C80.9,11.18,79.29-.31,77.42,0c-1.87,.31-.35,9.27,4.65,17.86,0,0-3.18-1.63-4.12-2.91-.94-1.29-2.06-.94-2.58-.42-.52,.52-.6,1.45,2.31,3.33,2.91,1.89,8.21,5.08,9.9,6.34,1.56,1.17,3.31,3.21,3.45,5.02-.47,0-.94,.01-1.4,.04-.77-1.07-4.6-4.23-9.01-5.92,0,0,.57,1.26,1,2.57-3.15-1.67-6.7-3.88-9.42-6.5-6.23-5.98-12.68-17.42-13.95-16.88-1.27,.54-.38,3.5,.53,5.08,.92,1.58,10.08,12.44,10.08,12.44,0,0-4.69-1.77-5.97-3.01-1.28-1.25-2.65-.52-2.95-.03-.29,.49-.18,1.58,1.65,2.54,1.04,.55,4.59,1.92,7.45,3,.34,.33,1.04,1.19,.9,2.64,0,0-4.58-4.13-13.42-5.79,0,0,2.42,2.19,2.42,4.2,0,0-8.33-3.75-17.17-4.71,0,0,4.08,2.76,4.21,4.51,0,0-12.67-1.9-23.74,2.36,0,0,6.1,1,7.05,2.14,0,0-12.52,2.34-18.75,9.06,0,0,4.32-.01,5.79,1.32,0,0-11.32,6.49-13.61,12.21,0,0,5.66-.89,6.11,.89,0,0-4.2,4.04-5.66,8.32,0,0,.83-.94,2.99-.43,0,0-2.61,2.29-3.43,11.19l1.45-.72s.14,4.92,.46,7.66l1.26-1.43c.81,5.08,2.9,9.95,6.52,14.37,7.78,9.42,19.19,14.73,29.8,19.82,7.74,3.6,15.15,6.9,21.82,10.31,8.19,4.3,14.15,7.77,19.03,13.52,1.46,1.87,2.64,3.81,3.42,6.03,.66,1.82,1.03,3.7,1.21,5.65,.64,7.83-1,16.45-4.94,23.22-5.04,8.83-13.67,15.45-23.15,19.11-9.74,3.62-21.28,4.48-31.49,2.46-1.25-.29-2.36-.57-3.38-.92,1.1-.86,2.38-1.69,3.71-2.48,3.29-1.95,6.93-3.72,10.55-5.18,3.66-1.45,7.49-2.5,11.42-3.1,3.97-.63,8.08-.81,12.25-.62-7.79-2.97-16.59-4.02-25.34-2.79-7.23,1.11-19.1,3.73-24.13,9.32-3.28,3.63-3.16,8.59-.26,12.27,4.28,5.27,11.23,7.77,17.32,9.59,26.05,7.43,55.36-.33,72.27-22.13,10.87-13.74,15.85-34.19,11.81-51.44-4.4-18.48-19.36-30.33-36.23-36.76-14.77-5.96-29.59-7.6-43.62-13.65-3.85-1.84-7.58-3.9-9.7-7.56-.55-.96-.9-2-1.1-3.09,2.25,3.39,4.43,6.25,5.58,6.62,2.59,.83,20.33-8.28,24.97-10.69,.73-.38,1.55-.53,2.36-.44l4.35,.49-1.08,2.44c-.24,.54-.05,1.18,.46,1.5l2.23,1.42c.26-1.15-1.32-2.17-1.32-2.17l.81-1.69,.65-.42,4.18,5.02c.23,.27,.27,.66,.11,.98-.11,.2-.29,.36-.51,.43l-1.11,.37,1.34,.36c.45,.12,.93-.09,1.14-.51l.48-.94c.15-.29,.14-.64-.01-.93l-1.56-2.87,4.17,2.67c.27,.17,.47,.44,.56,.75,.1,.35,.05,.73-.14,1.05l-.69,1.17,.92-.24c.81-.22,1.4-.92,1.48-1.75l.04-.42c.04-.46-.12-.91-.45-1.23l-4.07-4.02,2.82-.05c.13,0,.26,.05,.35,.13,.17,.16,.22,.41,.11,.62l-.56,1.08,.48-.13c.64-.17,1.11-.71,1.19-1.36l.06-.48c.07-.56-.28-1.08-.82-1.23-2.02-.56-6.6-1.82-6.67-1.83-.08,0-1.92-.96-2.38-1.2v-.02s-.05,0-.05,0c-.03-.02-.06-.03-.06-.03v.02s-7.48-.8-7.48-.8c-.51-.05-1.02-.02-1.52,.12-3.53,.95-18.49,5-21.73,6.55-.11-.61-.95-2.96-1.99-5.73,3.66-.79,15.4-7.66,18.69-9.6,.57-.34,1.22-.49,1.87-.46l4.02,.23-.51,2.28c-.1,.47,.15,.94,.59,1.11l1.98,.76c.03-.95-1.38-1.5-1.38-1.5l.37-1.45,.44-.43,4.07,3.29c.22,.18,.32,.48,.24,.75-.05,.18-.17,.33-.33,.42l-.81,.47,1.11,.07c.38,.03,.72-.22,.82-.58l.23-.82c.07-.25,.01-.53-.16-.73l-1.68-2.01,3.69,1.45c.24,.09,.44,.27,.56,.5,.14,.26,.16,.57,.06,.85l-.36,1.03,.68-.34c.6-.3,.96-.94,.89-1.61l-.04-.34c-.04-.37-.24-.7-.55-.9l-3.83-2.53,2.21-.48c.1-.02,.21,0,.3,.05,.16,.1,.24,.29,.18,.47l-.28,.93,.36-.18c.47-.23,.76-.73,.72-1.26l-.03-.38c-.03-.45-.39-.8-.83-.84-1.68-.12-5.48-.4-5.53-.4-.07,0-1.84-.51-2.11-.59v-.02s-6.11-.32-6.11-.32c-.41-.02-.82,.03-1.21,.16-2.79,.91-14.59,4.81-17.12,6.19-.18-.79-.49-4.98-.71-8.41,3.82-4.91,9.09-8.53,16.04-10.14,11.58-2.69,24.57-.49,36.04,3.52,3.21,4.66,7.82,8.23,13.16,10.29,8.62,3.32,13.5,5.61,13.5,5.61-.35,.5-4.21,1.07-4.21,1.07,0,0,2,2.05,4.3,2.03,2.31-.01,6.74-2.3,9.7-4.08,2.96-1.78-.28-4.56-.28-4.56,.44,0,.82-.05,1.14-.12,1-.24,1.7-1.16,1.73-2.19,.15-5.07-2.57-1.98-9.58-10.14ZM22.49,191.98s-.03,.01-.05,.01c-.03,0-.02-.02-.01-.04,0,0,0-.08,0-.08,.12-.22,.27-.43,.45-.64-.02,.08-.05,.16-.08,.24-.06,.18-.16,.39-.31,.51ZM106.4,44.73s-2.65,.63-4.93-5.71c0,0,3.36,.11,4.54,2.06,1.19,1.95,.38,3.65,.38,3.65Z"/><path class="cls-1" d="M112.1,216.18c-.61,3.51-1.43,6.99-2.51,10.37-3.97,12.44-11.57,24.4-23.1,30.92-14.12,8.02-31.99,7.96-46.78,1.69-8.36-3.66-15.61-9.66-20.96-17.05-7.36-9.95-10.7-22.59-9.51-34.84,16.72,10.51,37,15.06,56.68,13.73,9.32-.64,18.61-2.47,27.3-5.99,6.18-2.54,13.63-5.36,17.86-10.89,4.75-6.44,1.21-13.39-5.19-16.73-1.92-1.02-3.87,1.37-2.46,3.04,1.73,2.13,4.08,4.79,3.35,7.55-2,5.22-12.76,8.94-17.94,10.96-26.25,9.14-56.64,5.75-80.21-9.02-1.66-1.17-4.13-.12-4.44,1.9-1.29,7.57-1.05,15.34,.73,22.78,1.77,7.44,5.14,14.49,9.71,20.55,5.96,7.98,14.01,14.45,23.22,18.31,15.24,6.2,33.31,6.36,48.1-1.22,10.2-5.04,17.96-14.21,22.86-24.27,3.27-6.7,5.38-13.92,6.56-21.25,.28-2.18-2.85-2.67-3.27-.54Z"/><path class="cls-1" d="M62.07,171.07c6.25-2.75,11.45-8.4,12.97-15.21,.87-4.18,.74-8.47-.29-12.68-2.77-11.35-13.61-18.56-23.77-22.56-3.81-1.51-7.66-2.74-11.61-3.75-3.65-.9-7.75-1.89-11.32-3-9.51-2.98-19.71-7.11-24.82-16.17-1.28-2.23-2.22-4.71-3.23-7.17,.66,5.4,2.19,10.79,5.77,15.06,7.03,8.46,18.04,12.68,28.3,15.71,10.64,2.98,22.42,6.49,30.55,14.28,2.56,2.49,4.58,5.52,5.74,8.9,1.15,3.36,1.66,7.21,1.36,10.82-.62,6.32-4.66,11.95-9.65,15.77Z"/><path class="cls-1" d="M119.9,137.92c.16,8.54,.05,17.17-1.63,25.55-1.48,6.46-4.42,12.49-8.24,17.91,4.45-3.83,7.71-9,9.64-14.53,1.91-5.57,2.24-11.61,2-17.44-.21-3.88-.7-7.75-1.77-11.49Z"/></svg>