<?xml version="1.0" encoding="UTF-8"?><svg id="Capa_1" xmlns="http://www.w3.org/2000/svg" xmlns:xlink="http://www.w3.org/1999/xlink" viewBox="0 0 138.63 142.64"><defs><style>.cls-1{fill:url(#Degradado_sin_nombre_17);}</style><linearGradient id="Degradado_sin_nombre_17" x1="111.35" y1="11.24" x2="23.35" y2="141.24" gradientUnits="userSpaceOnUse"><stop offset="0" stop-color="#f6f6f7"/><stop offset="1" stop-color="#fff"/></linearGradient></defs><path class="cls-1" d="M69.31,4.01C31.03,4.01,0,35.04,0,73.33s31.03,69.31,69.31,69.31,69.32-31.03,69.32-69.31S107.6,4.01,69.31,4.01Zm42.51,49.19c-2.85,2.86-4.19,3.52-4.19,3.52l-.04-.05c-.77,24.06-16.85,48.55-45.35,50.05-10.74,.56-20.62-3.81-28.31-10.14,2.76,.83,5.68,1.28,8.69,1.28,5.82,0,11.25-2.19,15.92-5.79,0,0-15.96-4.4-15.53-11.8l7.62-.22s-4.88-1.51-7.55-3.92c-4.58-4.13-7.23-9.88-5.91-13.1,0,0,.84,.74,3.06,1.49,2.22,.75,4.34,.71,4.34,.71,0,0-4.74-3.37-6.12-7.12-2.16-5.86-1.06-13.34,1.07-15.6,0,0,.85,4.75,14.39,11.61,6.86,3.48,14.57,5.94,20.59,6.11-.47-1.36-.69-4.08-.69-5.58,0-8.16,7.57-14.78,16.91-14.78,5.25,0,9.94,2.09,13.04,5.37l4.49-2.03,5.37-2.28s0,0,0,0c0,0,0,0,0,0,0,0,0,0,0,0,0,.03,.28,.32,.04,1.14-.55,1.91-4.76,6.01-6.42,7.34l-.06,.34s1.41,.08,3.2-.42c1.79-.49,6.06-2.35,6.06-2.35,0,0-1.78,3.34-4.63,6.19Z"/></svg>