<?xml version="1.0" encoding="UTF-8"?><svg id="Capa_1" xmlns="http://www.w3.org/2000/svg" xmlns:xlink="http://www.w3.org/1999/xlink" viewBox="0 0 1920 806.97"><defs><style>.cls-1{fill:url(#Degradado_sin_nombre_197-10);}.cls-2{fill:url(#Degradado_sin_nombre_197-7);}.cls-3{fill:url(#Degradado_sin_nombre_197-3);}.cls-4{fill:url(#Degradado_sin_nombre_197-9);}.cls-5{fill:url(#Degradado_sin_nombre_197-14);}.cls-6{fill:url(#Degradado_sin_nombre_197-13);}.cls-7{fill:url(#Degradado_sin_nombre_197-4);}.cls-8{fill:url(#Degradado_sin_nombre_197-20);}.cls-9{fill:url(#Degradado_sin_nombre_197-12);}.cls-10{fill:url(#Degradado_sin_nombre_197-8);}.cls-11{fill:url(#Degradado_sin_nombre_197-15);}.cls-12{fill:url(#Degradado_sin_nombre_197-11);}.cls-13{fill:url(#Degradado_sin_nombre_197-22);}.cls-14{fill:url(#Degradado_sin_nombre_197-19);}.cls-15{fill:url(#Degradado_sin_nombre_197-18);}.cls-16{fill:url(#Degradado_sin_nombre_197-6);}.cls-17{fill:url(#Degradado_sin_nombre_197-21);}.cls-18{clip-path:url(#clippath);}.cls-19{fill:none;}.cls-20{filter:url(#drop-shadow-9);}.cls-21{fill:url(#Degradado_sin_nombre_197-5);}.cls-22{fill:url(#Degradado_sin_nombre_197-17);}.cls-23{fill:url(#Degradado_sin_nombre_197-2);}.cls-24{fill:url(#Degradado_sin_nombre_197);}.cls-25{fill:url(#Degradado_sin_nombre_197-23);}.cls-26{fill:url(#Degradado_sin_nombre_197-16);}</style><clipPath id="clippath"><rect class="cls-19" width="1920" height="806.97"/></clipPath><filter id="drop-shadow-9" filterUnits="userSpaceOnUse"><feOffset dx="7" dy="-12"/><feGaussianBlur result="blur" stdDeviation="12"/><feFlood flood-color="#000" flood-opacity=".4"/><feComposite in2="blur" operator="in"/><feComposite in="SourceGraphic"/></filter><linearGradient id="Degradado_sin_nombre_197" x1="930.67" y1="843.33" x2="930.67" y2="141.39" gradientUnits="userSpaceOnUse"><stop offset="0" stop-color="#0c2a03"/><stop offset="1" stop-color="#005008"/></linearGradient><linearGradient id="Degradado_sin_nombre_197-2" x1="1797.44" y1="843.33" x2="1797.44" y2="141.39" xlink:href="#Degradado_sin_nombre_197"/><linearGradient id="Degradado_sin_nombre_197-3" x1="1885.92" y1="843.33" x2="1885.92" y2="141.39" xlink:href="#Degradado_sin_nombre_197"/><linearGradient id="Degradado_sin_nombre_197-4" x1="1589.6" y1="843.33" x2="1589.6" y2="141.39" xlink:href="#Degradado_sin_nombre_197"/><linearGradient id="Degradado_sin_nombre_197-5" x1="1648.04" y1="843.33" x2="1648.04" y2="141.39" xlink:href="#Degradado_sin_nombre_197"/><linearGradient id="Degradado_sin_nombre_197-6" x1="1713.74" y1="843.33" x2="1713.74" y2="141.39" xlink:href="#Degradado_sin_nombre_197"/><linearGradient id="Degradado_sin_nombre_197-7" x1="1367.46" y1="843.33" x2="1367.46" y2="141.39" xlink:href="#Degradado_sin_nombre_197"/><linearGradient id="Degradado_sin_nombre_197-8" x1="1504.12" y1="843.33" x2="1504.12" y2="141.39" xlink:href="#Degradado_sin_nombre_197"/><linearGradient id="Degradado_sin_nombre_197-9" x1="1194.04" y1="843.33" x2="1194.04" y2="141.39" xlink:href="#Degradado_sin_nombre_197"/><linearGradient id="Degradado_sin_nombre_197-10" x1="1336" y1="843.33" x2="1336" y2="141.39" xlink:href="#Degradado_sin_nombre_197"/><linearGradient id="Degradado_sin_nombre_197-11" x1="1262.65" y1="843.33" x2="1262.65" y2="141.39" xlink:href="#Degradado_sin_nombre_197"/><linearGradient id="Degradado_sin_nombre_197-12" x1="1028.01" y1="843.33" x2="1028.01" y2="141.39" xlink:href="#Degradado_sin_nombre_197"/><linearGradient id="Degradado_sin_nombre_197-13" x1="1112.18" y1="843.33" x2="1112.18" y2="141.39" xlink:href="#Degradado_sin_nombre_197"/><linearGradient id="Degradado_sin_nombre_197-14" x1="821.32" y1="843.33" x2="821.32" y2="141.39" xlink:href="#Degradado_sin_nombre_197"/><linearGradient id="Degradado_sin_nombre_197-15" x1="910.44" y1="843.33" x2="910.44" y2="141.39" xlink:href="#Degradado_sin_nombre_197"/><linearGradient id="Degradado_sin_nombre_197-16" x1="624.22" y1="843.33" x2="624.22" y2="141.39" xlink:href="#Degradado_sin_nombre_197"/><linearGradient id="Degradado_sin_nombre_197-17" x1="729.98" y1="843.33" x2="729.98" y2="141.39" xlink:href="#Degradado_sin_nombre_197"/><linearGradient id="Degradado_sin_nombre_197-18" x1="425.6" y1="843.33" x2="425.6" y2="141.39" xlink:href="#Degradado_sin_nombre_197"/><linearGradient id="Degradado_sin_nombre_197-19" x1="512.14" y1="843.33" x2="512.14" y2="141.39" xlink:href="#Degradado_sin_nombre_197"/><linearGradient id="Degradado_sin_nombre_197-20" x1="233.58" y1="843.33" x2="233.58" y2="141.39" xlink:href="#Degradado_sin_nombre_197"/><linearGradient id="Degradado_sin_nombre_197-21" x1="329.85" y1="843.33" x2="329.85" y2="141.39" xlink:href="#Degradado_sin_nombre_197"/><linearGradient id="Degradado_sin_nombre_197-22" x1="12.75" y1="843.33" x2="12.75" y2="141.39" xlink:href="#Degradado_sin_nombre_197"/><linearGradient id="Degradado_sin_nombre_197-23" x1="109.11" y1="843.33" x2="109.11" y2="141.39" xlink:href="#Degradado_sin_nombre_197"/></defs><g class="cls-18"><g class="cls-20"><rect class="cls-24" x="-136.5" y="245.76" width="2134.34" height="578.32"/><g><path class="cls-23" d="M1848.03,343.2s-62.58-9.74-98.47-70.11c-20.93-35.22-25.83-98.32-22.23-158.72,0,0,89.68,20.65,126.36,96.54,36.67,75.9-5.66,132.28-5.66,132.28Z"/><path class="cls-3" d="M1852.4,341.08s-29.29-41.12-14.85-95.2c8.43-31.55,41.69-69.48,78.14-101.06,0,0,38.17,62.65,15.3,125.82-22.86,63.18-78.59,70.43-78.59,70.43Z"/><path class="cls-7" d="M1669.19,334.59s-63.21,4.01-111.29-47.17c-28.05-29.86-46.47-90.41-56.01-150.16,0,0,92.03,.78,144.24,66.95,52.21,66.17,23.06,130.38,23.06,130.38Z"/><path class="cls-21" d="M1605.98,353.81s-36.75-51.58-18.63-119.43c10.57-39.58,52.3-87.17,98.03-126.79,0,0,47.88,78.59,19.2,157.86-28.68,79.26-98.6,88.36-98.6,88.36Z"/><path class="cls-16" d="M1671.68,392.84s-36.75-51.58-18.63-119.43c10.57-39.58,52.3-87.17,98.03-126.79,0,0,47.88,78.59,19.2,157.86-28.68,79.26-98.6,88.36-98.6,88.36Z"/><path class="cls-2" d="M1456.47,365.61s-60.11-2.43-111.75-64.43c-30.12-36.17-54.36-105.33-70-172.62,0,0,88.25,10.88,145.47,89.95,57.22,79.07,36.29,147.1,36.29,147.1Z"/><path class="cls-10" d="M1462.06,353.81s-36.75-51.58-18.63-119.43c10.57-39.58,52.3-87.17,98.03-126.79,0,0,47.88,78.59,19.2,157.86-28.68,79.26-98.6,88.36-98.6,88.36Z"/><path class="cls-4" d="M1273.64,368.36s-63.21,4.01-111.29-47.17c-28.05-29.86-46.47-90.41-56.01-150.16,0,0,92.03,.78,144.24,66.95,52.21,66.17,23.06,130.38,23.06,130.38Z"/><path class="cls-1" d="M1320.09,377.92s-47.48-41.92-45.19-112.11c1.34-40.95,31.21-96.75,66.77-145.69,0,0,64.43,65.71,54.45,149.41-9.99,83.7-76.03,108.4-76.03,108.4Z"/><path class="cls-12" d="M1246.74,447.49s-47.48-41.92-45.19-112.11c1.34-40.95,31.21-96.75,66.77-145.69,0,0,64.43,65.71,54.45,149.41-9.99,83.7-76.03,108.4-76.03,108.4Z"/><path class="cls-9" d="M1090.39,320.26s-49.54,3.15-87.23-36.97c-21.99-23.4-36.42-70.86-43.9-117.69,0,0,72.13,.61,113.05,52.48,40.92,51.87,18.08,102.19,18.08,102.19Z"/><path class="cls-6" d="M1058.54,353.81s-34.23-55.86-9.47-134.95c14.44-46.14,62.27-104.06,113.62-153.21,0,0,43.63,85.8,6.83,178.83-36.8,93.03-110.97,109.34-110.97,109.34Z"/><path class="cls-5" d="M817.6,315.19s-37.96-27.67-41.12-79.66c-1.85-30.33,16.35-73.6,39.23-112.2,0,0,52.12,44.06,50.54,106.56-1.59,62.49-48.65,85.3-48.65,85.3Z"/><path class="cls-11" d="M909.85,372.16s-52.57-35.33-59.51-105.21c-4.05-40.77,18.24-100.01,47.08-153.19,0,0,72.5,56.69,73.58,140.97,1.08,84.28-61.15,117.44-61.15,117.44Z"/><path class="cls-26" d="M631,372.21s-54.73-31.88-66.14-101.17c-6.66-40.43,11.78-100.97,37.14-155.9,0,0,75.99,51.91,82.48,135.95,6.49,84.04-53.48,121.12-53.48,121.12Z"/><path class="cls-22" d="M668.01,322.36s-13.73-48.18,17.75-93.96c18.37-26.7,62.07-51.12,106.65-68.54,0,0,14.87,71.27-27.5,122.75-42.37,51.48-96.9,39.75-96.9,39.75Z"/><path class="cls-15" d="M505.2,343.04s-63.21,4.01-111.29-47.17c-28.05-29.86-46.47-90.41-56.01-150.16,0,0,92.03,.78,144.24,66.95,52.21,66.17,23.06,130.38,23.06,130.38Z"/><path class="cls-14" d="M470.09,392.84s-36.75-51.58-18.63-119.43c10.57-39.58,52.3-87.17,98.03-126.79,0,0,47.88,78.59,19.2,157.86-28.68,79.26-98.6,88.36-98.6,88.36Z"/><path class="cls-8" d="M258.27,366.69s-59.06-22.88-81.23-89.51c-12.93-38.88-4.25-101.57,12.16-159.8,0,0,83.21,39.32,102.84,121.29,19.63,81.97-33.77,128.02-33.77,128.02Z"/><path class="cls-17" d="M356.57,308.72s-39.81-9.19-60.09-49.71c-11.83-23.64-12.03-64.47-6.9-103.16,0,0,56.74,17.47,76.8,68.02,20.06,50.55-9.82,84.85-9.82,84.85Z"/><path class="cls-13" d="M92.35,347.64s-63.21,4.01-111.29-47.17c-28.05-29.86-46.47-90.41-56.01-150.16,0,0,92.03,.78,144.24,66.95,52.21,66.17,23.06,130.38,23.06,130.38Z"/><path class="cls-25" d="M67.06,392.84s-36.75-51.58-18.63-119.43c10.57-39.58,52.3-87.17,98.03-126.79,0,0,47.88,78.59,19.2,157.86-28.68,79.26-98.6,88.36-98.6,88.36Z"/></g></g></g></svg>