<?xml version="1.0" encoding="UTF-8"?><svg id="Capa_1" xmlns="http://www.w3.org/2000/svg" xmlns:xlink="http://www.w3.org/1999/xlink" viewBox="0 0 1922.43 1395.64"><defs><style>.cls-1{fill:#ffb900;}.cls-2{clip-path:url(#clippath);}.cls-3{fill:none;}.cls-4{filter:url(#drop-shadow-9);}</style><clipPath id="clippath"><rect class="cls-3" width="1920" height="1395.64"/></clipPath><filter id="drop-shadow-9" filterUnits="userSpaceOnUse"><feOffset dx="7" dy="12"/><feGaussianBlur result="blur" stdDeviation="12"/><feFlood flood-color="#000" flood-opacity=".4"/><feComposite in2="blur" operator="in"/><feComposite in="SourceGraphic"/></filter></defs><g class="cls-2"><g class="cls-4"><g><polygon class="cls-1" points="-258.65 1032.89 2336.94 1259.97 2315.44 2.43 -177.4 0 -258.65 1032.89"/><g><path class="cls-1" d="M3.12,1028.03s20.43,.49,34.45,18.29c8.18,10.39,12.39,30.37,13.78,49.84,0,0-29.56-2.84-44.48-25.58-14.92-22.74-3.75-42.56-3.75-42.56Z"/><path class="cls-1" d="M17.4,1029.13s-.52,20.43-18.35,34.42c-10.4,8.16-30.39,12.35-49.87,13.7,0,0,2.89-29.56,25.65-44.44,22.76-14.89,42.57-3.68,42.57-3.68Z"/><path class="cls-1" d="M1.17,1032s12.04,9.4,12.51,26.34c.27,9.88-6.1,23.75-13.96,36.05,0,0-16.47-14.88-15.29-35.18,1.19-20.3,16.73-27.21,16.73-27.21Z"/><path class="cls-1" d="M88.6,1028.52s18.54,8.6,24.28,30.53c3.35,12.79-.76,32.79-7.27,51.2,0,0-25.97-14.4-30.57-41.21-4.6-26.81,13.56-40.52,13.56-40.52Z"/><path class="cls-1" d="M86.39,1004.02s10.36,17.61,2.63,38.92c-4.51,12.43-19.26,26.55-35.08,38,0,0-13.18-26.61-1.73-51.28s34.18-25.63,34.18-25.63Z"/><path class="cls-1" d="M145.23,1037.67s19.84,4.89,29.68,25.31c5.74,11.91,5.54,32.33,2.68,51.65,0,0-28.25-9.16-37.9-34.59-9.65-25.43,5.54-42.36,5.54-42.36Z"/><path class="cls-1" d="M143.76,1038.23s8.26,14.04,2.1,31.02c-3.6,9.91-15.36,21.16-27.96,30.29,0,0-10.51-21.21-1.38-40.88,9.13-19.67,27.25-20.43,27.25-20.43Z"/><path class="cls-1" d="M202.47,1045.47s20.43,.49,34.45,18.29c8.18,10.39,12.39,30.37,13.78,49.84,0,0-29.56-2.84-44.48-25.58-14.92-22.74-3.75-42.56-3.75-42.56Z"/><path class="cls-1" d="M223.33,1041.07s10.36,17.61,2.63,38.92c-4.51,12.43-19.26,26.55-35.08,38,0,0-13.18-26.61-1.73-51.28s34.18-25.63,34.18-25.63Z"/><path class="cls-1" d="M203.31,1026.67s10.36,17.61,2.63,38.92c-4.51,12.43-19.26,26.55-35.08,38,0,0-13.18-26.61-1.73-51.28,11.45-24.67,34.18-25.63,34.18-25.63Z"/><path class="cls-1" d="M271.73,1041.48s19.26,2.47,34.11,23.85c8.67,12.47,14.51,35.39,17.65,57.46,0,0-28.06-5.98-44.23-33.01-16.17-27.03-7.53-48.31-7.53-48.31Z"/><path class="cls-1" d="M269.6,1045.12s10.36,17.61,2.63,38.92c-4.51,12.43-19.26,26.55-35.08,38,0,0-13.18-26.61-1.73-51.28s34.18-25.63,34.18-25.63Z"/><path class="cls-1" d="M330.58,1045.74s20.43,.49,34.45,18.29c8.18,10.39,12.39,30.37,13.78,49.84,0,0-29.56-2.84-44.48-25.58-14.92-22.74-3.75-42.56-3.75-42.56Z"/><path class="cls-1" d="M315.91,1041.36s14.08,14.81,11.37,37.31c-1.58,13.13-12.75,30.22-25.56,44.96,0,0-18.86-22.94-13.3-49.56,5.56-26.62,27.49-32.71,27.49-32.71Z"/><path class="cls-1" d="M341.45,1021.05s14.08,14.81,11.37,37.31c-1.58,13.13-12.75,30.22-25.56,44.96,0,0-18.86-22.94-13.3-49.56,5.56-26.62,27.49-32.71,27.49-32.71Z"/><path class="cls-1" d="M388.13,1066.35s16.01,.38,27,14.34c6.41,8.14,9.71,23.8,10.8,39.07,0,0-23.17-2.22-34.86-20.05-11.7-17.82-2.94-33.36-2.94-33.36Z"/><path class="cls-1" d="M399.31,1056.46s9.43,18.92-.75,43.65c-5.94,14.43-22.94,31.7-40.83,46.05,0,0-11.61-28.81,2.83-57.68,14.45-28.87,38.75-32.03,38.75-32.03Z"/><path class="cls-1" d="M475.67,1075.65s11.42,9.96,10.98,26.76c-.26,9.8-7.33,23.2-15.77,34.96,0,0-15.52-15.63-13.25-35.67,2.27-20.04,18.04-26.05,18.04-26.05Z"/><path class="cls-1" d="M447.62,1054.75s15.9,12.83,16.17,35.5c.16,13.22-8.68,31.63-19.44,47.92,0,0-21.71-20.26-19.69-47.39,2.02-27.12,22.96-36.03,22.96-36.03Z"/><path class="cls-1" d="M537.26,1062.57s16.7,11.79,18.42,34.38c1,13.18-6.63,32.13-16.32,49.07,0,0-22.97-18.82-22.69-46.02s20.6-37.43,20.6-37.43Z"/><path class="cls-1" d="M523.96,1077.56s3.06,15.87-8.35,29.7c-6.65,8.07-21.39,14.69-36.21,19.03,0,0-2.78-23.33,12.29-38.68,15.07-15.36,32.27-10.05,32.27-10.05Z"/><path class="cls-1" d="M576.88,1075.49s20.43,.49,34.45,18.29c8.18,10.39,12.39,30.37,13.78,49.84,0,0-29.56-2.84-44.48-25.58-14.92-22.74-3.75-42.56-3.75-42.56Z"/><path class="cls-1" d="M589.57,1060.46s10.36,17.61,2.63,38.92c-4.51,12.43-19.26,26.55-35.08,38,0,0-13.18-26.61-1.73-51.28s34.18-25.63,34.18-25.63Z"/><path class="cls-1" d="M656.92,1074.83s18.34,9.01,23.59,31.06c3.06,12.86-1.49,32.77-8.4,51.03,0,0-25.64-14.98-29.65-41.88-4-26.9,14.46-40.2,14.46-40.2Z"/><path class="cls-1" d="M623.69,1090.7s12.54,4.07,17.92,17.67c3.14,7.93,2.05,21.06-.68,33.36,0,0-17.75-7.21-22.77-24.02s5.54-27,5.54-27Z"/><path class="cls-1" d="M709.72,1085.62s20.43,.49,34.45,18.29c8.18,10.39,12.39,30.37,13.78,49.84,0,0-29.56-2.84-44.48-25.58-14.92-22.74-3.75-42.56-3.75-42.56Z"/><path class="cls-1" d="M719.12,1071.8s10.36,17.61,2.63,38.92c-4.51,12.43-19.26,26.55-35.08,38,0,0-13.18-26.61-1.73-51.28,11.45-24.67,34.18-25.63,34.18-25.63Z"/><path class="cls-1" d="M795.4,1089.36s18.67,8.31,24.75,30.14c3.55,12.74-.25,32.8-6.47,51.31,0,0-26.19-14-31.21-40.73-5.02-26.73,12.92-40.72,12.92-40.72Z"/><path class="cls-1" d="M793.51,1085.57s9.12,19.36-1.89,45.24c-6.42,15.1-24.18,33.43-42.77,48.77,0,0-11.08-29.55,4.37-59.83,15.46-30.28,40.29-34.18,40.29-34.18Z"/><path class="cls-1" d="M851.04,1102.21s20.43,.49,34.45,18.29c8.18,10.39,12.39,30.37,13.78,49.84,0,0-29.56-2.84-44.48-25.58-14.92-22.74-3.75-42.56-3.75-42.56Z"/><path class="cls-1" d="M858.08,1096.6s10.36,17.61,2.63,38.92c-4.51,12.43-19.26,26.55-35.08,38,0,0-13.18-26.61-1.73-51.28,11.45-24.67,34.18-25.63,34.18-25.63Z"/><path class="cls-1" d="M907.36,1107.11s19.97,4.34,30.37,24.48c6.07,11.75,6.43,32.17,4.11,51.55,0,0-28.49-8.38-38.84-33.53-10.35-25.15,4.37-42.5,4.37-42.5Z"/><path class="cls-1" d="M911.8,1101.3s10.36,17.61,2.63,38.92c-4.51,12.43-19.26,26.55-35.08,38,0,0-13.18-26.61-1.73-51.28,11.45-24.67,34.18-25.63,34.18-25.63Z"/><path class="cls-1" d="M972.03,1110.53s20.43,.49,34.45,18.29c8.18,10.39,12.39,30.37,13.78,49.84,0,0-29.56-2.84-44.48-25.58-14.92-22.74-3.75-42.56-3.75-42.56Z"/><path class="cls-1" d="M970.92,1093.83s13.26,15.55,9.34,37.87c-2.29,13.02-14.37,29.49-27.96,43.51,0,0-17.6-23.92-10.6-50.21,7-26.28,29.22-31.17,29.22-31.17Z"/><path class="cls-1" d="M1016.37,1114.41s20.43,.49,34.45,18.29c8.18,10.39,12.39,30.37,13.78,49.84,0,0-29.56-2.84-44.48-25.58-14.92-22.74-3.75-42.56-3.75-42.56Z"/><path class="cls-1" d="M1049.62,1110.39s8.89,19.68-2.73,46.42c-6.78,15.6-25.09,34.71-44.2,50.77,0,0-10.69-30.09,5.51-61.42s41.42-35.77,41.42-35.77Z"/><path class="cls-1" d="M1075.68,1127.07s25.25,.6,42.57,22.61c10.11,12.84,15.32,37.53,17.03,61.6,0,0-36.53-3.51-54.97-31.61-18.44-28.1-4.63-52.6-4.63-52.6Z"/><path class="cls-1" d="M1082.66,1108.91s10.36,17.61,2.63,38.92c-4.51,12.43-19.26,26.55-35.08,38,0,0-13.18-26.61-1.73-51.28,11.45-24.67,34.18-25.63,34.18-25.63Z"/><path class="cls-1" d="M1164.18,1129.61s20.43,.49,34.45,18.29c8.18,10.39,12.39,30.37,13.78,49.84,0,0-29.56-2.84-44.48-25.58-14.92-22.74-3.75-42.56-3.75-42.56Z"/><path class="cls-1" d="M1178.46,1130.71s-.52,20.43-18.35,34.42c-10.4,8.16-30.39,12.35-49.87,13.7,0,0,2.89-29.56,25.65-44.44,22.76-14.89,42.57-3.68,42.57-3.68Z"/><path class="cls-1" d="M1162.23,1133.58s12.04,9.4,12.51,26.34c.27,9.88-6.1,23.75-13.96,36.05,0,0-16.47-14.88-15.29-35.18,1.19-20.3,16.73-27.21,16.73-27.21Z"/><path class="cls-1" d="M1249.66,1130.1s18.54,8.6,24.28,30.53c3.35,12.79-.76,32.79-7.27,51.2,0,0-25.97-14.4-30.57-41.21-4.6-26.81,13.56-40.52,13.56-40.52Z"/><path class="cls-1" d="M1247.45,1105.6s10.36,17.61,2.63,38.92c-4.51,12.43-19.26,26.55-35.08,38,0,0-13.18-26.61-1.73-51.28,11.45-24.67,34.18-25.63,34.18-25.63Z"/><path class="cls-1" d="M1306.29,1139.25s19.84,4.89,29.68,25.31c5.74,11.91,5.54,32.33,2.68,51.65,0,0-28.25-9.16-37.9-34.59s5.54-42.36,5.54-42.36Z"/><path class="cls-1" d="M1304.82,1139.81s8.26,14.04,2.1,31.02c-3.6,9.91-15.36,21.16-27.96,30.29,0,0-10.51-21.21-1.38-40.88,9.13-19.67,27.25-20.43,27.25-20.43Z"/><path class="cls-1" d="M1363.53,1147.05s20.43,.49,34.45,18.29c8.18,10.39,12.39,30.37,13.78,49.84,0,0-29.56-2.84-44.48-25.58-14.92-22.74-3.75-42.56-3.75-42.56Z"/><path class="cls-1" d="M1384.39,1142.65s10.36,17.61,2.63,38.92c-4.51,12.43-19.26,26.55-35.08,38,0,0-13.18-26.61-1.73-51.28,11.45-24.67,34.18-25.63,34.18-25.63Z"/><path class="cls-1" d="M1364.37,1128.25s10.36,17.61,2.63,38.92c-4.51,12.43-19.26,26.55-35.08,38,0,0-13.18-26.61-1.73-51.28,11.45-24.67,34.18-25.63,34.18-25.63Z"/><path class="cls-1" d="M1432.78,1143.06s19.26,2.47,34.11,23.85c8.67,12.47,14.51,35.39,17.65,57.46,0,0-28.06-5.98-44.23-33.01-16.17-27.03-7.53-48.31-7.53-48.31Z"/><path class="cls-1" d="M1430.66,1146.7s10.36,17.61,2.63,38.92c-4.51,12.43-19.26,26.55-35.08,38,0,0-13.18-26.61-1.73-51.28,11.45-24.67,34.18-25.63,34.18-25.63Z"/><path class="cls-1" d="M1491.63,1147.31s20.43,.49,34.45,18.29c8.18,10.39,12.39,30.37,13.78,49.84,0,0-29.56-2.84-44.48-25.58-14.92-22.74-3.75-42.56-3.75-42.56Z"/><path class="cls-1" d="M1476.97,1142.94s14.08,14.81,11.37,37.31c-1.58,13.13-12.75,30.22-25.56,44.96,0,0-18.86-22.94-13.3-49.56,5.56-26.62,27.49-32.71,27.49-32.71Z"/><path class="cls-1" d="M1502.5,1122.63s14.08,14.81,11.37,37.31c-1.58,13.13-12.75,30.22-25.56,44.96,0,0-18.86-22.94-13.3-49.56,5.56-26.62,27.49-32.71,27.49-32.71Z"/><path class="cls-1" d="M1549.19,1167.93s16.01,.38,27,14.34c6.41,8.14,9.71,23.8,10.8,39.07,0,0-23.17-2.22-34.86-20.05-11.7-17.82-2.94-33.36-2.94-33.36Z"/><path class="cls-1" d="M1560.37,1158.04s9.43,18.92-.75,43.65c-5.94,14.43-22.94,31.7-40.83,46.05,0,0-11.61-28.81,2.83-57.68,14.45-28.87,38.75-32.03,38.75-32.03Z"/><path class="cls-1" d="M1636.73,1177.23s11.42,9.96,10.98,26.76c-.26,9.8-7.33,23.2-15.77,34.96,0,0-15.52-15.63-13.25-35.67,2.27-20.04,18.04-26.05,18.04-26.05Z"/><path class="cls-1" d="M1608.68,1156.33s15.9,12.83,16.17,35.5c.16,13.22-8.68,31.63-19.44,47.92,0,0-21.71-20.26-19.69-47.39,2.02-27.12,22.96-36.03,22.96-36.03Z"/><path class="cls-1" d="M1698.32,1164.15s16.7,11.79,18.42,34.38c1,13.18-6.63,32.13-16.32,49.07,0,0-22.97-18.82-22.69-46.02,.28-27.2,20.6-37.43,20.6-37.43Z"/><path class="cls-1" d="M1685.02,1179.13s3.06,15.87-8.35,29.7c-6.65,8.07-21.39,14.69-36.21,19.03,0,0-2.78-23.33,12.29-38.68,15.07-15.36,32.27-10.05,32.27-10.05Z"/><path class="cls-1" d="M1737.94,1177.07s20.43,.49,34.45,18.29c8.18,10.39,12.39,30.37,13.78,49.84,0,0-29.56-2.84-44.48-25.58-14.92-22.74-3.75-42.56-3.75-42.56Z"/><path class="cls-1" d="M1750.63,1162.04s10.36,17.61,2.63,38.92c-4.51,12.43-19.26,26.55-35.08,38,0,0-13.18-26.61-1.73-51.28,11.45-24.67,34.18-25.63,34.18-25.63Z"/><path class="cls-1" d="M1817.98,1176.41s18.34,9.01,23.59,31.06c3.06,12.86-1.49,32.77-8.4,51.03,0,0-25.64-14.98-29.65-41.88-4-26.9,14.46-40.2,14.46-40.2Z"/><path class="cls-1" d="M1784.75,1192.28s12.54,4.07,17.92,17.67c3.14,7.93,2.05,21.06-.68,33.36,0,0-17.75-7.21-22.77-24.02-5.03-16.81,5.54-27,5.54-27Z"/><path class="cls-1" d="M1870.78,1187.2s20.43,.49,34.45,18.29c8.18,10.39,12.39,30.37,13.78,49.84,0,0-29.56-2.84-44.48-25.58-14.92-22.74-3.75-42.56-3.75-42.56Z"/><path class="cls-1" d="M1880.18,1173.38s10.36,17.61,2.63,38.92c-4.51,12.43-19.26,26.55-35.08,38,0,0-13.18-26.61-1.73-51.28,11.45-24.67,34.18-25.63,34.18-25.63Z"/><path class="cls-1" d="M1954.57,1187.15s9.12,19.36-1.89,45.24c-6.42,15.1-24.18,33.43-42.77,48.77,0,0-11.08-29.55,4.37-59.83,15.46-30.28,40.29-34.18,40.29-34.18Z"/></g></g></g></g></svg>