<?xml version="1.0" encoding="UTF-8"?><svg id="Capa_1" xmlns="http://www.w3.org/2000/svg" xmlns:xlink="http://www.w3.org/1999/xlink" viewBox="0 0 138.63 142.64"><defs><style>.cls-1{fill:url(#Degradado_sin_nombre_17);}</style><linearGradient id="Degradado_sin_nombre_17" x1="110.19" y1="11.72" x2=".19" y2="166.72" gradientUnits="userSpaceOnUse"><stop offset="0" stop-color="#f6f6f7"/><stop offset="1" stop-color="#fff"/></linearGradient></defs><path class="cls-1" d="M69.32,0C31.03,0,0,31.03,0,69.32s31.03,69.31,69.32,69.31c.2,0,.39-.01,.59-.01v-48.36h-16.69v-19.33h16.69v-14.25c0-16.54,10.1-25.55,24.86-25.55,7.07,0,13.14,.53,14.91,.76v17.29h-10.23c-8.02,0-9.58,3.82-9.58,9.41v12.34h19.14l-2.49,19.33h-16.65v45.27c28.25-8.76,48.76-35.09,48.76-66.22C138.63,31.03,107.6,0,69.32,0Z"/></svg>