<?xml version="1.0" encoding="UTF-8"?><svg id="Capa_1" xmlns="http://www.w3.org/2000/svg" xmlns:xlink="http://www.w3.org/1999/xlink" viewBox="0 0 1920 315.69"><defs><style>.cls-1{fill:url(#Degradado_sin_nombre_186);}.cls-2{clip-path:url(#clippath);}.cls-3{fill:none;}</style><clipPath id="clippath"><rect class="cls-3" y="0" width="1920" height="315.69"/></clipPath><linearGradient id="Degradado_sin_nombre_186" x1="972.05" y1="-18.79" x2="970.62" y2="314.83" gradientUnits="userSpaceOnUse"><stop offset="0" stop-color="#065500"/><stop offset=".97" stop-color="#0d7f00"/></linearGradient></defs><g class="cls-2"><path class="cls-1" d="M2023.81,215.83c.62-19.39-1.51-39.58-8.53-50.68-7.13-11.28-17.11-16.77-24.06-19.38-2.03-5.27-4.23-8.36-4.23-8.36,0,0-1.14,.15-2.99,.67V0H839.65c-4.42-3.63-9.77-4.46-13.99-3.76C822.6-3.25,819.77-1.93,817.42,0h-1.07c-6.14-2.73-11.68-.96-13.69-.11-.08,.03-.15,.08-.22,.11H-64V143.55c-1.15-.03-1.81,.01-1.81,.01,0,0-.7,1.56-1.38,4.25-.13-.09-.21-.15-.21-.15,0,0-14.79,8.19-14.21,28.39s18.18,33.51,18.18,33.51c3.47-6.65,6.5-13.68,8.48-20.27,17.04,17.33,42.79,17.55,42.79,17.55-1.95-12.2-5.05-24.5-9.37-34.3h3.25c2.64,11.24,7.36,19,7.36,19,6.83-5.92,13.37-12.38,18.77-18.89,.26,1.71,.62,3.47,1.09,5.29,6.88,26.14,33.84,38.15,33.84,38.15,2.51-9.72,4.33-19.81,4.91-29,1.95,10.12,6.33,17.33,6.33,17.33,7.69-6.66,14.93-14.21,19.75-21.47,.04,.09,.08,.19,.13,.28,11.76,24.34,40.52,30.96,40.52,30.96,.35-5.85,.44-11.78,.23-17.52,1.65-1.6,3.25-3.21,4.81-4.85,2.1,14.16,8.42,24.55,8.42,24.55,8.02-6.95,15.65-14.66,21.48-22.3,6.21,4.72,13.01,7.7,19.09,9.58,2.56,7.75,5.59,12.72,5.59,12.72,3.56-3.09,7.05-6.33,10.34-9.64,1.49,.12,2.36,.12,2.36,.12-.12-.72-.24-1.45-.36-2.17,9.31-9.73,16.71-19.99,19.11-28.97,.29-1.07,.52-2.12,.72-3.16h1.54c1.46,2.69,3.16,5.45,5.19,8.25,4.08,5.64,8.65,10.19,13.3,13.87,5.18,10.85,11.88,17.69,11.88,17.69,1.79-2.47,3.54-5,5.21-7.55,9.28,3.97,16.26,4.84,16.26,4.84-1.76-7.57-3.86-15.22-6.26-22.45,.78-1.66,1.5-3.3,2.15-4.92,3.37,4.92,6.16,7.77,6.16,7.77,2.94-4.04,5.75-8.23,8.32-12.45,5.71,6.11,12.5,10.2,19.01,12.93-2.23,22.02,6.55,39.3,6.55,39.3,14.42-13.8,27.97-29.76,34.23-43.45,13.23,11.25,31.01,11.4,31.01,11.4-1.42-8.89-3.63-17.83-6.65-25.22h3.06c2.1,25.16,23.42,41.84,23.42,41.84,4.62-8.51,8.71-17.51,11.49-26.01,4.02,13.89,14.71,22.94,14.71,22.94,2.66-4.49,5.11-9.17,7.14-13.78,.17,1.31,.33,2.06,.33,2.06,14.3-5.59,28.31-13.42,34.2-21.98,.41-.6,.8-1.21,1.16-1.81,4.61,23.72,25.7,38.13,25.7,38.13,4.15-8.99,7.71-18.44,9.93-27.27,2.69,10.24,6.9,17.17,6.9,17.17,7.85-6.8,15.34-14.34,21.12-21.82,.16,.22,.32,.43,.49,.65,16.74,21.22,46.25,21.47,46.25,21.47-.83-5.19-1.87-10.4-3.12-15.43,7.89,8.87,18.61,12.18,18.61,12.18,.98-7.41,1.35-15.06,.68-21.64,8.17,22.94,31.51,33.97,31.51,33.97,2.96-10.51,5.14-21.46,5.74-31.26,2.43,12.78,7.97,21.88,7.97,21.88,8.85-7.67,17.23-16.27,23.23-24.67,.48,.67,.98,1.35,1.52,2.02,9.56,12.11,23.26,17.39,33.28,19.69,.67,16.55,6.2,28.14,6.2,28.14,8.59-8.45,16.9-17.62,23.69-26.63,5.02,8.85,12.14,15.36,18.17,19.73-8.21,24.96,6.6,49.29,6.6,49.29,3.37-2.92,6.67-5.98,9.8-9.1-.32,3.9-.16,8.2,.72,12.91,4.99,26.57,31.02,40.47,31.02,40.47,2.06-6.14,3.84-12.44,5.18-18.59,2.35,3.56,4.96,6.53,7.31,8.85-.49,1.45-.69,2.29-.69,2.29,.81-.21,1.63-.42,2.44-.64,3.05,2.77,5.31,4.25,5.31,4.25,.93-2.13,1.8-4.29,2.63-6.47,3.37-1,6.7-2.06,9.94-3.18,14.76,14.55,37.21,12.13,37.21,12.13-2.04-7.23-4.63-14.45-7.68-20.67,.19-.07,.39-.15,.58-.22,5.11,7.59,9.95,11.42,9.95,11.42,1.12-5.88,2.07-11.92,2.78-17.82,.32-.21,.63-.4,.95-.61,3.9,5.87,8.1,9.31,8.1,9.31,4.28-7.47,7.93-15.54,9.62-22.62,16.11,.01,29-9.62,29-9.62-3.63-3.47-7.48-6.8-11.36-9.76,10.27,.46,17.06-1.59,17.06-1.59-4.53-4.62-9.32-9.17-14.13-13.38,1.52-2.88,2.91-5.8,4.11-8.68,5.34,6.33,10.67,9.8,10.67,9.8,3.86-8.89,6.99-18.35,8.21-26.62,3.41,11.72,8.17,18.93,8.17,18.93,4.1-5.64,8.08-11.5,11.74-17.38,.53,.27,1.07,.53,1.61,.78,1.6,11.65,5.02,19.16,5.02,19.16,4.85-4.86,9.62-9.95,14.1-15.1,.02,0,.03,0,.05,0,6.27,4.62,13.08,7.51,19.13,9.31,1.94,4.68,3.65,7.5,3.65,7.5,1.99-1.73,3.96-3.5,5.89-5.31,4.87,.79,8.07,.82,8.07,.82-.3-1.89-.63-3.77-.99-5.65,4.46,1.09,8.99,1.48,13.54,1.18,17.39,8.46,34.41,8.61,34.41,8.61-.35-2.17-.72-4.35-1.13-6.52,5.74-1.3,11.29-2.88,16.39-4.73,5.13,12.58,15.31,20.29,15.31,20.29,2.62-5.02,4.99-10.26,6.84-15.36,1.38-.31,2.7-.73,3.96-1.25,16.46,12.09,36.68,12.28,36.68,12.28-.55-3.43-1.19-6.87-1.92-10.26,3.43-3.13,6.75-6.38,9.84-9.68,.73,.13,1.47,.24,2.22,.32,10.33,12.81,23.86,18.85,23.86,18.85,1.03-4.01,1.94-8.08,2.71-12.12,.53,3.61,1.13,5.79,1.13,5.79,14.43-6.7,28.51-15.3,36.83-24.39,6.2,4.58,11.15,6.79,11.15,6.79,2.51-9.72,4.33-19.81,4.91-29,1.95,10.12,6.33,17.32,6.33,17.32,7.69-6.66,14.93-14.21,19.75-21.47,.04,.09,.08,.19,.13,.28,11.76,24.34,40.52,30.96,40.52,30.96,.35-5.85,.44-11.78,.23-17.52,1.65-1.6,3.25-3.21,4.81-4.85,2.1,14.16,8.42,24.55,8.42,24.55,8.02-6.95,15.65-14.66,21.48-22.3,6.21,4.72,13.01,7.7,19.09,9.58,2.56,7.75,5.59,12.72,5.59,12.72,3.56-3.09,7.05-6.33,10.34-9.64,1.49,.12,2.36,.12,2.36,.12-.12-.72-.24-1.45-.36-2.17,9.31-9.73,16.71-19.99,19.11-28.97,.29-1.07,.52-2.12,.72-3.16h1.54c1.46,2.69,3.16,5.45,5.19,8.25,4.08,5.64,8.65,10.19,13.3,13.87,5.18,10.85,11.88,17.69,11.88,17.69,1.79-2.47,3.54-5,5.21-7.55,9.28,3.97,16.26,4.84,16.26,4.84-1.76-7.57-3.86-15.22-6.26-22.45,.78-1.66,1.5-3.3,2.15-4.92,3.37,4.92,6.16,7.77,6.16,7.77,2.94-4.04,5.75-8.23,8.32-12.45,5.71,6.11,12.5,10.2,19.01,12.93-2.23,22.02,6.55,39.3,6.55,39.3,14.42-13.8,27.97-29.76,34.23-43.45,13.23,11.25,31.01,11.4,31.01,11.4-1.42-8.89-3.63-17.83-6.65-25.22h3.06c2.1,25.16,23.42,41.84,23.42,41.84,4.62-8.51,8.71-17.51,11.49-26.01,4.02,13.89,14.71,22.94,14.71,22.94,2.66-4.49,5.11-9.17,7.14-13.78,.17,1.31,.33,2.06,.33,2.06,14.3-5.59,28.31-13.42,34.2-21.98,.41-.6,.8-1.21,1.16-1.81,4.61,23.72,25.7,38.13,25.7,38.13,4.15-8.99,7.71-18.44,9.93-27.27,2.69,10.24,6.9,17.17,6.9,17.17,7.85-6.8,15.34-14.34,21.12-21.82,.16,.22,.32,.43,.49,.65,16.74,21.22,46.26,21.47,46.26,21.47-.83-5.19-1.87-10.4-3.12-15.43,7.89,8.87,18.61,12.18,18.61,12.18,.98-7.41,1.35-15.06,.68-21.64,8.17,22.94,31.51,33.97,31.51,33.97,2.96-10.51,5.14-21.46,5.74-31.26,2.43,12.78,7.97,21.88,7.97,21.88,8.85-7.67,17.23-16.27,23.23-24.67,.48,.67,.98,1.35,1.52,2.02,9.56,12.11,23.26,17.39,33.28,19.69,.67,16.55,6.2,28.14,6.2,28.14,13.36-13.14,26.06-28.06,33.37-41.35,10.33,18.62,30.06,27.06,30.06,27.06,1.73-7.15,3.09-14.5,3.86-21.53,2.29,13.45,8.2,23.17,8.2,23.17,10.85-9.4,21-20.2,26.92-30.33,2.16,2.64,4.51,4.94,6.98,6.95,2.26,13.56,8.24,23.38,8.24,23.38,4.57-3.96,9.01-8.16,13.07-12.46,9.74,2.88,17.42,2.95,17.42,2.95-.53-3.33-1.15-6.68-1.86-9.97,13.88,14.96,33.66,18.95,33.66,18.95Z"/></g></svg>