<?xml version="1.0" encoding="UTF-8"?><svg xmlns="http://www.w3.org/2000/svg" xmlns:xlink="http://www.w3.org/1999/xlink" viewBox="0 0 714.75 382.45"><defs><style>.cls-1{opacity:.68;}.cls-2{fill:#fff6e2;}.cls-3{fill:#83a40f;}.cls-4{clip-path:url(#clippath-2);}.cls-5{isolation:isolate;}.cls-6{fill:url(#Degradado_sin_nombre_122);mix-blend-mode:multiply;opacity:.11;}.cls-7{clip-path:url(#clippath-1);}.cls-8{fill:#d9d5ca;}.cls-9{fill:url(#Degradado_sin_nombre_27);}.cls-10{fill:url(#Degradado_sin_nombre_74);}.cls-11{clip-path:url(#clippath);}.cls-12{fill:none;}.cls-13{fill:#856565;}.cls-14{clip-path:url(#clippath-3);}.cls-15{fill:url(#Degradado_sin_nombre_95);}.cls-16{filter:url(#drop-shadow-9);}.cls-17{fill:#223d10;}.cls-18{fill:#ebe6db;}.cls-19{fill:url(#Degradado_sin_nombre_111);}.cls-20{fill:#e6e1d2;}</style><linearGradient id="Degradado_sin_nombre_111" x1="540.6" y1="140.32" x2="676.5" y2="140.32" gradientUnits="userSpaceOnUse"><stop offset=".01" stop-color="#d6d1be"/><stop offset=".54" stop-color="#eee7d3"/><stop offset=".98" stop-color="#fff6e2"/></linearGradient><linearGradient id="Degradado_sin_nombre_95" x1="447.93" y1="311.83" x2="447.93" y2="258.29" gradientUnits="userSpaceOnUse"><stop offset="0" stop-color="#97bebb"/><stop offset=".98" stop-color="#779296"/></linearGradient><linearGradient id="Degradado_sin_nombre_27" x1="181.11" y1="258.29" x2="714.75" y2="258.29" gradientUnits="userSpaceOnUse"><stop offset="0" stop-color="#f5f8e7"/><stop offset=".99" stop-color="#cbdbd8"/></linearGradient><clipPath id="clippath"><path class="cls-3" d="M226.37,230.21s-21.18-72.37-101.49-94.87S0,119.01,0,119.01l226.37,111.2Z"/></clipPath><clipPath id="clippath-1"><path class="cls-3" d="M193.27,264.63s-74.13,6.62-116.05,67.07c0,0,25.15,.44,35.96-3.53,0,0-20.52,37.51-21.4,54.28,0,0,84.72-87.37,101.49-117.82Z"/></clipPath><clipPath id="clippath-2"><path class="cls-2" d="M285.25,27.65h307.12s-18.53,210.04-81.19,250.64c0,0-43.83,.59-76.78,.59s-76.07-1.19-76.07-1.19c0,0-55.42-47.94-73.07-250.04Z"/></clipPath><linearGradient id="Degradado_sin_nombre_122" x1="428.51" y1="303" x2="428.51" y2="0" gradientUnits="userSpaceOnUse"><stop offset="0" stop-color="#000"/><stop offset=".12" stop-color="#242424"/><stop offset=".44" stop-color="gray"/><stop offset=".7" stop-color="#c4c4c4"/><stop offset=".89" stop-color="#eee"/><stop offset=".98" stop-color="#fff"/></linearGradient><clipPath id="clippath-3"><rect class="cls-12" x="1011.25" y="-337.89" width="1920" height="2663.29"/></clipPath><filter id="drop-shadow-9" filterUnits="userSpaceOnUse"><feOffset dx="7" dy="12"/><feGaussianBlur result="blur" stdDeviation="12"/><feFlood flood-color="#000" flood-opacity=".4"/><feComposite in2="blur" operator="in"/><feComposite in="SourceGraphic"/></filter><linearGradient id="Degradado_sin_nombre_74" x1="2028.14" y1="-235.58" x2="2028.14" y2="2066.61" gradientUnits="userSpaceOnUse"><stop offset="0" stop-color="#008e45"/><stop offset=".97" stop-color="#006837"/></linearGradient></defs><g class="cls-5"><g id="Capa_1"><g><path class="cls-19" d="M588.7,59.56s65.45-18.96,87.81-7.79c0,0-8.24,135.32-135.91,180.62l15.89-41.77s74.13-25.89,90.61-115.32c0,0-52.95-6.47-84.72,38.83l26.33-54.58Z"/><path class="cls-15" d="M181.11,258.29s8.24,31.77,172.97,53.54h181.8s140.62-20.59,178.86-53.54H181.11Z"/><ellipse class="cls-9" cx="447.93" cy="258.29" rx="266.82" ry="20.59"/><path class="cls-13" d="M189.96,270.07s46.32-27.52,59.55-35.03c13.24-7.5,121.35-24.27,121.35-24.27l-5.3-18.97s-76.64,10.08-130.32,33.72l-50.41,40.35,5.12,4.2Z"/><g><g><path class="cls-3" d="M226.37,230.21s-21.18-72.37-101.49-94.87S0,119.01,0,119.01l226.37,111.2Z"/><g class="cls-11"><path class="cls-17" d="M33.09,143.72h17.21s48.1,7.94,71.04,9.71c22.95,1.77,85,33.86,94.57,71.65,0,0-48.24,6.02-50.88,5.13-2.65-.88-70.16-34.7-87.37-45.81-17.21-11.11-46.77-40.68-46.77-40.68h2.21Z"/></g></g><path class="cls-3" d="M240.05,226.68s-97.96-24.03-126.86-22.61-105.24-.06-105.24-.06c0,0,48.1,42.96,90.02,47.38,41.92,4.41,118.7-8.83,142.09-24.71Z"/><g><path class="cls-3" d="M193.27,264.63s-74.13,6.62-116.05,67.07c0,0,25.15,.44,35.96-3.53,0,0-20.52,37.51-21.4,54.28,0,0,84.72-87.37,101.49-117.82Z"/><g class="cls-7"><path class="cls-17" d="M188.86,254.04s-57.77,28.69-64.87,65.31,0,50.75,0,50.75c0,0,93.11-86.93,93.55-88.25s4.41-22.06-3.09-23.83-25.59-3.97-25.59-3.97Z"/></g></g></g><g><path class="cls-2" d="M285.25,27.65h307.12s-18.53,210.04-81.19,250.64c0,0-43.83,.59-76.78,.59s-76.07-1.19-76.07-1.19c0,0-55.42-47.94-73.07-250.04Z"/><g class="cls-4"><g class="cls-1"><path class="cls-8" d="M559.7,130.75s12.94-15.3,25.3-15.89c0,0,6.47,77.07-22.36,111.79-28.83,34.71-65.31,75.31-65.31,75.31l-18.24-2.94s30.59-103.55,33.54-108.26,47.07-60.01,47.07-60.01Z"/><path class="cls-20" d="M483.21,130.75s14.12-24.71,40.6-23.53c26.48,1.18,35.89,23.53,35.89,23.53,0,0-14.12,102.37-80.6,168.27l-37.07-4.71,41.18-163.56Z"/><path class="cls-18" d="M450.86,294.31s42.95-68.25,32.36-163.56c0,0-7.65-16.5-40.01-18.25-32.36-1.75-41.77,20.02-41.77,20.02,0,0-13.53,91.19-5.88,123.55s32.36,50.01,32.36,50.01l22.95-11.77Z"/><path class="cls-20" d="M427.91,294.31s-24.71-37.07-26.48-83.55c-1.77-46.48,0-78.25,0-78.25,0,0-21.77-20.59-43.54-20-21.77,.59-39.8,20.73-39.8,20.73,0,0,13.32,128.71,77.45,161.07h32.36Z"/><path class="cls-8" d="M284.35,107.22s33.54,14.12,34.71,30.01c0,0,26.48,127.08,76.49,157.09h-34.71s-93.55-160.62-93.55-163.56,17.06-23.53,17.06-23.53Z"/></g><rect class="cls-6" x="256.42" y="0" width="344.18" height="303"/></g></g></g><g class="cls-14"><g class="cls-16"><rect class="cls-10" x="566.79" y="-380.08" width="2922.7" height="2463.84"/></g></g></g></g></svg>