<?xml version="1.0" encoding="UTF-8"?><svg id="Capa_1" xmlns="http://www.w3.org/2000/svg" xmlns:xlink="http://www.w3.org/1999/xlink" viewBox="0 0 138.63 142.64"><defs><style>.cls-1{fill:url(#Degradado_sin_nombre_15-2);}.cls-2{fill:url(#Degradado_sin_nombre_15);}.cls-3{fill:url(#Degradado_sin_nombre_15-3);}</style><radialGradient id="Degradado_sin_nombre_15" cx="68.65" cy="72.46" fx="19.65" fy="72.46" r="116.74" gradientTransform="translate(-20.75 85.98) rotate(-49.2) scale(1 .81)" gradientUnits="userSpaceOnUse"><stop offset="0" stop-color="#fff"/><stop offset="1" stop-color="#f6f6f7"/></radialGradient><radialGradient id="Degradado_sin_nombre_15-2" cx="69" cy="70.9" fx="45.04" fy="70.9" r="57.08" gradientTransform="translate(-19.67 85.51) rotate(-49.2) scale(1 .81)" xlink:href="#Degradado_sin_nombre_15"/><radialGradient id="Degradado_sin_nombre_15-3" cx="68.23" cy="74.76" fx="-14.01" fy="74.76" r="195.94" gradientTransform="translate(-22.3 86.74) rotate(-49.2) scale(1 .81)" xlink:href="#Degradado_sin_nombre_15"/></defs><path class="cls-2" d="M88.1,29.25H50.54c-12.96,0-23.51,10.55-23.51,23.51v33.1c0,12.96,10.55,23.51,23.51,23.51h37.56c12.96,0,23.51-10.55,23.51-23.51V52.77c0-12.97-10.55-23.51-23.51-23.51Zm-18.78,66.97c-14.84,0-26.91-12.07-26.91-26.91s12.07-26.91,26.91-26.91,26.91,12.07,26.91,26.91-12.07,26.91-26.91,26.91Zm26.5-47.41c-3.08,0-5.58-2.5-5.58-5.58s2.5-5.58,5.58-5.58,5.58,2.5,5.58,5.58-2.5,5.58-5.58,5.58Z"/><path class="cls-1" d="M69.32,49.12c-11.13,0-20.19,9.06-20.19,20.19s9.06,20.19,20.19,20.19,20.19-9.06,20.19-20.19-9.06-20.19-20.19-20.19Z"/><path class="cls-3" d="M69.32,0C31.03,0,0,31.03,0,69.32s31.03,69.31,69.32,69.31,69.32-31.03,69.32-69.31S107.6,0,69.32,0Zm49.01,85.86c0,16.67-13.56,30.23-30.23,30.23H50.54c-16.67,0-30.23-13.56-30.23-30.23V52.77c0-16.67,13.56-30.23,30.23-30.23h37.56c16.67,0,30.23,13.56,30.23,30.23v33.1Z"/></svg>