<?xml version="1.0" encoding="UTF-8"?><svg id="Capa_1" xmlns="http://www.w3.org/2000/svg" xmlns:xlink="http://www.w3.org/1999/xlink" viewBox="0 0 1919.06 1323.16"><defs><style>.cls-1{clip-path:url(#clippath);}.cls-2{fill:none;}.cls-3{filter:url(#drop-shadow-9);}.cls-4{fill:#cf3a41;}</style><clipPath id="clippath"><rect class="cls-2" width="1919.06" height="1323.16"/></clipPath><filter id="drop-shadow-9" filterUnits="userSpaceOnUse"><feOffset dx="7" dy="12"/><feGaussianBlur result="blur" stdDeviation="12"/><feFlood flood-color="#000" flood-opacity=".4"/><feComposite in2="blur" operator="in"/><feComposite in="SourceGraphic"/></filter></defs><g class="cls-1"><g class="cls-3"><g><path class="cls-4" d="M1922.58,152.9s-23.12,1.47-40.71-17.26c-10.26-10.92-17-33.08-20.49-54.93,0,0,33.67,.28,52.77,24.49,19.1,24.21,8.44,47.7,8.44,47.7Z"/><path class="cls-4" d="M1907.71,168.56s-15.98-26.07-4.42-62.99c6.74-21.54,29.06-48.57,53.03-71.51,0,0,20.37,40.05,3.19,83.47-17.18,43.42-51.8,51.03-51.8,51.03Z"/><path class="cls-4" d="M1795.25,150.54s-17.72-12.92-19.19-37.18c-.86-14.16,7.63-34.35,18.31-52.37,0,0,24.33,20.57,23.59,49.74-.74,29.17-22.71,39.81-22.71,39.81Z"/><path class="cls-4" d="M1838.3,177.13s-24.54-16.49-27.78-49.11c-1.89-19.03,8.51-46.68,21.97-71.51,0,0,33.84,26.46,34.34,65.8,.5,39.34-28.54,54.82-28.54,54.82Z"/><path class="cls-4" d="M1708.15,177.15s-25.54-14.88-30.87-47.22c-3.11-18.87,5.5-47.13,17.34-72.77,0,0,35.47,24.23,38.5,63.46s-24.96,56.54-24.96,56.54Z"/><path class="cls-4" d="M1725.42,153.89s-6.41-22.49,8.29-43.86c8.57-12.46,28.97-23.86,49.78-31.99,0,0,6.94,33.26-12.84,57.29-19.78,24.03-45.23,18.55-45.23,18.55Z"/><path class="cls-4" d="M1649.43,163.54s-29.5,1.87-51.95-22.02c-13.09-13.94-21.69-42.2-26.14-70.09,0,0,42.96,.36,67.33,31.25,24.37,30.89,10.76,60.86,10.76,60.86Z"/><path class="cls-4" d="M1633.04,186.78s-17.15-24.08-8.69-55.75c4.94-18.48,24.41-40.69,45.76-59.18,0,0,22.35,36.69,8.96,73.68-13.39,37-46.02,41.25-46.02,41.25Z"/><path class="cls-4" d="M1534.17,174.58s-27.57-10.68-37.92-41.78c-6.04-18.15-1.98-47.41,5.68-74.59,0,0,38.84,18.35,48,56.62,9.16,38.26-15.76,59.76-15.76,59.76Z"/><path class="cls-4" d="M1580.05,147.52s-18.58-4.29-28.05-23.2c-5.52-11.03-5.62-30.09-3.22-48.15,0,0,26.49,8.16,35.85,31.75,9.36,23.59-4.58,39.61-4.58,39.61Z"/><path class="cls-4" d="M1456.72,165.69s-29.5,1.87-51.95-22.02c-13.09-13.94-21.69-42.2-26.14-70.09,0,0,42.96,.36,67.33,31.25s10.76,60.86,10.76,60.86Z"/><path class="cls-4" d="M1444.92,186.78s-17.15-24.08-8.69-55.75c4.94-18.48,24.41-40.69,45.76-59.18,0,0,22.35,36.69,8.96,73.68-13.39,37-46.02,41.25-46.02,41.25Z"/><path class="cls-4" d="M1332.79,171.09s-27.95-9.63-39.47-40.32c-6.72-17.9-3.77-47.3,2.85-74.75,0,0,39.51,16.87,50.11,54.76s-13.49,60.31-13.49,60.31Z"/><path class="cls-4" d="M1336,176.31s-15.58-26.75-2.98-65.43c7.35-22.57,30.63-51.23,55.48-75.67,0,0,19.7,41.18,1.24,86.77-18.45,45.59-53.74,54.33-53.74,54.33Z"/><path class="cls-4" d="M1251,159.59s-29.5,1.87-51.95-22.02c-13.09-13.94-21.69-42.2-26.14-70.09,0,0,42.96,.36,67.33,31.25,24.37,30.89,10.76,60.86,10.76,60.86Z"/><path class="cls-4" d="M1241.55,168.56s-17.15-24.08-8.69-55.75c4.94-18.48,24.41-40.69,45.76-59.18,0,0,22.35,36.69,8.96,73.68-13.39,37-46.02,41.25-46.02,41.25Z"/><path class="cls-4" d="M1169.22,159.63s-29.33-3.74-46.85-31.44c-10.22-16.16-13.32-45.54-12.42-73.77,0,0,42.11,8.48,60.2,43.42,18.09,34.94-.94,61.79-.94,61.79Z"/><path class="cls-4" d="M1163.55,168.56s-17.15-24.08-8.69-55.75c4.94-18.48,24.41-40.69,45.76-59.18,0,0,22.35,36.69,8.96,73.68-13.39,37-46.02,41.25-46.02,41.25Z"/><path class="cls-4" d="M1075.6,162.86s-29.5,1.87-51.95-22.02c-13.09-13.94-21.69-42.2-26.14-70.09,0,0,42.96,.36,67.33,31.25,24.37,30.89,10.76,60.86,10.76,60.86Z"/><path class="cls-4" d="M1079.29,186.78s-21.07-20.74-18.23-53.39c1.66-19.05,16.99-44.3,34.8-66.22,0,0,28.37,32.25,21.6,71.01-6.77,38.76-38.17,48.6-38.17,48.6Z"/><path class="cls-4" d="M1011.21,162.86s-29.5,1.87-51.95-22.02c-13.09-13.94-21.69-42.2-26.14-70.09,0,0,42.96,.36,67.33,31.25,24.37,30.89,10.76,60.86,10.76,60.86Z"/><path class="cls-4" d="M963.81,172.84s-15.29-27.24-1.92-67.23c7.8-23.33,31.78-53.18,57.29-78.73,0,0,19.2,42.02-.19,89.2-19.4,47.18-55.18,56.76-55.18,56.76Z"/><path class="cls-4" d="M924.15,152.08s-36.46,2.32-64.2-27.21c-16.18-17.23-26.81-52.16-32.31-86.62,0,0,53.09,.45,83.2,38.62,30.12,38.17,13.3,75.21,13.3,75.21Z"/><path class="cls-4" d="M916.38,179.14s-17.15-24.08-8.69-55.75c4.94-18.48,24.41-40.69,45.76-59.18,0,0,22.35,36.69,8.96,73.68-13.39,37-46.02,41.25-46.02,41.25Z"/><path class="cls-4" d="M796.3,159.59s-29.5,1.87-51.95-22.02c-13.09-13.94-21.69-42.2-26.14-70.09,0,0,42.96,.36,67.33,31.25,24.37,30.89,10.76,60.86,10.76,60.86Z"/><path class="cls-4" d="M775.58,159.8s-1.83-29.51,22.1-51.91c13.96-13.07,42.24-21.62,70.13-26.03,0,0-.43,42.95-31.36,67.27-30.93,24.32-60.87,10.67-60.87,10.67Z"/><path class="cls-4" d="M798.62,153.61s-18.54-12.03-21.35-36.37c-1.64-14.2,5.8-34.99,15.57-53.71,0,0,25.61,19.37,26.46,48.77,.85,29.4-20.68,41.32-20.68,41.32Z"/><path class="cls-4" d="M673.07,169.66s-27.8-10.06-38.84-40.93c-6.44-18.01-3.04-47.35,4.02-74.7,0,0,39.24,17.48,49.25,55.53s-14.43,60.09-14.43,60.09Z"/><path class="cls-4" d="M679.34,204.69s-17.15-24.08-8.69-55.75c4.94-18.48,24.41-40.69,45.76-59.18,0,0,22.35,36.69,8.96,73.68-13.39,37-46.02,41.25-46.02,41.25Z"/><path class="cls-4" d="M590.31,163.61s-29.21-4.55-45.96-32.73c-9.77-16.44-12.06-45.89-10.38-74.08,0,0,41.86,9.64,58.98,45.06,17.12,35.43-2.64,61.74-2.64,61.74Z"/><path class="cls-4" d="M592.35,162.62s-13.67-19.19-6.93-44.44c3.93-14.73,19.46-32.43,36.47-47.17,0,0,17.81,29.24,7.14,58.73-10.67,29.49-36.69,32.88-36.69,32.88Z"/><path class="cls-4" d="M506.83,159.59s-29.5,1.87-51.95-22.02c-13.09-13.94-21.69-42.2-26.14-70.09,0,0,42.96,.36,67.33,31.25,24.37,30.89,10.76,60.86,10.76,60.86Z"/><path class="cls-4" d="M477.33,168.56s-17.15-24.08-8.69-55.75c4.94-18.48,24.41-40.69,45.76-59.18,0,0,22.35,36.69,8.96,73.68-13.39,37-46.02,41.25-46.02,41.25Z"/><path class="cls-4" d="M508,186.78s-17.15-24.08-8.69-55.75c4.94-18.48,24.41-40.69,45.76-59.18,0,0,22.35,36.69,8.96,73.68s-46.02,41.25-46.02,41.25Z"/><path class="cls-4" d="M407.54,174.07s-28.06-1.13-52.16-30.07c-14.06-16.88-25.37-49.16-32.67-80.57,0,0,41.19,5.08,67.9,41.99,26.71,36.91,16.94,68.66,16.94,68.66Z"/><path class="cls-4" d="M410.15,168.56s-17.15-24.08-8.69-55.75c4.94-18.48,24.41-40.69,45.76-59.18,0,0,22.35,36.69,8.96,73.68-13.39,37-46.02,41.25-46.02,41.25Z"/><path class="cls-4" d="M322.2,175.36s-29.5,1.87-51.95-22.02c-13.09-13.94-21.69-42.2-26.14-70.09,0,0,42.96,.36,67.33,31.25,24.37,30.89,10.76,60.86,10.76,60.86Z"/><path class="cls-4" d="M343.89,179.82s-22.16-19.57-21.09-52.33c.62-19.11,14.57-45.16,31.17-68,0,0,30.08,30.67,25.41,69.74-4.66,39.07-35.49,50.6-35.49,50.6Z"/><path class="cls-4" d="M309.65,212.29s-22.16-19.57-21.09-52.33c.62-19.11,14.57-45.16,31.17-68,0,0,30.08,30.67,25.41,69.74-4.66,39.07-35.49,50.6-35.49,50.6Z"/><path class="cls-4" d="M236.67,152.9s-23.12,1.47-40.71-17.26c-10.26-10.92-17-33.08-20.49-54.93,0,0,33.67,.28,52.77,24.49,19.1,24.21,8.44,47.7,8.44,47.7Z"/><path class="cls-4" d="M221.8,168.56s-15.98-26.07-4.42-62.99c6.74-21.54,29.06-48.57,53.03-71.51,0,0,20.37,40.05,3.19,83.47-17.18,43.42-51.8,51.03-51.8,51.03Z"/><path class="cls-4" d="M109.34,150.54s-17.72-12.92-19.19-37.18c-.86-14.16,7.63-34.35,18.31-52.37,0,0,24.33,20.57,23.59,49.74-.74,29.17-22.71,39.81-22.71,39.81Z"/><path class="cls-4" d="M152.4,177.13s-24.54-16.49-27.78-49.11c-1.89-19.03,8.51-46.68,21.97-71.51,0,0,33.84,26.46,34.34,65.8s-28.54,54.82-28.54,54.82Z"/><path class="cls-4" d="M22.24,177.15s-25.54-14.88-30.87-47.22c-3.11-18.87,5.5-47.13,17.34-72.77,0,0,35.47,24.23,38.5,63.46,3.03,39.23-24.96,56.54-24.96,56.54Z"/><path class="cls-4" d="M39.51,153.89s-6.41-22.49,8.29-43.86c8.57-12.46,28.97-23.86,49.78-31.99,0,0,6.94,33.26-12.84,57.29-19.78,24.03-45.23,18.55-45.23,18.55Z"/></g><g><polygon class="cls-4" points="-258.6 1044.18 2336.99 1271.27 2329.04 115.49 -177.35 115.49 -258.6 1044.18"/><g><path class="cls-4" d="M3.17,1039.33s20.43,.49,34.45,18.29c8.18,10.39,12.39,30.37,13.78,49.84,0,0-29.56-2.84-44.48-25.58-14.92-22.74-3.75-42.56-3.75-42.56Z"/><path class="cls-4" d="M17.45,1040.43s-.52,20.43-18.35,34.42c-10.4,8.16-30.39,12.35-49.87,13.7,0,0,2.89-29.56,25.65-44.44,22.76-14.89,42.57-3.68,42.57-3.68Z"/><path class="cls-4" d="M1.22,1043.3s12.04,9.4,12.51,26.34c.27,9.88-6.1,23.75-13.96,36.05,0,0-16.47-14.88-15.29-35.18,1.19-20.3,16.73-27.21,16.73-27.21Z"/><path class="cls-4" d="M88.65,1039.82s18.54,8.6,24.28,30.53c3.35,12.79-.76,32.79-7.27,51.2,0,0-25.97-14.4-30.57-41.21-4.6-26.81,13.56-40.52,13.56-40.52Z"/><path class="cls-4" d="M86.44,1015.32s10.36,17.61,2.63,38.92c-4.51,12.43-19.26,26.55-35.08,38,0,0-13.18-26.61-1.73-51.28,11.45-24.67,34.18-25.63,34.18-25.63Z"/><path class="cls-4" d="M145.28,1048.97s19.84,4.89,29.68,25.31c5.74,11.91,5.54,32.33,2.68,51.65,0,0-28.25-9.16-37.9-34.59-9.65-25.43,5.54-42.36,5.54-42.36Z"/><path class="cls-4" d="M143.81,1049.53s8.26,14.04,2.1,31.02c-3.6,9.91-15.36,21.16-27.96,30.29,0,0-10.51-21.21-1.38-40.88,9.13-19.67,27.25-20.43,27.25-20.43Z"/><path class="cls-4" d="M202.52,1056.77s20.43,.49,34.45,18.29c8.18,10.39,12.39,30.37,13.78,49.84,0,0-29.56-2.84-44.48-25.58-14.92-22.74-3.75-42.56-3.75-42.56Z"/><path class="cls-4" d="M223.38,1052.37s10.36,17.61,2.63,38.92c-4.51,12.43-19.26,26.55-35.08,38,0,0-13.18-26.61-1.73-51.28,11.45-24.67,34.18-25.63,34.18-25.63Z"/><path class="cls-4" d="M203.36,1037.97s10.36,17.61,2.63,38.92c-4.51,12.43-19.26,26.55-35.08,38,0,0-13.18-26.61-1.73-51.28,11.45-24.67,34.18-25.63,34.18-25.63Z"/><path class="cls-4" d="M271.77,1052.78s19.26,2.47,34.11,23.85c8.67,12.47,14.51,35.39,17.65,57.46,0,0-28.06-5.98-44.23-33.01-16.17-27.03-7.53-48.31-7.53-48.31Z"/><path class="cls-4" d="M269.65,1056.42s10.36,17.61,2.63,38.92c-4.51,12.43-19.26,26.55-35.08,38,0,0-13.18-26.61-1.73-51.28,11.45-24.67,34.18-25.63,34.18-25.63Z"/><path class="cls-4" d="M330.62,1057.03s20.43,.49,34.45,18.29c8.18,10.39,12.39,30.37,13.78,49.84,0,0-29.56-2.84-44.48-25.58-14.92-22.74-3.75-42.56-3.75-42.56Z"/><path class="cls-4" d="M315.96,1052.66s14.08,14.81,11.37,37.31c-1.58,13.13-12.75,30.22-25.56,44.96,0,0-18.86-22.94-13.3-49.56,5.56-26.62,27.49-32.71,27.49-32.71Z"/><path class="cls-4" d="M341.49,1032.35s14.08,14.81,11.37,37.31c-1.58,13.13-12.75,30.22-25.56,44.96,0,0-18.86-22.94-13.3-49.56s27.49-32.71,27.49-32.71Z"/><path class="cls-4" d="M388.18,1077.65s16.01,.38,27,14.34c6.41,8.14,9.71,23.8,10.8,39.07,0,0-23.17-2.22-34.86-20.05-11.7-17.82-2.94-33.36-2.94-33.36Z"/><path class="cls-4" d="M399.36,1067.76s9.43,18.92-.75,43.65c-5.94,14.43-22.94,31.7-40.83,46.05,0,0-11.61-28.81,2.83-57.68,14.45-28.87,38.75-32.03,38.75-32.03Z"/><path class="cls-4" d="M475.72,1086.95s11.42,9.96,10.98,26.76c-.26,9.8-7.33,23.2-15.77,34.96,0,0-15.52-15.63-13.25-35.67,2.27-20.04,18.04-26.05,18.04-26.05Z"/><path class="cls-4" d="M447.67,1066.05s15.9,12.83,16.17,35.5c.16,13.22-8.68,31.63-19.44,47.92,0,0-21.71-20.26-19.69-47.39,2.02-27.12,22.96-36.03,22.96-36.03Z"/><path class="cls-4" d="M537.31,1073.87s16.7,11.79,18.42,34.38c1,13.18-6.63,32.13-16.32,49.07,0,0-22.97-18.82-22.69-46.02s20.6-37.43,20.6-37.43Z"/><path class="cls-4" d="M524.01,1088.85s3.06,15.87-8.35,29.7c-6.65,8.07-21.39,14.69-36.21,19.03,0,0-2.78-23.33,12.29-38.68,15.07-15.36,32.27-10.05,32.27-10.05Z"/><path class="cls-4" d="M576.93,1086.79s20.43,.49,34.45,18.29c8.18,10.39,12.39,30.37,13.78,49.84,0,0-29.56-2.84-44.48-25.58-14.92-22.74-3.75-42.56-3.75-42.56Z"/><path class="cls-4" d="M589.62,1071.76s10.36,17.61,2.63,38.92c-4.51,12.43-19.26,26.55-35.08,38,0,0-13.18-26.61-1.73-51.28,11.45-24.67,34.18-25.63,34.18-25.63Z"/><path class="cls-4" d="M656.97,1086.13s18.34,9.01,23.59,31.06c3.06,12.86-1.49,32.77-8.4,51.03,0,0-25.64-14.98-29.65-41.88-4-26.9,14.46-40.2,14.46-40.2Z"/><path class="cls-4" d="M623.74,1102s12.54,4.07,17.92,17.67c3.14,7.93,2.05,21.06-.68,33.36,0,0-17.75-7.21-22.77-24.02s5.54-27,5.54-27Z"/><path class="cls-4" d="M709.77,1096.92s20.43,.49,34.45,18.29c8.18,10.39,12.39,30.37,13.78,49.84,0,0-29.56-2.84-44.48-25.58-14.92-22.74-3.75-42.56-3.75-42.56Z"/><path class="cls-4" d="M719.17,1083.1s10.36,17.61,2.63,38.92c-4.51,12.43-19.26,26.55-35.08,38,0,0-13.18-26.61-1.73-51.28,11.45-24.67,34.18-25.63,34.18-25.63Z"/><path class="cls-4" d="M795.45,1100.66s18.67,8.31,24.75,30.14c3.55,12.74-.25,32.8-6.47,51.31,0,0-26.19-14-31.21-40.73s12.92-40.72,12.92-40.72Z"/><path class="cls-4" d="M793.56,1096.87s9.12,19.36-1.89,45.24c-6.42,15.1-24.18,33.43-42.77,48.77,0,0-11.08-29.55,4.37-59.83,15.46-30.28,40.29-34.18,40.29-34.18Z"/><path class="cls-4" d="M851.09,1113.51s20.43,.49,34.45,18.29c8.18,10.39,12.39,30.37,13.78,49.84,0,0-29.56-2.84-44.48-25.58-14.92-22.74-3.75-42.56-3.75-42.56Z"/><path class="cls-4" d="M858.13,1107.9s10.36,17.61,2.63,38.92c-4.51,12.43-19.26,26.55-35.08,38,0,0-13.18-26.61-1.73-51.28,11.45-24.67,34.18-25.63,34.18-25.63Z"/><path class="cls-4" d="M907.41,1118.41s19.97,4.34,30.37,24.48c6.07,11.75,6.43,32.17,4.11,51.55,0,0-28.49-8.38-38.84-33.53-10.35-25.15,4.37-42.5,4.37-42.5Z"/><path class="cls-4" d="M911.85,1112.6s10.36,17.61,2.63,38.92c-4.51,12.43-19.26,26.55-35.08,38,0,0-13.18-26.61-1.73-51.28s34.18-25.63,34.18-25.63Z"/><path class="cls-4" d="M972.08,1121.83s20.43,.49,34.45,18.29c8.18,10.39,12.39,30.37,13.78,49.84,0,0-29.56-2.84-44.48-25.58-14.92-22.74-3.75-42.56-3.75-42.56Z"/><path class="cls-4" d="M970.97,1105.13s13.26,15.55,9.34,37.87c-2.29,13.02-14.37,29.49-27.96,43.51,0,0-17.6-23.92-10.6-50.21,7-26.28,29.22-31.17,29.22-31.17Z"/><path class="cls-4" d="M1016.42,1125.71s20.43,.49,34.45,18.29c8.18,10.39,12.39,30.37,13.78,49.84,0,0-29.56-2.84-44.48-25.58-14.92-22.74-3.75-42.56-3.75-42.56Z"/><path class="cls-4" d="M1049.67,1121.69s8.89,19.68-2.73,46.42c-6.78,15.6-25.09,34.71-44.2,50.77,0,0-10.69-30.09,5.51-61.42,16.2-31.32,41.42-35.77,41.42-35.77Z"/><path class="cls-4" d="M1075.73,1138.37s25.25,.6,42.57,22.61c10.11,12.84,15.32,37.53,17.03,61.6,0,0-36.53-3.51-54.97-31.61-18.44-28.1-4.63-52.6-4.63-52.6Z"/><path class="cls-4" d="M1082.71,1120.21s10.36,17.61,2.63,38.92c-4.51,12.43-19.26,26.55-35.08,38,0,0-13.18-26.61-1.73-51.28,11.45-24.67,34.18-25.63,34.18-25.63Z"/><path class="cls-4" d="M1164.23,1140.91s20.43,.49,34.45,18.29c8.18,10.39,12.39,30.37,13.78,49.84,0,0-29.56-2.84-44.48-25.58-14.92-22.74-3.75-42.56-3.75-42.56Z"/><path class="cls-4" d="M1178.51,1142.01s-.52,20.43-18.35,34.42c-10.4,8.16-30.39,12.35-49.87,13.7,0,0,2.89-29.56,25.65-44.44,22.76-14.89,42.57-3.68,42.57-3.68Z"/><path class="cls-4" d="M1162.27,1144.88s12.04,9.4,12.51,26.34c.27,9.88-6.1,23.75-13.96,36.05,0,0-16.47-14.88-15.29-35.18,1.19-20.3,16.73-27.21,16.73-27.21Z"/><path class="cls-4" d="M1249.71,1141.4s18.54,8.6,24.28,30.53c3.35,12.79-.76,32.79-7.27,51.2,0,0-25.97-14.4-30.57-41.21-4.6-26.81,13.56-40.52,13.56-40.52Z"/><path class="cls-4" d="M1247.5,1116.9s10.36,17.61,2.63,38.92c-4.51,12.43-19.26,26.55-35.08,38,0,0-13.18-26.61-1.73-51.28,11.45-24.67,34.18-25.63,34.18-25.63Z"/><path class="cls-4" d="M1306.34,1150.55s19.84,4.89,29.68,25.31c5.74,11.91,5.54,32.33,2.68,51.65,0,0-28.25-9.16-37.9-34.59-9.65-25.43,5.54-42.36,5.54-42.36Z"/><path class="cls-4" d="M1304.87,1151.11s8.26,14.04,2.1,31.02c-3.6,9.91-15.36,21.16-27.96,30.29,0,0-10.51-21.21-1.38-40.88,9.13-19.67,27.25-20.43,27.25-20.43Z"/><path class="cls-4" d="M1363.58,1158.35s20.43,.49,34.45,18.29c8.18,10.39,12.39,30.37,13.78,49.84,0,0-29.56-2.84-44.48-25.58-14.92-22.74-3.75-42.56-3.75-42.56Z"/><path class="cls-4" d="M1384.44,1153.95s10.36,17.61,2.63,38.92c-4.51,12.43-19.26,26.55-35.08,38,0,0-13.18-26.61-1.73-51.28,11.45-24.67,34.18-25.63,34.18-25.63Z"/><path class="cls-4" d="M1364.42,1139.55s10.36,17.61,2.63,38.92c-4.51,12.43-19.26,26.55-35.08,38,0,0-13.18-26.61-1.73-51.28,11.45-24.67,34.18-25.63,34.18-25.63Z"/><path class="cls-4" d="M1432.83,1154.36s19.26,2.47,34.11,23.85c8.67,12.47,14.51,35.39,17.65,57.46,0,0-28.06-5.98-44.23-33.01-16.17-27.03-7.53-48.31-7.53-48.31Z"/><path class="cls-4" d="M1430.7,1157.99s10.36,17.61,2.63,38.92c-4.51,12.43-19.26,26.55-35.08,38,0,0-13.18-26.61-1.73-51.28,11.45-24.67,34.18-25.63,34.18-25.63Z"/><path class="cls-4" d="M1491.68,1158.61s20.43,.49,34.45,18.29c8.18,10.39,12.39,30.37,13.78,49.84,0,0-29.56-2.84-44.48-25.58-14.92-22.74-3.75-42.56-3.75-42.56Z"/><path class="cls-4" d="M1477.02,1154.24s14.08,14.81,11.37,37.31c-1.58,13.13-12.75,30.22-25.56,44.96,0,0-18.86-22.94-13.3-49.56,5.56-26.62,27.49-32.71,27.49-32.71Z"/><path class="cls-4" d="M1502.55,1133.93s14.08,14.81,11.37,37.31c-1.58,13.13-12.75,30.22-25.56,44.96,0,0-18.86-22.94-13.3-49.56,5.56-26.62,27.49-32.71,27.49-32.71Z"/><path class="cls-4" d="M1549.24,1179.23s16.01,.38,27,14.34c6.41,8.14,9.71,23.8,10.8,39.07,0,0-23.17-2.22-34.86-20.05-11.7-17.82-2.94-33.36-2.94-33.36Z"/><path class="cls-4" d="M1560.42,1169.34s9.43,18.92-.75,43.65c-5.94,14.43-22.94,31.7-40.83,46.05,0,0-11.61-28.81,2.83-57.68,14.45-28.87,38.75-32.03,38.75-32.03Z"/><path class="cls-4" d="M1636.78,1188.53s11.42,9.96,10.98,26.76c-.26,9.8-7.33,23.2-15.77,34.96,0,0-15.52-15.63-13.25-35.67,2.27-20.04,18.04-26.05,18.04-26.05Z"/><path class="cls-4" d="M1608.73,1167.63s15.9,12.83,16.17,35.5c.16,13.22-8.68,31.63-19.44,47.92,0,0-21.71-20.26-19.69-47.39,2.02-27.12,22.96-36.03,22.96-36.03Z"/><path class="cls-4" d="M1698.37,1175.45s16.7,11.79,18.42,34.38c1,13.18-6.63,32.13-16.32,49.07,0,0-22.97-18.82-22.69-46.02,.28-27.2,20.6-37.43,20.6-37.43Z"/><path class="cls-4" d="M1685.07,1190.43s3.06,15.87-8.35,29.7c-6.65,8.07-21.39,14.69-36.21,19.03,0,0-2.78-23.33,12.29-38.68,15.07-15.36,32.27-10.05,32.27-10.05Z"/><path class="cls-4" d="M1737.99,1188.37s20.43,.49,34.45,18.29c8.18,10.39,12.39,30.37,13.78,49.84,0,0-29.56-2.84-44.48-25.58-14.92-22.74-3.75-42.56-3.75-42.56Z"/><path class="cls-4" d="M1750.68,1173.34s10.36,17.61,2.63,38.92c-4.51,12.43-19.26,26.55-35.08,38,0,0-13.18-26.61-1.73-51.28,11.45-24.67,34.18-25.63,34.18-25.63Z"/><path class="cls-4" d="M1818.03,1187.71s18.34,9.01,23.59,31.06c3.06,12.86-1.49,32.77-8.4,51.03,0,0-25.64-14.98-29.65-41.88-4-26.9,14.46-40.2,14.46-40.2Z"/><path class="cls-4" d="M1784.8,1203.58s12.54,4.07,17.92,17.67c3.14,7.93,2.05,21.06-.68,33.36,0,0-17.75-7.21-22.77-24.02-5.03-16.81,5.54-27,5.54-27Z"/><path class="cls-4" d="M1870.83,1198.5s20.43,.49,34.45,18.29c8.18,10.39,12.39,30.37,13.78,49.84,0,0-29.56-2.84-44.48-25.58-14.92-22.74-3.75-42.56-3.75-42.56Z"/><path class="cls-4" d="M1880.23,1184.68s10.36,17.61,2.63,38.92c-4.51,12.43-19.26,26.55-35.08,38,0,0-13.18-26.61-1.73-51.28,11.45-24.67,34.18-25.63,34.18-25.63Z"/><path class="cls-4" d="M1954.62,1198.45s9.12,19.36-1.89,45.24c-6.42,15.1-24.18,33.43-42.77,48.77,0,0-11.08-29.55,4.37-59.83,15.46-30.28,40.29-34.18,40.29-34.18Z"/></g></g></g></g></svg>