<?xml version="1.0" encoding="UTF-8"?><svg id="Capa_1" xmlns="http://www.w3.org/2000/svg" xmlns:xlink="http://www.w3.org/1999/xlink" viewBox="0 0 1914.58 1304.15"><defs><style>.cls-1{fill:#62a132;}.cls-2{clip-path:url(#clippath);}.cls-3{fill:none;}.cls-4{filter:url(#drop-shadow-9);}</style><clipPath id="clippath"><rect class="cls-3" x="-5.14" width="1918.96" height="1304.15"/></clipPath><filter id="drop-shadow-9" filterUnits="userSpaceOnUse"><feOffset dx="7" dy="12"/><feGaussianBlur result="blur" stdDeviation="12"/><feFlood flood-color="#000" flood-opacity=".4"/><feComposite in2="blur" operator="in"/><feComposite in="SourceGraphic"/></filter></defs><g class="cls-2"><g class="cls-4"><g><polygon class="cls-1" points="-263.85 1006 2331.75 1233.08 2319.13 0 -182.6 0 -263.85 1006"/><g><path class="cls-1" d="M-2.07,1001.14s20.43,.49,34.45,18.29c8.18,10.39,12.39,30.37,13.78,49.84,0,0-29.56-2.84-44.48-25.58-14.92-22.74-3.75-42.56-3.75-42.56Z"/><path class="cls-1" d="M12.21,1002.24s-.52,20.43-18.35,34.42c-10.4,8.16-30.39,12.35-49.87,13.7,0,0,2.89-29.56,25.65-44.44,22.76-14.89,42.57-3.68,42.57-3.68Z"/><path class="cls-1" d="M-4.03,1005.12s12.04,9.4,12.51,26.34c.27,9.88-6.1,23.75-13.96,36.05,0,0-16.47-14.88-15.29-35.18,1.19-20.3,16.73-27.21,16.73-27.21Z"/><path class="cls-1" d="M83.4,1001.63s18.54,8.6,24.28,30.53c3.35,12.79-.76,32.79-7.27,51.2,0,0-25.97-14.4-30.57-41.21-4.6-26.81,13.56-40.52,13.56-40.52Z"/><path class="cls-1" d="M81.19,977.13s10.36,17.61,2.63,38.92c-4.51,12.43-19.26,26.55-35.08,38,0,0-13.18-26.61-1.73-51.28,11.45-24.67,34.18-25.63,34.18-25.63Z"/><path class="cls-1" d="M140.03,1010.78s19.84,4.89,29.68,25.31c5.74,11.91,5.54,32.33,2.68,51.65,0,0-28.25-9.16-37.9-34.59-9.65-25.43,5.54-42.36,5.54-42.36Z"/><path class="cls-1" d="M138.57,1011.34s8.26,14.04,2.1,31.02c-3.6,9.91-15.36,21.16-27.96,30.29,0,0-10.51-21.21-1.38-40.88,9.13-19.67,27.25-20.43,27.25-20.43Z"/><path class="cls-1" d="M197.28,1018.58s20.43,.49,34.45,18.29c8.18,10.39,12.39,30.37,13.78,49.84,0,0-29.56-2.84-44.48-25.58-14.92-22.74-3.75-42.56-3.75-42.56Z"/><path class="cls-1" d="M218.14,1014.18s10.36,17.61,2.63,38.92c-4.51,12.43-19.26,26.55-35.08,38,0,0-13.18-26.61-1.73-51.28,11.45-24.67,34.18-25.63,34.18-25.63Z"/><path class="cls-1" d="M198.12,999.78s10.36,17.61,2.63,38.92c-4.51,12.43-19.26,26.55-35.08,38,0,0-13.18-26.61-1.73-51.28,11.45-24.67,34.18-25.63,34.18-25.63Z"/><path class="cls-1" d="M266.53,1014.59s19.26,2.47,34.11,23.85c8.67,12.47,14.51,35.39,17.65,57.46,0,0-28.06-5.98-44.23-33.01-16.17-27.03-7.53-48.31-7.53-48.31Z"/><path class="cls-1" d="M264.4,1018.23s10.36,17.61,2.63,38.92c-4.51,12.43-19.26,26.55-35.08,38,0,0-13.18-26.61-1.73-51.28s34.18-25.63,34.18-25.63Z"/><path class="cls-1" d="M325.38,1018.85s20.43,.49,34.45,18.29c8.18,10.39,12.39,30.37,13.78,49.84,0,0-29.56-2.84-44.48-25.58-14.92-22.74-3.75-42.56-3.75-42.56Z"/><path class="cls-1" d="M310.72,1014.47s14.08,14.81,11.37,37.31c-1.58,13.13-12.75,30.22-25.56,44.96,0,0-18.86-22.94-13.3-49.56,5.56-26.62,27.49-32.71,27.49-32.71Z"/><path class="cls-1" d="M336.25,994.17s14.08,14.81,11.37,37.31c-1.58,13.13-12.75,30.22-25.56,44.96,0,0-18.86-22.94-13.3-49.56,5.56-26.62,27.49-32.71,27.49-32.71Z"/><path class="cls-1" d="M382.94,1039.47s16.01,.38,27,14.34c6.41,8.14,9.71,23.8,10.8,39.07,0,0-23.17-2.22-34.86-20.05-11.7-17.82-2.94-33.36-2.94-33.36Z"/><path class="cls-1" d="M394.12,1029.58s9.43,18.92-.75,43.65c-5.94,14.43-22.94,31.7-40.83,46.05,0,0-11.61-28.81,2.83-57.68,14.45-28.87,38.75-32.03,38.75-32.03Z"/><path class="cls-1" d="M470.48,1048.77s11.42,9.96,10.98,26.76c-.26,9.8-7.33,23.2-15.77,34.96,0,0-15.52-15.63-13.25-35.67,2.27-20.04,18.04-26.05,18.04-26.05Z"/><path class="cls-1" d="M442.43,1027.86s15.9,12.83,16.17,35.5c.16,13.22-8.68,31.63-19.44,47.92,0,0-21.71-20.26-19.69-47.39,2.02-27.12,22.96-36.03,22.96-36.03Z"/><path class="cls-1" d="M532.07,1035.68s16.7,11.79,18.42,34.38c1,13.18-6.63,32.13-16.32,49.07,0,0-22.97-18.82-22.69-46.02,.28-27.2,20.6-37.43,20.6-37.43Z"/><path class="cls-1" d="M518.77,1050.67s3.06,15.87-8.35,29.7c-6.65,8.07-21.39,14.69-36.21,19.03,0,0-2.78-23.33,12.29-38.68,15.07-15.36,32.27-10.05,32.27-10.05Z"/><path class="cls-1" d="M571.69,1048.6s20.43,.49,34.45,18.29c8.18,10.39,12.39,30.37,13.78,49.84,0,0-29.56-2.84-44.48-25.58-14.92-22.74-3.75-42.56-3.75-42.56Z"/><path class="cls-1" d="M584.37,1033.58s10.36,17.61,2.63,38.92c-4.51,12.43-19.26,26.55-35.08,38,0,0-13.18-26.61-1.73-51.28,11.45-24.67,34.18-25.63,34.18-25.63Z"/><path class="cls-1" d="M651.73,1047.94s18.34,9.01,23.59,31.06c3.06,12.86-1.49,32.77-8.4,51.03,0,0-25.64-14.98-29.65-41.88-4-26.9,14.46-40.2,14.46-40.2Z"/><path class="cls-1" d="M618.5,1063.81s12.54,4.07,17.92,17.67c3.14,7.93,2.05,21.06-.68,33.36,0,0-17.75-7.21-22.77-24.02-5.03-16.81,5.54-27,5.54-27Z"/><path class="cls-1" d="M704.53,1058.73s20.43,.49,34.45,18.29c8.18,10.39,12.39,30.37,13.78,49.84,0,0-29.56-2.84-44.48-25.58-14.92-22.74-3.75-42.56-3.75-42.56Z"/><path class="cls-1" d="M713.93,1044.91s10.36,17.61,2.63,38.92c-4.51,12.43-19.26,26.55-35.08,38,0,0-13.18-26.61-1.73-51.28,11.45-24.67,34.18-25.63,34.18-25.63Z"/><path class="cls-1" d="M790.21,1062.48s18.67,8.31,24.75,30.14c3.55,12.74-.25,32.8-6.47,51.31,0,0-26.19-14-31.21-40.73-5.02-26.73,12.92-40.72,12.92-40.72Z"/><path class="cls-1" d="M788.31,1058.69s9.12,19.36-1.89,45.24c-6.42,15.1-24.18,33.43-42.77,48.77,0,0-11.08-29.55,4.37-59.83,15.46-30.28,40.29-34.18,40.29-34.18Z"/><path class="cls-1" d="M845.84,1075.32s20.43,.49,34.45,18.29c8.18,10.39,12.39,30.37,13.78,49.84,0,0-29.56-2.84-44.48-25.58-14.92-22.74-3.75-42.56-3.75-42.56Z"/><path class="cls-1" d="M852.89,1069.71s10.36,17.61,2.63,38.92c-4.51,12.43-19.26,26.55-35.08,38,0,0-13.18-26.61-1.73-51.28,11.45-24.67,34.18-25.63,34.18-25.63Z"/><path class="cls-1" d="M902.17,1080.23s19.97,4.34,30.37,24.48c6.07,11.75,6.43,32.17,4.11,51.55,0,0-28.49-8.38-38.84-33.53-10.35-25.15,4.37-42.5,4.37-42.5Z"/><path class="cls-1" d="M906.61,1074.41s10.36,17.61,2.63,38.92c-4.51,12.43-19.26,26.55-35.08,38,0,0-13.18-26.61-1.73-51.28,11.45-24.67,34.18-25.63,34.18-25.63Z"/><path class="cls-1" d="M966.84,1083.64s20.43,.49,34.45,18.29c8.18,10.39,12.39,30.37,13.78,49.84,0,0-29.56-2.84-44.48-25.58-14.92-22.74-3.75-42.56-3.75-42.56Z"/><path class="cls-1" d="M965.73,1066.94s13.26,15.55,9.34,37.87c-2.29,13.02-14.37,29.49-27.96,43.51,0,0-17.6-23.92-10.6-50.21,7-26.28,29.22-31.17,29.22-31.17Z"/><path class="cls-1" d="M1011.18,1087.52s20.43,.49,34.45,18.29c8.18,10.39,12.39,30.37,13.78,49.84,0,0-29.56-2.84-44.48-25.58-14.92-22.74-3.75-42.56-3.75-42.56Z"/><path class="cls-1" d="M1044.42,1083.5s8.89,19.68-2.73,46.42c-6.78,15.6-25.09,34.71-44.2,50.77,0,0-10.69-30.09,5.51-61.42,16.2-31.32,41.42-35.77,41.42-35.77Z"/><path class="cls-1" d="M1070.49,1100.19s25.25,.6,42.57,22.61c10.11,12.84,15.32,37.53,17.03,61.6,0,0-36.53-3.51-54.97-31.61-18.44-28.1-4.63-52.6-4.63-52.6Z"/><path class="cls-1" d="M1077.47,1082.02s10.36,17.61,2.63,38.92c-4.51,12.43-19.26,26.55-35.08,38,0,0-13.18-26.61-1.73-51.28,11.45-24.67,34.18-25.63,34.18-25.63Z"/><path class="cls-1" d="M1158.99,1102.72s20.43,.49,34.45,18.29c8.18,10.39,12.39,30.37,13.78,49.84,0,0-29.56-2.84-44.48-25.58-14.92-22.74-3.75-42.56-3.75-42.56Z"/><path class="cls-1" d="M1173.27,1103.82s-.52,20.43-18.35,34.42c-10.4,8.16-30.39,12.35-49.87,13.7,0,0,2.89-29.56,25.65-44.44,22.76-14.89,42.57-3.68,42.57-3.68Z"/><path class="cls-1" d="M1157.03,1106.7s12.04,9.4,12.51,26.34c.27,9.88-6.1,23.75-13.96,36.05,0,0-16.47-14.88-15.29-35.18,1.19-20.3,16.73-27.21,16.73-27.21Z"/><path class="cls-1" d="M1244.46,1103.21s18.54,8.6,24.28,30.53c3.35,12.79-.76,32.79-7.27,51.2,0,0-25.97-14.4-30.57-41.21-4.6-26.81,13.56-40.52,13.56-40.52Z"/><path class="cls-1" d="M1242.25,1078.71s10.36,17.61,2.63,38.92c-4.51,12.43-19.26,26.55-35.08,38,0,0-13.18-26.61-1.73-51.28,11.45-24.67,34.18-25.63,34.18-25.63Z"/><path class="cls-1" d="M1301.09,1112.36s19.84,4.89,29.68,25.31c5.74,11.91,5.54,32.33,2.68,51.65,0,0-28.25-9.16-37.9-34.59-9.65-25.43,5.54-42.36,5.54-42.36Z"/><path class="cls-1" d="M1299.63,1112.92s8.26,14.04,2.1,31.02c-3.6,9.91-15.36,21.16-27.96,30.29,0,0-10.51-21.21-1.38-40.88,9.13-19.67,27.25-20.43,27.25-20.43Z"/><path class="cls-1" d="M1358.34,1120.16s20.43,.49,34.45,18.29c8.18,10.39,12.39,30.37,13.78,49.84,0,0-29.56-2.84-44.48-25.58-14.92-22.74-3.75-42.56-3.75-42.56Z"/><path class="cls-1" d="M1379.2,1115.76s10.36,17.61,2.63,38.92c-4.51,12.43-19.26,26.55-35.08,38,0,0-13.18-26.61-1.73-51.28,11.45-24.67,34.18-25.63,34.18-25.63Z"/><path class="cls-1" d="M1359.18,1101.36s10.36,17.61,2.63,38.92c-4.51,12.43-19.26,26.55-35.08,38,0,0-13.18-26.61-1.73-51.28,11.45-24.67,34.18-25.63,34.18-25.63Z"/><path class="cls-1" d="M1427.59,1116.17s19.26,2.47,34.11,23.85c8.67,12.47,14.51,35.39,17.65,57.46,0,0-28.06-5.98-44.23-33.01-16.17-27.03-7.53-48.31-7.53-48.31Z"/><path class="cls-1" d="M1425.46,1119.81s10.36,17.61,2.63,38.92c-4.51,12.43-19.26,26.55-35.08,38,0,0-13.18-26.61-1.73-51.28,11.45-24.67,34.18-25.63,34.18-25.63Z"/><path class="cls-1" d="M1486.44,1120.43s20.43,.49,34.45,18.29c8.18,10.39,12.39,30.37,13.78,49.84,0,0-29.56-2.84-44.48-25.58-14.92-22.74-3.75-42.56-3.75-42.56Z"/><path class="cls-1" d="M1471.78,1116.05s14.08,14.81,11.37,37.31c-1.58,13.13-12.75,30.22-25.56,44.96,0,0-18.86-22.94-13.3-49.56s27.49-32.71,27.49-32.71Z"/><path class="cls-1" d="M1497.31,1095.75s14.08,14.81,11.37,37.31c-1.58,13.13-12.75,30.22-25.56,44.96,0,0-18.86-22.94-13.3-49.56,5.56-26.62,27.49-32.71,27.49-32.71Z"/><path class="cls-1" d="M1543.99,1141.05s16.01,.38,27,14.34c6.41,8.14,9.71,23.8,10.8,39.07,0,0-23.17-2.22-34.86-20.05-11.7-17.82-2.94-33.36-2.94-33.36Z"/><path class="cls-1" d="M1555.17,1131.16s9.43,18.92-.75,43.65c-5.94,14.43-22.94,31.7-40.83,46.05,0,0-11.61-28.81,2.83-57.68,14.45-28.87,38.75-32.03,38.75-32.03Z"/><path class="cls-1" d="M1631.54,1150.34s11.42,9.96,10.98,26.76c-.26,9.8-7.33,23.2-15.77,34.96,0,0-15.52-15.63-13.25-35.67,2.27-20.04,18.04-26.05,18.04-26.05Z"/><path class="cls-1" d="M1603.49,1129.44s15.9,12.83,16.17,35.5c.16,13.22-8.68,31.63-19.44,47.92,0,0-21.71-20.26-19.69-47.39,2.02-27.12,22.96-36.03,22.96-36.03Z"/><path class="cls-1" d="M1693.13,1137.26s16.7,11.79,18.42,34.38c1,13.18-6.63,32.13-16.32,49.07,0,0-22.97-18.82-22.69-46.02,.28-27.2,20.6-37.43,20.6-37.43Z"/><path class="cls-1" d="M1679.83,1152.25s3.06,15.87-8.35,29.7c-6.65,8.07-21.39,14.69-36.21,19.03,0,0-2.78-23.33,12.29-38.68,15.07-15.36,32.27-10.05,32.27-10.05Z"/><path class="cls-1" d="M1732.75,1150.18s20.43,.49,34.45,18.29c8.18,10.39,12.39,30.37,13.78,49.84,0,0-29.56-2.84-44.48-25.58-14.92-22.74-3.75-42.56-3.75-42.56Z"/><path class="cls-1" d="M1745.43,1135.16s10.36,17.61,2.63,38.92c-4.51,12.43-19.26,26.55-35.08,38,0,0-13.18-26.61-1.73-51.28,11.45-24.67,34.18-25.63,34.18-25.63Z"/><path class="cls-1" d="M1812.79,1149.52s18.34,9.01,23.59,31.06c3.06,12.86-1.49,32.77-8.4,51.03,0,0-25.64-14.98-29.65-41.88-4-26.9,14.46-40.2,14.46-40.2Z"/><path class="cls-1" d="M1779.56,1165.39s12.54,4.07,17.92,17.67c3.14,7.93,2.05,21.06-.68,33.36,0,0-17.75-7.21-22.77-24.02s5.54-27,5.54-27Z"/><path class="cls-1" d="M1865.59,1160.31s20.43,.49,34.45,18.29c8.18,10.39,12.39,30.37,13.78,49.84,0,0-29.56-2.84-44.48-25.58-14.92-22.74-3.75-42.56-3.75-42.56Z"/><path class="cls-1" d="M1874.99,1146.49s10.36,17.61,2.63,38.92c-4.51,12.43-19.26,26.55-35.08,38,0,0-13.18-26.61-1.73-51.28s34.18-25.63,34.18-25.63Z"/><path class="cls-1" d="M1949.37,1160.27s9.12,19.36-1.89,45.24c-6.42,15.1-24.18,33.43-42.77,48.77,0,0-11.08-29.55,4.37-59.83,15.46-30.28,40.29-34.18,40.29-34.18Z"/></g></g></g></g></svg>