<?xml version="1.0" encoding="UTF-8"?><svg id="Capa_1" xmlns="http://www.w3.org/2000/svg" xmlns:xlink="http://www.w3.org/1999/xlink" viewBox="0 0 1920 1284.52"><defs><style>.cls-1{fill:#eb8022;}.cls-2{clip-path:url(#clippath);}.cls-3{fill:none;}.cls-4{filter:url(#drop-shadow-9);}</style><clipPath id="clippath"><rect class="cls-3" width="1920" height="1254.99"/></clipPath><filter id="drop-shadow-9" filterUnits="userSpaceOnUse"><feOffset dx="7" dy="12"/><feGaussianBlur result="blur" stdDeviation="12"/><feFlood flood-color="#000" flood-opacity=".4"/><feComposite in2="blur" operator="in"/><feComposite in="SourceGraphic"/></filter></defs><g class="cls-2"><g class="cls-4"><g><polygon class="cls-1" points="-164.75 1166.64 2430.84 939.56 2349.59 -54.18 -143.19 -54.18 -164.75 1166.64"/><g><path class="cls-1" d="M-56,1127.1s20.21-3.07,37.1,12.03c9.86,8.81,17.48,27.76,22.23,46.69,0,0-29.6,2.34-48.25-17.47-18.64-19.8-11.08-41.26-11.08-41.26Z"/><path class="cls-1" d="M4.61,1129.27s24.97-3.79,45.85,14.87c12.18,10.89,21.6,34.3,27.47,57.71,0,0-36.59,2.89-59.63-21.59-23.04-24.47-13.69-50.99-13.69-50.99Z"/><path class="cls-1" d="M8.33,1110.18s13.26,15.55,9.35,37.87c-2.29,13.02-14.36,29.49-27.95,43.51,0,0-17.6-23.92-10.61-50.2,6.99-26.29,29.21-31.18,29.21-31.18Z"/><path class="cls-1" d="M92.21,1116.4s20.21-3.07,37.1,12.03c9.86,8.81,17.48,27.76,22.23,46.69,0,0-29.6,2.34-48.25-17.47-18.64-19.8-11.08-41.26-11.08-41.26Z"/><path class="cls-1" d="M106.46,1115.01s3.04,20.21-12.09,37.08c-8.83,9.84-27.78,17.44-46.73,22.15,0,0-2.29-29.61,17.54-48.22,19.83-18.61,41.28-11.01,41.28-11.01Z"/><path class="cls-1" d="M90.97,1120.66s13.49,7.17,16.9,23.76c1.99,9.68-1.89,24.45-7.48,37.93,0,0-18.81-11.8-21.16-31.99-2.36-20.2,11.75-29.7,11.75-29.7Z"/><path class="cls-1" d="M176.47,1102.04s19.75,5.25,29.21,25.85c5.52,12.01,4.94,32.43,1.73,51.69,0,0-28.08-9.68-37.26-35.28-9.19-25.6,6.32-42.25,6.32-42.25Z"/><path class="cls-1" d="M170.04,1078.3s13.26,15.55,9.35,37.87c-2.29,13.02-14.36,29.49-27.95,43.51,0,0-17.6-23.92-10.61-50.2,6.99-26.29,29.21-31.18,29.21-31.18Z"/><path class="cls-1" d="M233.83,1101.22s20.39,1.37,33.62,19.77c7.72,10.73,11.07,30.88,11.61,50.39,0,0-29.41-4.12-43.33-27.48-13.92-23.37-1.9-42.68-1.9-42.68Z"/><path class="cls-1" d="M232.48,1102.02s10.57,12.39,7.45,30.18c-1.82,10.38-11.45,23.51-22.28,34.68,0,0-14.03-19.06-8.46-40.02,5.57-20.95,23.28-24.85,23.28-24.85Z"/><path class="cls-1" d="M291.56,1098.96s20.21-3.07,37.1,12.03c9.86,8.81,17.48,27.76,22.23,46.69,0,0-29.6,2.34-48.25-17.47-18.64-19.8-11.08-41.26-11.08-41.26Z"/><path class="cls-1" d="M311.34,1091s13.26,15.55,9.35,37.87c-2.29,13.02-14.36,29.49-27.95,43.51,0,0-17.6-23.92-10.61-50.2,6.99-26.29,29.21-31.18,29.21-31.18Z"/><path class="cls-1" d="M289.12,1080.3s13.26,15.55,9.35,37.87c-2.29,13.02-14.36,29.49-27.95,43.51,0,0-17.6-23.92-10.61-50.2,6.99-26.29,29.21-31.18,29.21-31.18Z"/><path class="cls-1" d="M359.06,1083s19.39-.91,37.73,17.57c10.7,10.78,20.44,32.33,27.36,53.52,0,0-28.67-1.02-49.29-24.82-20.62-23.81-15.8-46.27-15.8-46.27Z"/><path class="cls-1" d="M357.6,1086.96s13.26,15.55,9.35,37.87c-2.29,13.02-14.36,29.49-27.95,43.51,0,0-17.6-23.92-10.61-50.2,6.99-26.29,29.21-31.18,29.21-31.18Z"/><path class="cls-1" d="M417.76,1076.98s20.21-3.07,37.1,12.03c9.86,8.81,17.48,27.76,22.23,46.69,0,0-29.6,2.34-48.25-17.47-18.64-19.8-11.08-41.26-11.08-41.26Z"/><path class="cls-1" d="M402.56,1075.21s16.44,12.14,17.68,34.77c.72,13.2-7.31,31.98-17.37,48.71,0,0-22.56-19.31-21.7-46.5,.86-27.19,21.39-36.98,21.39-36.98Z"/><path class="cls-1" d="M424.18,1050.78s16.44,12.14,17.68,34.77c.72,13.2-7.31,31.98-17.37,48.71,0,0-22.56-19.31-21.7-46.5,.86-27.19,21.39-36.98,21.39-36.98Z"/><path class="cls-1" d="M478.02,1087.29s15.84-2.4,29.08,9.43c7.73,6.91,13.7,21.76,17.42,36.6,0,0-23.2,1.83-37.82-13.69-14.61-15.52-8.68-32.34-8.68-32.34Z"/><path class="cls-1" d="M487.31,1075.61s12.57,16.99,6.84,43.12c-3.34,15.24-17.09,35.2-32.21,52.45,0,0-16.44-26.35-7.22-57.29,9.21-30.94,32.6-38.27,32.6-38.27Z"/><path class="cls-1" d="M565.85,1081.24s12.98,7.83,15.46,24.45c1.45,9.7-3.19,24.12-9.46,37.17,0,0-17.99-12.7-19.24-32.83-1.25-20.13,13.24-28.79,13.24-28.79Z"/><path class="cls-1" d="M534.59,1065.53s17.89,9.88,22.09,32.15c2.45,12.99-3.05,32.66-10.83,50.57,0,0-24.9-16.18-27.62-43.25-2.72-27.06,16.35-39.47,16.35-39.47Z"/><path class="cls-1" d="M624.23,1057.67s18.49,8.71,24.11,30.66c3.28,12.81-.95,32.79-7.55,51.16,0,0-25.89-14.55-30.34-41.38-4.45-26.83,13.79-40.44,13.79-40.44Z"/><path class="cls-1" d="M613.74,1074.73s5.77,15.1-3.06,30.7c-5.15,9.1-18.52,18.18-32.36,25.03,0,0-6.78-22.49,5.39-40.23,12.17-17.74,30.03-15.5,30.03-15.5Z"/><path class="cls-1" d="M665.49,1063.51s20.21-3.07,37.1,12.03c9.86,8.81,17.48,27.76,22.23,46.69,0,0-29.6,2.34-48.25-17.47-18.64-19.8-11.08-41.26-11.08-41.26Z"/><path class="cls-1" d="M675.37,1046.51s13.26,15.55,9.35,37.87c-2.29,13.02-14.36,29.49-27.95,43.51,0,0-17.6-23.92-10.61-50.2,6.99-26.29,29.21-31.18,29.21-31.18Z"/><path class="cls-1" d="M744.2,1048.96s19.63,5.69,28.63,26.49c5.25,12.13,4.22,32.53,.58,51.71,0,0-27.85-10.3-36.47-36.1-8.61-25.8,7.25-42.1,7.25-42.1Z"/><path class="cls-1" d="M714.23,1070.36s13.06,1.83,20.71,14.29c4.47,7.27,5.68,20.39,5.12,32.97,0,0-18.73-4.02-26.6-19.7-7.87-15.68,.77-27.55,.77-27.55Z"/><path class="cls-1" d="M798.07,1050.42s20.21-3.07,37.1,12.03c9.86,8.81,17.48,27.76,22.23,46.69,0,0-29.6,2.34-48.25-17.47-18.64-19.8-11.08-41.26-11.08-41.26Z"/><path class="cls-1" d="M804.93,1035.17s13.26,15.55,9.35,37.87c-2.29,13.02-14.36,29.49-27.95,43.51,0,0-17.6-23.92-10.61-50.2,6.99-26.29,29.21-31.18,29.21-31.18Z"/><path class="cls-1" d="M883.1,1039.23s19.83,4.95,29.61,25.39c5.71,11.93,5.45,32.35,2.54,51.65,0,0-28.22-9.24-37.81-34.69-9.58-25.45,5.66-42.35,5.66-42.35Z"/><path class="cls-1" d="M880.58,1035.82s12.34,17.48,6,44.88c-3.7,15.99-18.01,37.13-33.65,55.45,0,0-16.05-27.17-6.08-59.68,9.96-32.51,33.74-40.66,33.74-40.66Z"/><path class="cls-1" d="M940.12,1042.22s20.21-3.07,37.1,12.03c9.86,8.81,17.48,27.76,22.23,46.69,0,0-29.6,2.34-48.25-17.47-18.64-19.8-11.08-41.26-11.08-41.26Z"/><path class="cls-1" d="M946.09,1035.47s13.26,15.55,9.35,37.87c-2.29,13.02-14.36,29.49-27.95,43.51,0,0-17.6-23.92-10.61-50.2,6.99-26.29,29.21-31.18,29.21-31.18Z"/><path class="cls-1" d="M996.44,1037.27s20.42,.81,34.16,18.83c8.01,10.52,11.92,30.56,13,50.05,0,0-29.51-3.3-44.08-26.27-14.56-22.97-3.08-42.61-3.08-42.61Z"/><path class="cls-1" d="M999.81,1030.77s13.26,15.55,9.35,37.87c-2.29,13.02-14.36,29.49-27.95,43.51,0,0-17.6-23.92-10.61-50.2s29.21-31.18,29.21-31.18Z"/><path class="cls-1" d="M1060.72,1029.4s20.21-3.07,37.1,12.03c9.86,8.81,17.48,27.76,22.23,46.69,0,0-29.6,2.34-48.25-17.47-18.64-19.8-11.08-41.26-11.08-41.26Z"/><path class="cls-1" d="M1056.73,1013.14s15.76,13.01,15.77,35.67c0,13.22-9.03,31.54-19.98,47.7,0,0-21.48-20.5-19.16-47.6,2.33-27.1,23.36-35.77,23.36-35.77Z"/><path class="cls-1" d="M1105.06,1025.52s20.21-3.07,37.1,12.03c9.86,8.81,17.48,27.76,22.23,46.69,0,0-29.6,2.34-48.25-17.47-18.64-19.8-11.08-41.26-11.08-41.26Z"/><path class="cls-1" d="M1137.1,1015.79s12.17,17.84,5.37,46.18c-3.96,16.54-18.69,38.54-34.71,57.67,0,0-15.76-27.78-5.24-61.44,10.51-33.66,34.58-42.41,34.58-42.41Z"/><path class="cls-1" d="M1165.67,1027.7s24.97-3.79,45.85,14.87c12.18,10.89,21.6,34.3,27.47,57.71,0,0-36.59,2.89-59.63-21.59-23.04-24.47-13.69-50.99-13.69-50.99Z"/><path class="cls-1" d="M1169.39,1008.6s13.26,15.55,9.35,37.87c-2.29,13.02-14.36,29.49-27.95,43.51,0,0-17.6-23.92-10.61-50.2,6.99-26.29,29.21-31.18,29.21-31.18Z"/><path class="cls-1" d="M1253.27,1014.82s20.21-3.07,37.1,12.03c9.86,8.81,17.48,27.76,22.23,46.69,0,0-29.6,2.34-48.25-17.47s-11.08-41.26-11.08-41.26Z"/><path class="cls-1" d="M1267.52,1013.43s3.04,20.21-12.09,37.08c-8.83,9.84-27.78,17.44-46.73,22.15,0,0-2.29-29.61,17.54-48.22,19.83-18.61,41.28-11.01,41.28-11.01Z"/><path class="cls-1" d="M1252.03,1019.08s13.49,7.17,16.9,23.76c1.99,9.68-1.89,24.45-7.48,37.93,0,0-18.81-11.8-21.16-31.99-2.36-20.2,11.75-29.7,11.75-29.7Z"/><path class="cls-1" d="M1337.53,1000.47s19.75,5.25,29.21,25.85c5.52,12.01,4.94,32.43,1.73,51.69,0,0-28.08-9.68-37.26-35.28-9.19-25.6,6.32-42.25,6.32-42.25Z"/><path class="cls-1" d="M1331.1,976.72s13.26,15.55,9.35,37.87c-2.29,13.02-14.36,29.49-27.95,43.51,0,0-17.6-23.92-10.61-50.2s29.21-31.18,29.21-31.18Z"/><path class="cls-1" d="M1394.89,999.64s20.39,1.37,33.62,19.77c7.72,10.73,11.07,30.88,11.61,50.39,0,0-29.41-4.12-43.33-27.48-13.92-23.37-1.9-42.68-1.9-42.68Z"/><path class="cls-1" d="M1393.54,1000.44s10.57,12.39,7.45,30.18c-1.82,10.38-11.45,23.51-22.28,34.68,0,0-14.03-19.06-8.46-40.02,5.57-20.95,23.28-24.85,23.28-24.85Z"/><path class="cls-1" d="M1452.62,997.38s20.21-3.07,37.1,12.03c9.86,8.81,17.48,27.76,22.23,46.69,0,0-29.6,2.34-48.25-17.47-18.64-19.8-11.08-41.26-11.08-41.26Z"/><path class="cls-1" d="M1472.39,989.42s13.26,15.55,9.35,37.87c-2.29,13.02-14.36,29.49-27.95,43.51,0,0-17.6-23.92-10.61-50.2,6.99-26.29,29.21-31.18,29.21-31.18Z"/><path class="cls-1" d="M1450.18,978.72s13.26,15.55,9.35,37.87c-2.29,13.02-14.36,29.49-27.95,43.51,0,0-17.6-23.92-10.61-50.2,6.99-26.29,29.21-31.18,29.21-31.18Z"/><path class="cls-1" d="M1520.12,981.42s19.39-.91,37.73,17.57c10.7,10.78,20.44,32.33,27.36,53.52,0,0-28.67-1.02-49.29-24.82-20.62-23.81-15.8-46.27-15.8-46.27Z"/><path class="cls-1" d="M1518.66,985.38s13.26,15.55,9.35,37.87c-2.29,13.02-14.36,29.49-27.95,43.51,0,0-17.6-23.92-10.61-50.2s29.21-31.18,29.21-31.18Z"/><path class="cls-1" d="M1578.82,975.4s20.21-3.07,37.1,12.03c9.86,8.81,17.48,27.76,22.23,46.69,0,0-29.6,2.34-48.25-17.47-18.64-19.8-11.08-41.26-11.08-41.26Z"/><path class="cls-1" d="M1563.62,973.63s16.44,12.14,17.68,34.77c.72,13.2-7.31,31.98-17.37,48.71,0,0-22.56-19.31-21.7-46.5,.86-27.19,21.39-36.98,21.39-36.98Z"/><path class="cls-1" d="M1585.24,949.2s16.44,12.14,17.68,34.77c.72,13.2-7.31,31.98-17.37,48.71,0,0-22.56-19.31-21.7-46.5,.86-27.19,21.39-36.98,21.39-36.98Z"/><path class="cls-1" d="M1639.08,985.71s15.84-2.4,29.08,9.43c7.73,6.91,13.7,21.76,17.42,36.6,0,0-23.2,1.83-37.82-13.69-14.61-15.52-8.68-32.34-8.68-32.34Z"/><path class="cls-1" d="M1648.37,974.03s12.57,16.99,6.84,43.12c-3.34,15.24-17.09,35.2-32.21,52.45,0,0-16.44-26.35-7.22-57.29,9.21-30.94,32.6-38.27,32.6-38.27Z"/><path class="cls-1" d="M1726.91,979.66s12.98,7.83,15.46,24.45c1.45,9.7-3.19,24.12-9.46,37.17,0,0-17.99-12.7-19.24-32.83-1.25-20.13,13.24-28.79,13.24-28.79Z"/><path class="cls-1" d="M1695.65,963.95s17.89,9.88,22.09,32.15c2.45,12.99-3.05,32.66-10.83,50.57,0,0-24.9-16.18-27.62-43.25-2.72-27.06,16.35-39.47,16.35-39.47Z"/><path class="cls-1" d="M1785.29,956.09s18.49,8.71,24.11,30.66c3.28,12.81-.95,32.79-7.55,51.16,0,0-25.89-14.55-30.34-41.38-4.45-26.83,13.79-40.44,13.79-40.44Z"/><path class="cls-1" d="M1774.8,973.15s5.77,15.1-3.06,30.7c-5.15,9.1-18.52,18.18-32.36,25.03,0,0-6.78-22.49,5.39-40.23,12.17-17.74,30.03-15.5,30.03-15.5Z"/><path class="cls-1" d="M1826.55,961.93s20.21-3.07,37.1,12.03c9.86,8.81,17.48,27.76,22.23,46.69,0,0-29.6,2.34-48.25-17.47-18.64-19.8-11.08-41.26-11.08-41.26Z"/><path class="cls-1" d="M1836.43,944.93s13.26,15.55,9.35,37.87c-2.29,13.02-14.36,29.49-27.95,43.51,0,0-17.6-23.92-10.61-50.2,6.99-26.29,29.21-31.18,29.21-31.18Z"/><path class="cls-1" d="M1905.26,947.38s19.63,5.69,28.63,26.49c5.25,12.13,4.22,32.53,.58,51.71,0,0-27.85-10.3-36.47-36.1-8.61-25.8,7.25-42.1,7.25-42.1Z"/><path class="cls-1" d="M1875.29,968.78s13.06,1.83,20.71,14.29c4.47,7.27,5.68,20.39,5.12,32.97,0,0-18.73-4.02-26.6-19.7-7.87-15.68,.77-27.55,.77-27.55Z"/></g></g></g></g></svg>