<?xml version="1.0" encoding="UTF-8"?><svg id="Capa_1" xmlns="http://www.w3.org/2000/svg" viewBox="0 0 1920 1554.96"><defs><style>.cls-1{fill:#fff;}</style></defs><path class="cls-1" d="M1915.85,1.22c-100.54,29.73-150.81,44.6-194.61,66.63-113.91,57.28-99.83,97.58-183.92,131.03-74.69,29.71-87.77-1.29-265.19,8.88-200.99,11.52-240.68,54.55-252.36,68.85-40.37,49.43-40.95,116.75-59.88,115.48-21.2-1.42-14.83-85.47-70.57-119.93-18.08-11.17-26.06-6.86-62.02-15.55-37.8-9.14-62.2-21.94-126.18-57.74-142.66-79.84-131.58-77.87-145.43-82.17-72.83-22.61-101.63,9.24-205.31,15.55-15.7,.95-131,6.86-245.94-39.98C65.24,76.3,30.54,56,0,33.58V1554.96H1920V0c-1.38,.41-2.76,.81-4.15,1.22Z"/></svg>