<svg id="Capa_1" data-name="Capa 1" xmlns="http://www.w3.org/2000/svg" viewBox="0 0 126.59 90.65"><defs><style>.cls-1{stroke:#000;stroke-miterlimit:10;}</style></defs><g id="taza"><path class="cls-1" d="M454.49,549.58l-1.25,0c-14.81-.43-30-8.51-41.64-22.18-14.84-17.42-21.57-41-18.45-64.72l.36-2.74H517l.34,2.76c3,24.44-4.36,48.46-20.24,65.9C484.9,542,469.44,549.58,454.49,549.58Zm-55.42-83.37c-2.05,21,4.19,41.69,17.31,57.09,10.5,12.32,24,19.6,37,20,13.27.39,27.89-6.7,39-18.93,14-15.43,20.87-36.49,18.94-58.14Z" transform="translate(-391.9 -459.42)"/><rect class="cls-1" x="7.83" y="37.41" width="110.69" height="6.28"/></g></svg>