<svg id="Capa_1" data-name="Capa 1" xmlns="http://www.w3.org/2000/svg" viewBox="0 0 65.78 146.46"><defs><style>.cls-1{stroke:#000;stroke-miterlimit:10;}</style></defs><g id="termometro"><path class="cls-1" d="M508.93,602.91a35.29,35.29,0,0,1-23.51-8.55c-9-8.12-14.8-23.35-8.38-36.74,3.88-8.1,10.82-12.33,15.3-14.33V469.46l.21-.41c.24-.47,6.06-11.55,14.48-11.6h.07c5,0,9.69,3.9,13.79,11.58l.22.42v74a36.76,36.76,0,0,1,12.26,12.23c5.92,9.8,8.62,24.47,1.3,35.15-4.38,6.41-12.1,10.7-21.18,11.79A38.87,38.87,0,0,1,508.93,602.91ZM496.11,470.39v75.42l-1.19.48c-3.82,1.53-10.79,5.26-14.48,13-5.56,11.6-.29,25.31,7.5,32.31,6.34,5.71,15.73,8.45,25.11,7.33,8-.95,14.74-4.66,18.51-10.17,6.33-9.24,3.7-22.59-1.42-31.07a33.25,33.25,0,0,0-11.86-11.48l-.94-.54V470.4c-3.32-6.09-6.77-9.18-10.24-9.18h0C502.2,461.25,497.7,467.51,496.11,470.39Z" transform="translate(-473.81 -456.95)"/><rect class="cls-1" x="20.41" y="35.03" width="11.11" height="3.77"/><rect class="cls-1" x="20.41" y="53.29" width="11.11" height="3.77"/><rect class="cls-1" x="20.41" y="71.55" width="11.11" height="3.77"/></g></svg>