<svg id="Capa_1" data-name="Capa 1" xmlns="http://www.w3.org/2000/svg" viewBox="0 0 89.4 145.47"><defs><style>.cls-1{stroke:#000;stroke-miterlimit:10;}</style></defs><g id="hoja"><path class="cls-1" d="M497.08,572.18l-1-.74c-25.23-19.19-51.79-51.19-35.1-94.64,10.64-27.69,35.38-49,39.64-49h.09l.63.05.47.42c30.82,27.49,44.94,54.81,42,81.18-4.37,38.89-44,61.19-45.65,62.12Zm3.1-140.31c-5.81,3.26-34.1,27.9-39.66,60.76-4.63,27.31,7.78,52.55,36.87,75,6.31-3.82,38.93-25.13,42.68-58.64C542.85,484.18,529.43,458.23,500.18,431.87Zm.69-.33Z" transform="translate(-455.3 -427.32)"/><rect class="cls-1" x="430.01" y="496.94" width="138.29" height="3.77" transform="translate(-465.27 560.17) rotate(-88.81)"/><polygon class="cls-1" points="43.74 77.17 11.95 38.85 14.86 36.44 43.97 71.54 76.37 38.34 79.07 40.98 43.74 77.17"/><polygon class="cls-1" points="42.93 118.13 1.15 81.27 3.64 78.44 42.95 113.13 86.02 75.85 88.49 78.7 42.93 118.13"/></g></svg>